<?xml version="1.0" standalone="no"?><!DOCTYPE svg PUBLIC "-//W3C//DTD SVG 1.1//EN" "http://www.w3.org/Graphics/SVG/1.1/DTD/svg11.dtd"><svg height="1024" node-id="1" sillyvg="true" template-height="1024" template-width="1024" version="1.1" viewBox="0 0 1024 1024" width="1024" xmlns="http://www.w3.org/2000/svg" xmlns:xlink="http://www.w3.org/1999/xlink"><defs node-id="66"></defs><g node-id="187"><path d="M 1024.00 1024.00 L 0.00 1024.00 C 0.00 682.67 0.00 341.33 0.00 0.00 C 341.33 0.00 682.67 0.00 1024.00 0.00 L 1024.00 1024.00 Z M 389.05 834.88 C 388.07 834.06 387.09 833.24 386.11 832.42 C 385.49 834.51 384.78 836.59 384.32 838.72 C 384.25 839.03 385.36 839.58 385.93 840.03 C 386.63 838.73 387.30 837.42 388.04 836.15 C 388.35 835.62 388.81 835.18 389.20 834.70 C 388.55 839.41 387.90 844.13 387.23 849.05 C 383.58 847.33 382.33 848.36 381.84 851.48 C 380.65 859.00 379.01 866.45 377.92 873.98 C 377.22 878.79 376.83 883.78 382.84 886.10 C 383.41 886.32 383.95 887.81 383.79 888.54 C 381.82 897.34 379.72 906.12 377.65 914.90 C 376.99 915.33 376.34 915.77 375.68 916.20 C 374.43 914.27 373.51 911.96 371.85 910.47 C 368.17 907.15 364.22 904.11 360.19 901.22 C 357.82 899.52 354.65 899.07 353.36 902.12 C 352.64 903.81 353.76 906.64 354.75 908.60 C 355.58 910.26 357.42 911.41 359.19 913.16 C 357.54 913.45 356.30 913.83 355.04 913.88 C 335.90 914.68 321.54 924.01 311.38 939.61 C 308.16 944.55 304.73 945.72 299.49 945.87 C 281.28 946.39 263.09 947.26 244.89 948.07 C 243.67 948.12 242.47 948.75 241.26 949.11 C 241.32 949.61 241.38 950.11 241.44 950.61 C 243.13 950.75 244.82 951.03 246.51 951.01 C 270.46 950.76 294.40 950.37 318.35 950.24 C 331.58 950.17 344.82 950.66 358.05 950.65 C 378.63 950.63 399.22 950.07 419.79 950.35 C 447.38 950.72 474.96 951.79 502.54 952.34 C 522.40 952.74 542.27 953.00 562.14 952.94 C 591.19 952.84 620.23 952.34 649.28 952.12 C 671.43 951.95 693.58 951.94 715.74 951.90 C 727.32 951.88 738.90 952.21 750.47 951.90 C 763.68 951.55 776.88 950.50 790.09 950.07 C 802.36 949.67 814.64 949.75 826.91 949.44 C 827.99 949.41 829.04 948.10 830.11 947.38 C 829.14 946.68 828.22 945.50 827.19 945.39 C 824.25 945.08 821.25 945.07 818.29 945.19 C 796.56 946.09 774.84 947.09 753.11 947.95 C 747.73 948.16 742.33 947.98 736.93 947.98 C 738.84 946.73 740.77 946.33 742.69 945.84 C 758.59 941.75 774.51 937.70 790.38 933.50 C 794.49 932.41 795.68 929.67 793.43 925.90 C 792.25 923.93 791.18 921.45 789.37 920.40 C 782.24 916.29 775.17 911.66 767.44 909.13 C 759.61 906.57 751.05 906.28 742.63 904.96 C 743.44 904.08 744.43 903.21 745.16 902.16 C 746.85 899.74 749.51 896.91 746.59 894.33 C 745.20 893.10 741.90 893.77 739.51 894.04 C 738.34 894.17 737.21 895.25 736.21 896.08 C 731.82 899.75 727.48 903.50 723.09 907.24 C 723.01 907.04 722.24 905.64 721.81 904.14 C 718.61 892.89 713.78 882.28 710.86 870.81 C 705.18 848.57 697.24 826.90 690.15 805.02 C 688.85 801.00 687.97 796.33 685.32 793.39 C 682.80 790.59 682.15 788.27 682.22 784.87 C 682.25 783.02 680.73 781.18 680.09 779.27 C 679.08 776.26 677.97 773.24 677.41 770.14 C 677.12 768.55 678.57 766.57 678.13 765.11 C 669.18 735.46 660.12 705.84 650.97 676.25 C 645.33 658.02 639.40 639.88 633.85 621.62 C 631.78 614.82 627.64 608.10 631.33 601.15 C 633.98 599.92 636.46 599.26 638.34 597.81 C 649.90 588.90 661.82 580.37 672.66 570.65 C 689.43 555.61 703.60 538.31 713.22 517.68 C 719.27 504.71 720.96 491.48 716.40 477.55 C 712.98 467.12 706.37 458.78 699.49 450.77 C 679.04 426.95 656.87 404.78 631.73 385.89 C 620.08 377.13 607.82 368.95 595.03 362.00 C 580.84 354.29 565.88 347.81 549.21 346.93 C 548.13 341.41 547.14 336.29 546.07 330.81 C 547.79 330.81 548.77 330.92 549.72 330.79 C 568.93 328.25 588.14 325.47 606.34 318.56 C 619.46 313.58 631.75 306.92 640.64 295.50 C 647.48 286.71 646.44 278.08 636.94 272.13 C 630.55 268.13 623.26 265.58 616.41 262.30 C 614.52 261.40 612.75 260.22 610.86 259.13 C 615.41 255.15 619.49 252.03 623.01 248.38 C 628.88 242.30 633.49 235.13 633.57 226.51 C 633.70 211.91 624.19 200.78 610.01 196.93 C 601.61 194.65 593.43 195.25 585.25 197.81 C 582.13 175.81 572.04 161.98 554.07 156.31 C 533.03 149.67 515.11 154.30 501.76 173.12 C 497.49 148.30 478.94 134.36 458.25 135.72 C 437.16 137.10 421.48 150.47 419.77 171.78 C 418.01 171.36 416.30 170.91 414.57 170.55 C 406.01 168.79 397.43 167.77 389.09 171.45 C 382.87 174.20 378.82 180.23 379.18 185.80 C 379.63 192.77 383.38 197.76 390.50 199.93 C 394.43 201.13 398.61 201.54 403.31 202.43 C 401.63 203.08 400.39 203.43 399.28 204.02 C 392.86 207.45 385.88 210.18 380.20 214.58 C 370.59 222.02 369.56 234.74 376.77 243.37 C 381.57 249.12 387.83 252.50 394.99 253.88 C 401.56 255.14 408.27 255.65 414.91 256.50 C 414.40 260.83 403.21 268.72 390.40 273.91 C 386.17 260.32 382.28 259.81 370.82 271.40 C 370.22 271.23 369.57 271.08 368.95 270.86 C 359.96 267.56 356.68 269.25 353.78 278.33 C 353.15 280.31 351.88 282.16 350.64 283.87 C 346.26 289.91 341.11 295.50 337.44 301.94 C 328.91 316.93 328.65 333.29 330.79 349.94 C 331.08 352.22 330.20 354.94 329.11 357.07 C 325.73 363.66 321.23 369.76 318.54 376.59 C 310.20 397.78 306.70 420.04 306.44 442.71 C 306.26 458.00 308.14 473.08 315.79 486.88 C 323.40 500.62 334.61 509.23 350.12 512.30 C 370.18 516.27 388.43 510.80 405.95 501.77 C 412.14 498.58 417.88 494.51 424.46 490.44 C 421.97 508.82 419.75 526.38 417.10 543.88 C 416.39 548.56 417.86 549.30 422.05 549.10 C 429.24 548.76 436.46 549.01 444.46 549.01 C 442.54 561.69 441.15 573.43 438.93 585.01 C 435.44 603.20 431.39 621.28 427.57 639.41 C 423.74 657.58 420.13 675.81 415.99 693.91 C 411.64 712.94 406.61 731.82 402.21 750.83 C 398.44 767.11 395.13 783.48 391.65 799.82 C 390.27 806.29 388.87 812.77 387.74 819.28 C 387.55 820.34 388.68 821.64 389.20 822.82 C 390.02 821.94 391.19 821.20 391.60 820.15 C 392.38 818.13 392.74 815.95 393.27 813.84 C 393.70 813.95 394.13 814.06 394.55 814.17 C 392.71 821.08 390.88 827.99 389.03 834.91 Z M 698.86 178.64 C 699.47 182.45 700.02 185.71 700.51 188.98 C 703.07 206.03 705.58 223.08 708.22 240.11 C 708.47 241.73 709.46 243.24 710.10 244.80 C 711.32 243.64 712.91 242.69 713.70 241.28 C 722.70 225.24 731.55 209.11 740.50 193.04 C 744.37 186.09 748.45 179.26 752.23 172.27 C 752.89 171.06 752.54 169.30 752.66 167.80 C 751.30 168.08 749.84 168.12 748.60 168.68 C 746.03 169.84 743.60 171.29 741.09 172.59 C 731.11 177.76 721.13 182.92 710.18 188.59 C 707.28 158.48 704.48 129.36 701.68 100.24 L 699.53 100.04 C 698.20 102.79 696.80 105.51 695.55 108.29 C 683.62 134.88 671.70 161.48 659.87 188.12 C 659.21 189.60 659.44 191.47 659.26 193.16 C 660.79 192.94 662.43 193.00 663.83 192.46 C 675.38 187.98 686.89 183.38 698.84 178.65 Z" fill="#ffffff" fill-rule="nonzero" group-id="1" node-id="71" stroke="none" target-height="1024" target-width="1024" target-x="0" target-y="0"></path><path d="M 389.06 834.86 C 390.90 827.95 392.73 821.04 394.57 814.13 C 394.14 814.02 393.71 813.91 393.29 813.80 C 392.76 815.91 392.40 818.10 391.62 820.11 C 391.21 821.15 390.05 821.90 389.22 822.78 C 388.70 821.59 387.57 820.30 387.76 819.24 C 388.90 812.72 390.29 806.25 391.67 799.78 C 395.15 783.44 398.47 767.06 402.23 750.79 C 406.63 731.77 411.66 712.90 416.01 693.87 C 420.14 675.77 423.76 657.54 427.59 639.37 C 431.41 621.24 435.46 603.16 438.95 584.97 C 441.17 573.39 442.57 561.65 444.48 548.97 C 436.48 548.97 429.26 548.72 422.07 549.06 C 417.88 549.26 416.41 548.52 417.12 543.84 C 419.77 526.34 421.99 508.78 424.48 490.40 C 417.90 494.46 412.16 498.53 405.97 501.73 C 388.46 510.76 370.20 516.23 350.14 512.26 C 334.63 509.19 323.42 500.59 315.81 486.84 C 308.16 473.04 306.28 457.96 306.46 442.67 C 306.72 420.01 310.22 397.74 318.56 376.55 C 321.25 369.72 325.75 363.62 329.13 357.03 C 330.22 354.90 331.11 352.19 330.81 349.90 C 328.67 333.25 328.93 316.89 337.46 301.90 C 341.12 295.46 346.28 289.88 350.66 283.83 C 351.90 282.12 353.16 280.27 353.80 278.29 C 356.70 269.21 359.99 267.52 368.97 270.82 C 369.59 271.05 370.24 271.19 370.84 271.36 C 382.31 259.77 386.20 260.29 390.42 273.87 C 403.24 268.69 414.42 260.80 414.93 256.46 C 408.29 255.62 401.58 255.11 395.01 253.84 C 387.84 252.46 381.58 249.08 376.79 243.33 C 369.58 234.69 370.61 221.97 380.22 214.54 C 385.90 210.14 392.88 207.41 399.30 203.98 C 400.40 203.39 401.64 203.05 403.33 202.39 C 398.62 201.50 394.45 201.09 390.52 199.89 C 383.40 197.72 379.64 192.73 379.20 185.76 C 378.84 180.19 382.89 174.15 389.11 171.41 C 397.45 167.73 406.02 168.74 414.59 170.51 C 416.32 170.87 418.04 171.32 419.79 171.74 C 421.50 150.42 437.18 137.06 458.27 135.68 C 478.96 134.32 497.51 148.26 501.78 173.08 C 515.12 154.26 533.04 149.63 554.09 156.27 C 572.06 161.94 582.15 175.77 585.27 197.77 C 593.45 195.22 601.62 194.61 610.03 196.89 C 624.21 200.74 633.72 211.87 633.59 226.47 C 633.51 235.09 628.90 242.26 623.03 248.34 C 619.51 251.99 615.43 255.11 610.88 259.09 C 612.77 260.18 614.53 261.35 616.43 262.26 C 623.28 265.54 630.58 268.08 636.96 272.09 C 646.45 278.04 647.50 286.67 640.66 295.46 C 631.77 306.89 619.48 313.55 606.36 318.52 C 588.16 325.43 568.95 328.21 549.74 330.75 C 548.79 330.88 547.81 330.77 546.09 330.77 C 547.16 336.25 548.15 341.37 549.23 346.89 C 565.90 347.78 580.86 354.25 595.05 361.96 C 607.84 368.91 620.10 377.09 631.75 385.85 C 656.89 404.74 679.06 426.91 699.51 450.73 C 706.39 458.74 713.00 467.09 716.42 477.51 C 720.98 491.44 719.29 504.67 713.24 517.64 C 703.62 538.27 689.45 555.57 672.68 570.61 C 661.84 580.33 649.91 588.86 638.36 597.77 C 636.49 599.22 634.01 599.87 631.35 601.11 C 627.66 608.06 631.80 614.79 633.87 621.58 C 639.42 639.84 645.35 657.98 650.99 676.21 C 660.14 705.80 669.20 735.42 678.15 765.07 C 678.59 766.54 677.15 768.52 677.43 770.10 C 678.00 773.21 679.10 776.22 680.11 779.23 C 680.75 781.14 682.28 782.98 682.24 784.83 C 682.18 788.24 682.82 790.55 685.34 793.35 C 687.99 796.29 688.86 800.96 690.17 804.98 C 697.26 826.86 705.20 848.53 710.88 870.77 C 713.81 882.23 718.63 892.85 721.83 904.10 C 722.26 905.60 723.03 907.00 723.11 907.20 C 727.50 903.46 731.84 899.71 736.23 896.04 C 737.23 895.21 738.36 894.13 739.53 894.00 C 741.91 893.73 745.22 893.06 746.61 894.29 C 749.52 896.88 746.86 899.71 745.18 902.12 C 744.45 903.17 743.46 904.04 742.65 904.92 C 751.07 906.23 759.64 906.53 767.46 909.09 C 775.18 911.61 782.26 916.25 789.39 920.36 C 791.21 921.41 792.28 923.89 793.45 925.86 C 795.70 929.63 794.50 932.37 790.40 933.46 C 774.52 937.66 758.61 941.71 742.71 945.80 C 740.80 946.29 738.86 946.69 736.95 947.94 C 742.34 947.94 747.74 948.12 753.13 947.91 C 774.86 947.05 796.58 946.05 818.31 945.15 C 821.27 945.03 824.27 945.04 827.21 945.35 C 828.24 945.46 829.16 946.65 830.13 947.34 C 829.07 948.06 828.02 949.37 826.93 949.40 C 814.66 949.71 802.38 949.63 790.11 950.03 C 776.90 950.46 763.70 951.51 750.49 951.86 C 738.92 952.16 727.34 951.83 715.76 951.86 C 693.61 951.90 671.45 951.92 649.30 952.08 C 620.25 952.30 591.21 952.80 562.16 952.90 C 542.29 952.97 522.42 952.70 502.56 952.30 C 474.97 951.75 447.39 950.68 419.81 950.31 C 399.23 950.03 378.65 950.59 358.07 950.61 C 344.84 950.62 331.60 950.13 318.37 950.20 C 294.42 950.33 270.48 950.72 246.53 950.97 C 244.84 950.99 243.15 950.71 241.46 950.57 C 241.40 950.07 241.34 949.57 241.28 949.07 C 242.49 948.71 243.68 948.08 244.91 948.03 C 263.11 947.22 281.30 946.35 299.51 945.83 C 304.76 945.68 308.19 944.51 311.40 939.57 C 321.55 923.97 335.91 914.64 355.06 913.84 C 356.32 913.79 357.56 913.42 359.21 913.12 C 357.45 911.38 355.61 910.22 354.77 908.56 C 353.78 906.60 352.66 903.77 353.38 902.08 C 354.68 899.03 357.84 899.48 360.21 901.18 C 364.24 904.07 368.19 907.12 371.87 910.43 C 373.52 911.92 374.44 914.22 375.70 916.16 C 376.36 915.73 377.01 915.29 377.67 914.86 C 379.74 906.08 381.84 897.30 383.81 888.50 C 383.97 887.76 383.43 886.27 382.86 886.06 C 376.84 883.74 377.24 878.75 377.94 873.94 C 379.04 866.41 380.67 858.96 381.86 851.44 C 382.36 848.32 383.60 847.29 387.25 849.01 C 387.93 844.09 388.57 839.37 389.22 834.66 L 389.07 834.83 Z M 507.70 612.51 C 508.96 611.95 510.83 611.73 511.39 610.77 C 513.77 606.65 517.14 602.45 517.63 598.01 C 518.81 587.46 518.92 576.75 518.75 566.11 C 518.64 559.15 517.27 552.21 516.44 545.06 C 527.53 543.60 539.51 541.97 551.51 540.44 C 568.61 538.26 585.71 536.04 602.84 534.09 C 610.27 533.25 619.43 525.41 619.99 517.78 C 620.41 512.06 619.74 506.22 619.13 500.47 C 618.88 498.18 618.03 495.50 616.52 493.86 C 600.68 476.79 587.87 457.63 576.79 437.25 C 574.39 432.84 572.22 428.30 569.95 423.82 C 570.55 423.42 571.15 423.02 571.76 422.62 C 573.10 424.28 574.77 425.77 575.74 427.63 C 589.73 454.50 606.82 479.11 628.13 500.74 C 630.66 503.31 632.22 503.85 634.81 500.72 C 638.40 496.37 642.49 492.42 646.57 488.51 C 647.41 487.70 649.15 487.82 650.48 487.52 C 650.09 488.78 650.08 490.41 649.25 491.24 C 629.10 511.33 614.37 535.46 598.25 558.67 C 618.42 567.30 635.04 582.19 632.76 590.83 C 630.92 588.72 629.35 587.20 628.11 585.45 C 621.58 576.25 613.86 568.46 603.29 563.93 C 597.62 561.50 596.30 561.94 592.95 567.83 C 593.55 568.29 594.12 568.90 594.82 569.24 C 607.51 575.49 618.66 583.71 628.03 594.39 C 628.97 595.46 631.66 595.84 633.16 595.36 C 635.79 594.51 638.34 593.03 640.54 591.32 C 649.73 584.17 659.17 577.28 667.80 569.49 C 685.17 553.80 700.44 536.33 710.32 514.73 C 718.60 496.63 717.00 479.11 705.01 463.67 C 694.43 450.06 682.48 437.42 670.40 425.09 C 652.46 406.78 632.96 390.25 611.33 376.27 C 593.44 364.71 574.85 355.05 553.64 351.39 C 552.46 351.19 550.74 352.52 549.68 353.56 C 546.87 356.30 544.71 359.92 541.52 362.03 C 529.57 369.95 516.26 373.04 502.03 370.99 C 491.45 369.47 482.28 365.29 477.04 354.72 C 474.75 355.28 472.45 355.84 470.05 356.43 C 485.33 387.69 533.13 394.29 558.57 355.25 C 558.95 355.44 559.33 355.64 559.71 355.83 C 546.39 380.93 533.08 406.02 519.56 431.49 C 526.92 435.72 533.51 440.11 535.88 448.56 C 538.27 457.10 536.67 464.61 530.64 471.02 C 520.13 482.20 505.49 482.20 494.53 471.11 C 489.98 466.50 487.81 460.88 487.98 454.40 C 488.28 443.36 494.57 436.47 503.76 432.42 C 491.93 408.30 480.32 384.78 468.89 361.18 C 467.43 358.17 465.94 357.04 462.82 358.64 C 452.36 364.02 441.46 368.69 431.48 374.84 C 414.37 385.40 400.72 400.09 386.72 414.35 C 382.53 418.62 382.19 422.87 382.54 427.95 C 382.68 429.92 382.74 431.95 382.41 433.87 C 382.25 434.78 381.09 435.52 380.38 436.34 C 379.88 436.18 379.37 436.01 378.87 435.85 C 378.21 419.69 377.54 403.53 376.87 387.27 C 365.38 390.12 361.80 389.94 359.04 386.36 C 362.28 386.11 365.41 386.07 368.47 385.58 C 377.45 384.14 377.76 383.55 374.92 373.16 C 368.03 381.46 359.66 379.17 351.54 376.21 C 343.40 373.24 335.42 369.70 333.00 359.93 C 325.75 365.59 325.08 369.00 330.43 374.50 C 333.06 377.20 336.44 379.17 339.47 381.48 C 340.73 382.44 341.97 383.44 343.22 384.42 L 342.23 385.63 C 334.91 383.43 328.84 379.47 324.74 371.48 C 323.57 374.24 322.68 376.12 321.96 378.07 C 314.81 397.34 311.24 417.36 310.37 437.80 C 309.76 452.26 310.89 466.64 316.86 480.16 C 326.54 502.09 346.03 511.39 368.39 509.23 C 388.94 507.25 406.60 498.47 422.43 485.67 C 423.99 484.41 425.50 482.40 425.90 480.50 C 426.96 475.48 427.39 470.32 428.08 465.22 C 430.82 445.08 433.54 424.93 436.37 404.80 C 436.60 403.15 437.62 401.60 438.27 400.01 C 438.88 400.15 439.49 400.30 440.11 400.44 C 440.11 402.29 440.31 404.16 440.08 405.98 C 438.82 415.80 437.44 425.60 436.11 435.41 C 433.66 453.60 431.27 471.79 428.75 489.97 C 426.31 507.53 423.78 525.07 421.20 542.60 C 420.71 545.95 422.69 546.16 425.03 546.17 C 444.96 546.22 464.90 546.26 484.83 546.29 C 494.54 546.30 504.24 546.29 514.15 546.29 C 514.49 553.23 515.02 560.49 515.18 567.77 C 515.50 582.96 517.61 598.49 507.74 612.48 Z M 700.94 946.96 C 700.94 945.70 701.08 945.15 700.92 944.72 C 693.70 925.62 686.41 906.56 679.26 887.43 C 678.20 884.59 676.38 884.89 674.12 885.11 C 658.12 886.66 642.10 888.07 626.11 889.65 C 615.98 890.65 610.93 887.70 607.00 878.35 C 603.15 869.19 599.02 860.16 595.30 850.95 C 582.92 820.34 569.77 790.00 558.62 758.94 C 548.23 729.99 540.04 700.26 530.87 670.88 C 529.83 667.56 528.69 664.27 527.60 660.96 C 525.91 662.63 525.36 664.13 524.96 665.68 C 522.18 676.59 519.97 687.68 516.57 698.39 C 509.76 719.88 502.72 741.32 495.01 762.50 C 486.96 784.61 478.39 806.54 469.34 828.26 C 461.71 846.57 452.98 864.41 444.92 882.54 C 441.04 891.26 437.24 899.73 424.96 896.84 C 421.90 913.43 418.93 929.52 415.77 946.66 C 510.73 950.01 605.72 949.42 700.95 946.95 Z M 480.62 334.54 C 480.62 338.96 481.00 343.14 480.54 347.23 C 479.61 355.52 483.96 360.40 490.60 363.90 C 505.56 371.78 531.34 368.07 543.45 356.17 C 544.92 354.73 546.22 352.13 546.06 350.19 C 545.51 343.59 544.19 337.06 543.32 330.48 C 541.40 315.93 539.57 301.36 537.62 286.15 C 547.15 286.14 555.54 285.20 562.36 279.33 C 569.50 273.17 572.41 265.26 570.78 256.07 C 568.98 245.97 557.54 237.83 548.51 239.40 C 549.29 245.29 550.30 251.14 550.77 257.03 C 551.09 261.17 549.93 265.61 545.86 267.09 C 543.26 268.03 539.11 267.39 536.82 265.79 C 534.22 263.97 532.21 260.51 531.22 257.37 C 529.42 251.65 528.56 245.63 527.31 239.76 C 517.11 247.22 510.12 244.38 507.92 231.66 C 507.39 228.61 507.55 225.45 507.39 222.33 C 491.95 225.88 485.71 220.71 486.63 204.80 C 485.58 205.71 484.72 206.44 483.87 207.19 C 471.17 218.44 457.40 224.31 440.57 216.27 C 439.54 215.78 436.92 216.93 436.01 218.09 C 421.32 236.66 415.49 258.03 417.03 281.40 C 418.55 304.58 436.16 323.59 458.65 328.23 C 471.68 330.92 484.35 330.47 497.15 327.54 C 498.81 327.16 500.62 327.49 502.37 327.49 C 502.43 328.00 502.48 328.50 502.54 329.01 C 496.04 333.17 488.24 332.79 480.64 334.57 Z M 382.13 411.70 C 396.34 399.18 410.14 385.85 425.17 374.09 C 440.59 362.03 458.47 354.29 477.93 350.35 C 478.19 344.86 478.43 339.78 478.67 334.69 C 477.85 334.46 477.39 334.21 476.93 334.21 C 459.21 334.12 443.08 329.69 429.74 317.28 C 428.94 316.53 426.58 316.59 425.44 317.20 C 415.32 322.61 405.24 328.12 395.32 333.89 C 393.82 334.77 392.41 337.07 392.27 338.81 C 391.55 347.72 388.49 355.74 383.22 362.77 C 380.62 366.24 379.38 369.13 379.86 373.77 C 381.19 386.59 381.47 399.52 382.13 411.71 Z M 387.82 337.76 C 380.42 341.55 374.16 344.95 367.73 348.01 C 360.41 351.48 352.32 350.21 350.26 344.15 C 346.44 332.90 343.21 321.30 341.28 309.60 C 339.99 301.79 348.58 296.76 356.06 300.01 C 358.78 301.19 361.22 303.00 363.82 304.47 C 365.26 305.28 366.86 306.74 368.21 306.55 C 370.26 306.27 372.16 304.83 374.13 303.88 C 373.31 302.43 372.83 300.55 371.61 299.64 C 369.12 297.76 366.31 296.26 363.50 294.85 C 354.64 290.39 345.39 294.03 340.96 302.97 C 332.78 319.46 331.93 336.76 336.11 354.41 C 337.23 359.13 337.48 364.39 342.17 367.65 C 349.48 372.73 357.34 375.68 365.01 374.96 C 367.23 372.10 368.50 369.89 370.29 368.25 C 379.10 360.17 385.11 350.55 387.82 337.77 Z M 627.83 600.15 C 621.03 590.77 612.40 583.95 603.04 577.78 C 599.50 575.45 597.92 576.45 595.73 579.01 C 589.46 586.31 583.07 593.51 576.73 600.75 C 574.36 603.46 572.00 606.19 569.14 609.49 C 585.09 617.35 601.47 621.10 618.35 625.08 C 621.62 616.49 624.78 608.16 627.83 600.14 Z M 517.69 425.85 C 526.21 410.12 535.05 393.77 544.50 376.32 C 522.30 389.42 501.17 390.58 480.36 375.80 C 480.13 376.86 480.01 377.06 480.07 377.17 C 488.60 393.80 497.14 410.42 505.44 426.56 C 509.56 426.32 513.27 426.10 517.68 425.84 Z M 533.56 452.43 C 533.19 440.20 523.87 435.23 512.32 435.09 C 500.80 434.95 491.55 444.56 491.80 455.15 C 492.09 467.08 501.10 475.58 513.09 475.24 C 524.02 474.93 533.90 463.92 533.55 452.43 Z M 381.23 915.91 C 393.16 917.27 404.76 918.59 416.82 919.97 C 418.45 912.41 420.05 905.03 421.77 897.04 C 409.93 893.82 398.41 890.68 386.84 887.53 C 384.87 897.47 383.08 906.53 381.22 915.91 Z M 681.61 884.36 C 686.07 895.68 690.41 906.71 694.74 917.70 C 703.46 914.94 711.74 912.31 720.03 909.69 C 716.26 899.39 712.70 889.66 709.38 880.56 C 699.77 881.88 690.96 883.08 681.62 884.36 Z M 466.11 555.85 C 465.71 558.24 465.46 560.01 465.12 561.77 C 464.07 567.31 463.50 573.01 461.81 578.35 C 459.03 587.13 453.60 590.71 444.80 590.33 C 445.06 588.54 445.28 586.78 445.57 585.04 C 447.31 574.72 449.16 564.42 450.73 554.08 C 451.03 552.12 450.23 550.00 449.93 547.95 C 449.39 548.03 448.85 548.11 448.31 548.20 C 435.27 636.81 411.61 723.24 393.66 810.85 C 394.10 810.94 394.54 811.03 394.97 811.12 C 411.31 738.61 427.65 666.10 444.01 593.48 C 449.61 594.75 454.22 593.31 458.23 589.93 C 464.67 584.51 470.13 565.15 467.55 557.04 C 467.47 556.78 467.07 556.63 466.09 555.85 Z M 534.02 660.69 C 533.33 660.93 532.64 661.16 531.95 661.40 C 532.03 662.52 531.92 663.68 532.21 664.75 C 534.33 672.59 536.33 680.47 538.72 688.23 C 552.73 733.73 569.51 778.22 587.62 822.22 C 594.99 840.14 602.62 857.96 610.26 875.77 C 611.66 879.03 613.73 882.01 615.49 885.12 C 587.30 810.52 554.59 737.88 534.01 660.70 Z M 435.99 888.34 C 452.71 871.06 526.72 673.01 521.11 659.54 C 500.08 739.09 468.71 813.96 435.99 888.34 Z M 502.98 546.97 C 502.34 547.07 501.71 547.16 501.07 547.26 C 501.26 578.52 498.62 609.77 501.39 641.10 C 502.72 639.16 503.41 637.15 503.49 635.12 C 503.70 629.47 503.67 623.81 503.71 618.15 C 503.85 596.20 504.01 574.25 504.06 552.31 C 504.06 550.53 503.36 548.75 502.98 546.96 Z M 577.64 631.64 C 583.20 639.34 626.38 649.99 638.05 646.60 C 637.73 646.01 637.49 645.03 637.13 644.98 C 617.35 642.42 597.93 638.44 579.33 630.98 C 578.94 630.82 578.25 631.38 577.63 631.63 Z M 351.48 290.14 C 360.18 288.66 367.44 291.15 373.61 296.91 C 375.22 298.41 377.14 300.50 378.82 297.76 C 379.73 296.28 379.29 293.60 378.70 291.70 C 378.26 290.26 376.71 289.09 375.48 287.99 C 367.97 281.24 356.85 282.07 351.48 290.14 Z M 460.31 199.89 C 456.77 201.32 454.11 202.98 451.28 203.37 C 448.34 203.78 444.75 203.85 442.28 202.52 C 437.19 199.76 435.39 192.18 437.77 187.14 C 440.54 181.26 447.06 177.84 452.90 179.25 C 454.22 179.57 455.52 180.01 457.27 180.52 C 455.14 176.78 451.50 175.64 446.89 176.81 C 439.68 178.63 434.10 185.02 434.08 191.48 C 434.06 197.94 438.69 204.87 443.92 206.19 C 449.86 207.69 457.42 205.06 460.32 199.88 Z M 354.10 303.03 C 352.49 310.51 360.67 336.03 365.30 338.79 C 361.79 326.33 359.46 314.21 354.10 303.03 Z M 519.71 610.28 C 516.79 613.63 516.37 637.10 519.71 640.45 L 519.71 610.28 Z M 377.28 283.77 C 376.98 282.78 376.98 280.59 375.99 279.95 C 372.84 277.92 369.43 276.12 365.90 274.88 C 361.15 273.21 359.20 275.10 359.42 279.51 C 365.12 280.87 370.57 282.17 377.28 283.77 Z M 580.79 551.57 C 579.91 559.60 580.71 567.18 586.36 573.27 C 588.34 575.41 590.89 577.81 594.77 574.23 C 582.29 571.07 585.50 559.14 580.80 551.57 Z M 375.13 272.94 C 375.34 273.60 375.55 274.26 375.76 274.92 C 378.42 276.53 380.01 281.63 384.47 277.34 C 386.48 275.41 385.74 268.87 383.28 268.84 C 380.58 268.81 377.85 271.46 375.13 272.95 Z M 392.57 218.40 C 387.92 219.09 385.27 222.00 384.13 226.17 C 382.91 230.63 385.64 236.06 390.12 238.88 C 393.89 241.26 395.05 241.36 397.72 239.46 C 391.99 238.43 387.67 235.66 386.24 229.82 C 384.85 224.18 389.20 221.59 392.58 218.40 Z M 601.19 547.51 C 603.58 543.90 605.81 540.53 608.57 536.38 C 603.98 537.10 600.21 537.68 596.20 538.31 C 597.88 541.40 599.33 544.07 601.20 547.51 Z M 563.65 666.26 C 562.93 666.53 562.20 666.80 561.48 667.07 C 564.19 674.87 566.90 682.66 569.60 690.46 L 571.98 689.62 C 569.20 681.84 566.42 674.05 563.64 666.27 Z M 662.17 797.41 C 661.37 797.69 660.56 797.96 659.76 798.24 L 667.40 820.04 C 668.15 819.78 668.89 819.53 669.64 819.27 C 667.15 811.98 664.67 804.69 662.18 797.41 Z M 561.39 164.34 C 554.33 157.25 537.16 154.05 528.49 158.39 C 539.99 157.52 551.20 158.17 561.39 164.34 Z M 430.41 727.32 C 430.71 727.34 431.02 727.35 431.32 727.37 C 432.88 719.60 434.47 711.84 435.91 704.05 C 436.03 703.41 435.09 702.58 434.64 701.83 C 434.06 702.62 433.10 703.36 432.96 704.22 C 431.90 710.69 430.97 717.18 430.10 723.68 C 429.94 724.86 430.29 726.10 430.40 727.32 Z M 603.83 214.33 C 614.82 222.39 610.22 230.98 604.95 239.69 C 610.30 235.11 613.12 229.72 612.03 222.82 C 611.32 218.35 608.17 215.95 603.83 214.34 Z M 471.82 160.01 C 468.33 152.25 458.38 149.90 452.63 155.37 C 459.76 153.99 466.42 154.37 471.82 160.01 Z M 660.81 726.48 L 662.20 725.96 C 659.07 715.95 655.95 705.94 652.82 695.94 L 651.41 696.38 C 654.54 706.42 657.67 716.45 660.81 726.49 Z M 638.41 870.44 C 639.21 870.16 640.01 869.89 640.80 869.61 C 638.50 863.73 636.19 857.84 633.89 851.96 C 633.31 852.16 632.73 852.36 632.15 852.55 C 633.09 858.89 636.02 864.57 638.41 870.43 Z M 450.90 798.91 C 446.13 802.35 443.47 811.72 445.74 815.16 C 447.54 809.50 449.22 804.20 450.90 798.91 Z M 533.50 185.38 C 538.54 183.07 544.02 180.56 549.17 178.20 C 543.33 176.05 534.46 180.33 533.50 185.38 Z M 357.35 903.19 C 356.82 903.95 356.29 904.71 355.76 905.48 C 359.55 908.16 363.35 910.83 367.14 913.51 C 367.57 912.89 367.99 912.28 368.42 911.66 C 364.73 908.84 361.04 906.01 357.35 903.19 Z M 624.34 513.82 C 628.17 509.38 627.78 505.43 623.18 501.96 C 623.58 506.01 623.92 509.54 624.34 513.82 Z M 743.52 897.87 C 743.11 897.36 742.70 896.85 742.29 896.33 C 738.84 899.24 735.40 902.14 731.95 905.05 L 732.77 906.10 C 737.13 904.36 741.33 902.41 743.52 897.86 Z M 613.53 688.47 C 612.76 688.76 611.99 689.06 611.21 689.35 C 612.87 693.65 614.53 697.95 616.20 702.25 C 616.88 701.99 617.56 701.73 618.23 701.48 C 616.66 697.14 615.09 692.81 613.53 688.47 Z M 617.48 773.99 C 618.16 773.77 618.83 773.56 619.51 773.34 C 617.91 768.83 616.32 764.32 614.72 759.80 C 614.03 760.05 613.33 760.30 612.64 760.55 C 614.25 765.03 615.87 769.50 617.48 773.98 Z M 620.02 278.70 C 623.02 284.89 620.32 289.16 615.21 292.68 C 623.18 289.95 625.35 283.17 620.02 278.70 Z M 653.62 811.07 C 650.80 813.59 652.18 819.24 656.68 823.92 C 655.53 819.11 654.64 815.35 653.62 811.07 Z M 438.56 740.40 C 439.04 740.50 439.52 740.60 439.99 740.70 C 441.30 737.16 444.35 733.95 441.10 729.53 C 440.25 733.15 439.40 736.78 438.56 740.40 Z M 560.22 573.88 C 560.94 573.80 561.66 573.72 562.37 573.64 L 560.98 563.33 C 560.28 563.42 559.57 563.50 558.87 563.59 C 559.32 567.02 559.76 570.45 560.21 573.88 Z" fill="#000000" fill-rule="nonzero" group-id="1" node-id="73" stroke="none" target-height="818.64996" target-width="588.85" target-x="241.28" target-y="134.32"></path><path d="M 698.86 178.64 C 686.91 183.37 675.40 187.96 663.85 192.45 C 662.45 192.99 660.81 192.93 659.28 193.15 C 659.46 191.46 659.23 189.59 659.89 188.11 C 671.72 161.47 683.64 134.88 695.57 108.28 C 696.82 105.50 698.22 102.78 699.55 100.03 L 701.70 100.23 C 704.50 129.35 707.30 158.47 710.20 188.58 C 721.14 182.92 731.13 177.75 741.11 172.58 C 743.62 171.28 746.05 169.83 748.62 168.67 C 749.85 168.11 751.32 168.07 752.68 167.79 C 752.56 169.30 752.91 171.05 752.25 172.26 C 748.47 179.25 744.39 186.08 740.52 193.03 C 731.57 209.10 722.72 225.23 713.72 241.27 C 712.93 242.67 711.34 243.63 710.12 244.79 C 709.48 243.23 708.49 241.72 708.24 240.10 C 705.60 223.07 703.09 206.01 700.53 188.97 C 700.04 185.70 699.49 182.45 698.88 178.63 Z M 707.01 194.56 C 704.17 166.31 701.49 139.61 698.80 112.92 C 698.52 112.86 698.24 112.79 697.96 112.73 C 686.77 137.62 675.59 162.50 664.02 188.24 C 677.22 183.16 689.33 178.51 702.18 173.57 C 705.34 194.80 708.34 215.03 711.54 236.56 C 723.20 215.49 734.21 195.60 745.60 175.01 C 732.47 181.66 720.38 187.79 707.00 194.57 Z" fill="#000000" fill-rule="nonzero" group-id="1" node-id="75" stroke="none" target-height="144.76" target-width="93.67999" target-x="659.23" target-y="100.03"></path><path d="M 389.21 834.69 C 388.82 835.17 388.36 835.61 388.05 836.14 C 387.31 837.41 386.64 838.72 385.94 840.02 C 385.37 839.58 384.26 839.02 384.33 838.71 C 384.79 836.58 385.49 834.50 386.12 832.41 C 387.10 833.23 388.08 834.05 389.06 834.86 C 389.06 834.86 389.21 834.69 389.21 834.69 Z" fill="#000000" fill-rule="nonzero" group-id="1" node-id="77" stroke="none" target-height="7.6100464" target-width="4.9499817" target-x="384.26" target-y="832.41"></path><path d="M 507.70 612.51 C 517.57 598.52 515.46 582.98 515.14 567.80 C 514.99 560.53 514.46 553.26 514.11 546.32 C 504.21 546.32 494.50 546.33 484.79 546.32 C 464.86 546.29 444.92 546.25 424.99 546.20 C 422.65 546.20 420.67 545.98 421.16 542.63 C 423.75 525.10 426.28 507.55 428.71 490.00 C 431.23 471.82 433.62 453.63 436.07 435.44 C 437.39 425.63 438.77 415.83 440.04 406.01 C 440.27 404.19 440.07 402.32 440.07 400.47 C 439.46 400.33 438.85 400.18 438.23 400.04 C 437.58 401.63 436.56 403.18 436.33 404.83 C 433.50 424.96 430.78 445.11 428.04 465.25 C 427.35 470.35 426.92 475.51 425.86 480.53 C 425.46 482.43 423.95 484.43 422.39 485.70 C 406.55 498.50 388.89 507.28 368.35 509.26 C 345.99 511.41 326.50 502.12 316.82 480.19 C 310.85 466.67 309.72 452.29 310.33 437.83 C 311.20 417.39 314.76 397.37 321.92 378.10 C 322.64 376.15 323.53 374.27 324.70 371.51 C 328.80 379.50 334.87 383.46 342.19 385.66 L 343.18 384.45 C 341.93 383.47 340.69 382.47 339.43 381.51 C 336.40 379.20 333.01 377.23 330.39 374.53 C 325.04 369.03 325.72 365.62 332.96 359.96 C 335.38 369.73 343.36 373.27 351.50 376.24 C 359.62 379.20 367.99 381.49 374.88 373.19 C 377.73 383.58 377.42 384.17 368.43 385.61 C 365.37 386.10 362.24 386.14 359.00 386.39 C 361.76 389.97 365.33 390.15 376.83 387.30 C 377.50 403.56 378.16 419.72 378.83 435.88 C 379.33 436.04 379.84 436.21 380.34 436.37 C 381.05 435.55 382.21 434.81 382.37 433.90 C 382.70 431.97 382.64 429.95 382.50 427.98 C 382.15 422.90 382.49 418.65 386.68 414.38 C 400.68 400.12 414.33 385.43 431.44 374.87 C 441.42 368.71 452.32 364.04 462.78 358.67 C 465.90 357.07 467.39 358.20 468.85 361.21 C 480.29 384.81 491.89 408.33 503.72 432.45 C 494.53 436.50 488.24 443.39 487.94 454.43 C 487.76 460.91 489.93 466.53 494.49 471.14 C 505.44 482.23 520.08 482.23 530.60 471.05 C 536.63 464.64 538.23 457.13 535.84 448.59 C 533.48 440.14 526.88 435.75 519.52 431.52 C 533.04 406.05 546.35 380.95 559.67 355.86 C 559.29 355.67 558.91 355.47 558.53 355.28 C 533.10 394.32 485.30 387.73 470.01 356.46 C 472.41 355.87 474.71 355.31 477.00 354.75 C 482.24 365.32 491.41 369.49 501.99 371.02 C 516.21 373.07 529.53 369.99 541.48 362.06 C 544.67 359.95 546.83 356.33 549.64 353.59 C 550.70 352.55 552.42 351.22 553.60 351.42 C 574.81 355.08 593.40 364.73 611.29 376.30 C 632.92 390.28 652.41 406.81 670.36 425.12 C 682.45 437.45 694.40 450.09 704.97 463.70 C 716.96 479.14 718.56 496.66 710.28 514.76 C 700.40 536.36 685.13 553.83 667.76 569.52 C 659.14 577.31 649.69 584.21 640.50 591.35 C 638.30 593.06 635.75 594.54 633.12 595.39 C 631.62 595.87 628.92 595.49 627.99 594.42 C 618.62 583.74 607.47 575.52 594.78 569.27 C 594.08 568.93 593.51 568.32 592.91 567.86 C 596.25 561.97 597.57 561.53 603.25 563.96 C 613.82 568.49 621.54 576.29 628.07 585.48 C 629.31 587.23 630.88 588.75 632.72 590.86 C 635.00 582.21 618.37 567.33 598.21 558.70 C 614.32 535.50 629.06 511.36 649.21 491.27 C 650.03 490.45 650.05 488.81 650.44 487.55 C 649.11 487.86 647.38 487.73 646.53 488.54 C 642.45 492.45 638.36 496.40 634.77 500.75 C 632.18 503.88 630.62 503.34 628.09 500.77 C 606.78 479.14 589.69 454.53 575.70 427.66 C 574.73 425.80 573.06 424.31 571.72 422.65 C 571.12 423.05 570.52 423.45 569.91 423.85 C 572.18 428.33 574.35 432.87 576.75 437.28 C 587.83 457.66 600.64 476.82 616.48 493.89 C 618.00 495.52 618.85 498.20 619.09 500.50 C 619.71 506.24 620.38 512.08 619.95 517.81 C 619.39 525.44 610.22 533.27 602.80 534.12 C 585.67 536.07 568.57 538.29 551.47 540.47 C 539.47 542.00 527.49 543.62 516.40 545.09 C 517.23 552.24 518.60 559.18 518.71 566.14 C 518.88 576.77 518.77 587.49 517.59 598.04 C 517.09 602.49 513.73 606.68 511.35 610.80 C 510.79 611.77 508.93 611.98 507.66 612.54 Z M 683.56 486.64 C 683.46 485.82 683.36 485.00 683.26 484.18 C 677.40 484.95 671.53 485.72 665.67 486.49 C 665.77 487.27 665.87 488.04 665.97 488.82 C 671.83 488.10 677.70 487.37 683.56 486.65 Z M 372.17 454.35 C 372.62 454.50 373.06 454.64 373.51 454.79 C 377.61 450.70 379.05 445.83 376.42 442.00 C 374.87 446.52 373.52 450.43 372.17 454.35 Z" fill="#ffffff" fill-rule="nonzero" group-id="1" node-id="79" stroke="none" target-height="261.31998" target-width="408.84" target-x="309.72" target-y="351.22"></path><path d="M 700.94 946.96 C 605.71 949.43 510.72 950.02 415.76 946.67 C 418.92 929.53 421.89 913.44 424.95 896.85 C 437.24 899.73 441.04 891.27 444.91 882.55 C 452.97 864.42 461.70 846.57 469.33 828.27 C 478.38 806.55 486.95 784.62 495.00 762.51 C 502.71 741.33 509.75 719.89 516.56 698.40 C 519.96 687.69 522.17 676.60 524.95 665.69 C 525.34 664.15 525.90 662.64 527.59 660.97 C 528.68 664.27 529.83 667.56 530.86 670.89 C 540.03 700.27 548.22 730.01 558.61 758.95 C 569.75 790.01 582.90 820.35 595.29 850.96 C 599.01 860.16 603.15 869.20 606.99 878.36 C 610.92 887.72 615.97 890.66 626.10 889.66 C 642.10 888.08 658.11 886.67 674.11 885.12 C 676.37 884.90 678.19 884.60 679.25 887.44 C 686.40 906.56 693.69 925.63 700.91 944.73 C 701.07 945.16 700.93 945.70 700.93 946.97 Z" fill="#ffffff" fill-rule="nonzero" group-id="1" node-id="81" stroke="none" target-height="289.05005" target-width="285.31" target-x="415.76" target-y="660.97"></path><path d="M 480.62 334.54 C 488.22 332.76 496.02 333.15 502.52 328.98 C 502.46 328.47 502.41 327.97 502.35 327.46 C 500.61 327.46 498.79 327.13 497.13 327.51 C 484.33 330.45 471.66 330.89 458.63 328.20 C 436.14 323.56 418.54 304.55 417.01 281.37 C 415.47 258.00 421.30 236.62 435.99 218.06 C 436.90 216.91 439.51 215.75 440.55 216.24 C 457.38 224.28 471.15 218.42 483.85 207.16 C 484.69 206.41 485.56 205.68 486.61 204.77 C 485.69 220.68 491.93 225.85 507.37 222.30 C 507.53 225.42 507.37 228.58 507.90 231.63 C 510.11 244.35 517.10 247.20 527.29 239.73 C 528.54 245.60 529.40 251.62 531.20 257.34 C 532.19 260.49 534.20 263.94 536.80 265.76 C 539.09 267.36 543.24 268.01 545.84 267.06 C 549.91 265.58 551.07 261.14 550.75 257.00 C 550.29 251.11 549.27 245.26 548.49 239.37 C 557.51 237.80 568.96 245.95 570.76 256.04 C 572.39 265.22 569.49 273.14 562.34 279.30 C 555.52 285.18 547.13 286.11 537.60 286.12 C 539.55 301.33 541.38 315.89 543.30 330.45 C 544.17 337.03 545.49 343.56 546.04 350.16 C 546.20 352.10 544.90 354.70 543.43 356.14 C 531.32 368.04 505.54 371.74 490.58 363.87 C 483.94 360.37 479.59 355.49 480.52 347.20 C 480.98 343.11 480.60 338.93 480.60 334.51 Z M 459.02 235.34 C 458.61 235.19 458.21 235.05 457.80 234.90 C 457.26 235.61 456.48 236.24 456.21 237.04 C 454.07 243.26 452.12 249.54 449.92 255.73 C 448.43 259.94 446.65 264.04 445.01 268.20 C 443.88 271.08 444.82 273.07 447.73 274.02 C 451.57 275.28 463.57 270.10 466.63 264.88 C 460.43 266.53 455.27 267.90 449.71 269.38 C 453.08 257.70 459.48 247.39 459.03 235.34 Z M 464.43 221.09 C 464.12 221.66 463.81 222.22 463.51 222.79 C 464.75 223.88 465.85 225.20 467.25 226.04 C 475.32 230.89 483.43 235.67 491.60 240.33 C 492.65 240.93 494.15 240.71 495.45 240.88 C 494.94 239.62 494.79 237.83 493.85 237.18 C 487.09 232.47 480.29 227.77 473.22 223.54 C 470.71 222.04 467.39 221.87 464.45 221.10 Z M 425.35 243.10 C 425.67 243.66 426.00 244.23 426.32 244.79 C 436.05 238.76 445.79 232.74 455.52 226.71 C 447.36 224.81 429.24 235.57 425.35 243.09 Z M 446.56 290.89 C 454.09 293.37 472.45 282.93 475.08 275.42 C 465.77 280.47 456.38 285.56 446.56 290.89 Z M 481.30 247.98 C 479.34 246.06 478.12 244.86 476.90 243.66 C 475.64 245.48 473.82 247.17 473.37 249.17 C 473.14 250.19 475.36 251.77 476.47 253.09 C 477.87 251.61 479.27 250.13 481.30 247.98 Z M 443.54 250.40 C 441.61 248.53 440.38 247.33 439.15 246.14 C 438.11 247.82 436.50 249.41 436.23 251.21 C 436.05 252.38 437.82 253.85 438.72 255.18 C 440.08 253.83 441.44 252.48 443.53 250.41 Z M 561.63 264.57 C 561.63 264.57 561.54 264.52 561.49 264.50 C 557.75 267.94 554.01 271.39 550.27 274.83 C 550.54 275.08 550.82 275.33 551.09 275.58 L 561.62 264.57 Z" fill="#ffffff" fill-rule="nonzero" group-id="1" node-id="83" stroke="none" target-height="166.96999" target-width="156.92001" target-x="415.47" target-y="204.77"></path><path d="M 382.13 411.70 C 381.47 399.51 381.18 386.58 379.86 373.76 C 379.38 369.12 380.62 366.23 383.22 362.76 C 388.48 355.74 391.55 347.71 392.27 338.80 C 392.41 337.05 393.82 334.75 395.32 333.88 C 405.24 328.11 415.31 322.60 425.44 317.19 C 426.58 316.58 428.93 316.53 429.74 317.27 C 443.08 329.68 459.21 334.11 476.93 334.20 C 477.39 334.20 477.85 334.45 478.67 334.68 C 478.43 339.77 478.19 344.85 477.93 350.34 C 458.47 354.28 440.59 362.02 425.17 374.08 C 410.14 385.84 396.34 399.17 382.13 411.69 Z" fill="#ffffff" fill-rule="nonzero" group-id="1" node-id="85" stroke="none" target-height="95.17001" target-width="99.29001" target-x="379.38" target-y="316.53"></path><path d="M 387.82 337.76 C 385.11 350.54 379.11 360.16 370.29 368.24 C 368.50 369.88 367.23 372.09 365.01 374.95 C 357.33 375.67 349.48 372.71 342.17 367.64 C 337.48 364.38 337.23 359.13 336.11 354.40 C 331.93 336.75 332.79 319.45 340.96 302.96 C 345.39 294.02 354.64 290.38 363.50 294.84 C 366.30 296.25 369.11 297.75 371.61 299.63 C 372.82 300.55 373.31 302.43 374.13 303.87 C 372.17 304.82 370.27 306.26 368.21 306.54 C 366.86 306.72 365.26 305.27 363.82 304.46 C 361.22 302.99 358.78 301.18 356.06 300.00 C 348.58 296.75 339.98 301.78 341.28 309.59 C 343.22 321.30 346.45 332.89 350.26 344.14 C 352.32 350.20 360.41 351.47 367.73 348.00 C 374.16 344.95 380.42 341.54 387.82 337.75 Z" fill="#ffffff" fill-rule="nonzero" group-id="1" node-id="87" stroke="none" target-height="85.29001" target-width="55.890015" target-x="331.93" target-y="290.38"></path><path d="M 627.83 600.15 C 624.78 608.17 621.62 616.49 618.35 625.09 C 601.46 621.11 585.08 617.36 569.14 609.50 C 572.01 606.20 574.36 603.47 576.73 600.76 C 583.07 593.52 589.46 586.32 595.73 579.02 C 597.92 576.47 599.50 575.46 603.04 577.79 C 612.39 583.96 621.02 590.79 627.83 600.16 Z" fill="#ffffff" fill-rule="nonzero" group-id="1" node-id="89" stroke="none" target-height="49.630005" target-width="58.690002" target-x="569.14" target-y="575.46"></path><path d="M 517.69 425.85 C 513.28 426.11 509.56 426.32 505.45 426.57 C 497.15 410.42 488.61 393.80 480.08 377.18 C 480.02 377.07 480.14 376.87 480.37 375.81 C 501.18 390.59 522.31 389.43 544.51 376.33 C 535.06 393.78 526.21 410.13 517.70 425.86 Z" fill="#ffffff" fill-rule="nonzero" group-id="1" node-id="91" stroke="none" target-height="50.76001" target-width="64.49002" target-x="480.02" target-y="375.81"></path><path d="M 533.56 452.43 C 533.91 463.92 524.03 474.94 513.10 475.24 C 501.10 475.58 492.10 467.08 491.81 455.15 C 491.55 444.56 500.81 434.95 512.33 435.09 C 523.88 435.23 533.20 440.19 533.57 452.43 Z M 500.75 447.34 C 500.37 448.18 500.00 449.02 499.62 449.85 C 504.21 452.08 508.99 456.40 513.35 456.01 C 518.49 455.55 523.25 451.01 528.18 448.24 L 527.26 446.50 C 522.20 448.72 517.13 450.95 512.26 453.09 C 508.45 451.19 504.60 449.27 500.75 447.35 Z" fill="#ffffff" fill-rule="nonzero" group-id="1" node-id="93" stroke="none" target-height="40.629974" target-width="42.359985" target-x="491.55" target-y="434.95"></path><path d="M 381.23 915.91 C 383.09 906.54 384.88 897.47 386.85 887.53 C 398.42 890.68 409.94 893.81 421.78 897.04 C 420.06 905.03 418.46 912.41 416.83 919.97 C 404.77 918.59 393.17 917.27 381.24 915.91 Z" fill="#ffffff" fill-rule="nonzero" group-id="1" node-id="95" stroke="none" target-height="32.43994" target-width="40.549988" target-x="381.23" target-y="887.53"></path><path d="M 681.61 884.36 C 690.95 883.08 699.76 881.88 709.37 880.56 C 712.70 889.65 716.26 899.39 720.02 909.69 C 711.73 912.32 703.46 914.94 694.73 917.70 C 690.40 906.71 686.06 895.69 681.60 884.36 Z" fill="#ffffff" fill-rule="nonzero" group-id="1" node-id="97" stroke="none" target-height="37.140015" target-width="38.420044" target-x="681.6" target-y="880.56"></path><path d="M 466.11 555.85 C 467.09 556.63 467.49 556.78 467.57 557.04 C 470.14 565.14 464.69 584.50 458.25 589.93 C 454.24 593.31 449.63 594.75 444.03 593.48 C 427.67 666.10 411.33 738.61 394.99 811.12 C 394.55 811.03 394.11 810.94 393.68 810.85 C 411.63 723.25 435.29 636.81 448.33 548.20 C 448.87 548.12 449.41 548.04 449.95 547.95 C 450.24 550.00 451.04 552.12 450.75 554.08 C 449.18 564.42 447.33 574.73 445.59 585.04 C 445.30 586.78 445.08 588.54 444.82 590.33 C 453.62 590.71 459.05 587.12 461.83 578.35 C 463.52 573.01 464.09 567.31 465.14 561.77 C 465.47 560.02 465.73 558.25 466.13 555.85 Z" fill="#ffffff" fill-rule="nonzero" group-id="1" node-id="99" stroke="none" target-height="263.16998" target-width="76.46002" target-x="393.68" target-y="547.95"></path><path d="M 534.02 660.69 C 554.60 737.88 587.32 810.51 615.50 885.11 C 613.74 882.00 611.67 879.02 610.27 875.76 C 602.62 857.95 595.00 840.13 587.63 822.21 C 569.52 778.21 552.73 733.72 538.73 688.22 C 536.34 680.46 534.34 672.58 532.22 664.74 C 531.93 663.68 532.04 662.51 531.96 661.39 C 532.65 661.15 533.34 660.92 534.03 660.68 Z" fill="#ffffff" fill-rule="nonzero" group-id="1" node-id="101" stroke="none" target-height="224.43" target-width="83.57001" target-x="531.93" target-y="660.68"></path><path d="M 435.99 888.34 C 468.71 813.97 500.08 739.09 521.11 659.54 C 526.72 673.00 452.70 871.06 435.99 888.34 Z" fill="#ffffff" fill-rule="nonzero" group-id="1" node-id="103" stroke="none" target-height="228.80005" target-width="90.72998" target-x="435.99" target-y="659.54"></path><path d="M 502.98 546.97 C 503.36 548.75 504.06 550.54 504.06 552.32 C 504.00 574.27 503.85 596.22 503.71 618.16 C 503.67 623.82 503.71 629.48 503.49 635.13 C 503.41 637.16 502.72 639.16 501.39 641.11 C 498.62 609.78 501.26 578.52 501.07 547.27 C 501.71 547.17 502.34 547.08 502.98 546.98 Z" fill="#ffffff" fill-rule="nonzero" group-id="1" node-id="105" stroke="none" target-height="94.140015" target-width="5.4400024" target-x="498.62" target-y="546.97"></path><path d="M 577.64 631.64 C 578.26 631.39 578.94 630.83 579.34 630.99 C 597.94 638.44 617.36 642.43 637.14 644.99 C 637.50 645.04 637.73 646.01 638.06 646.61 C 626.39 650.00 583.20 639.36 577.65 631.65 Z" fill="#ffffff" fill-rule="nonzero" group-id="1" node-id="107" stroke="none" target-height="19.169983" target-width="60.419983" target-x="577.64" target-y="630.83"></path><path d="M 351.48 290.14 C 356.84 282.07 367.97 281.23 375.48 287.99 C 376.71 289.09 378.26 290.27 378.70 291.70 C 379.29 293.60 379.72 296.28 378.82 297.76 C 377.14 300.50 375.22 298.41 373.61 296.91 C 367.44 291.16 360.18 288.67 351.48 290.14 Z" fill="#ffffff" fill-rule="nonzero" group-id="1" node-id="109" stroke="none" target-height="19.269989" target-width="28.23999" target-x="351.48" target-y="281.23"></path><path d="M 460.31 199.89 C 457.41 205.07 449.85 207.70 443.91 206.20 C 438.68 204.88 434.05 197.95 434.07 191.49 C 434.09 185.03 439.67 178.64 446.88 176.82 C 451.49 175.65 455.13 176.79 457.26 180.53 C 455.51 180.02 454.22 179.58 452.89 179.26 C 447.05 177.86 440.53 181.27 437.76 187.15 C 435.39 192.19 437.19 199.77 442.27 202.53 C 444.73 203.86 448.32 203.79 451.27 203.38 C 454.10 202.98 456.75 201.33 460.30 199.90 Z" fill="#ffffff" fill-rule="nonzero" group-id="1" node-id="111" stroke="none" target-height="32.050003" target-width="26.26001" target-x="434.05" target-y="175.65"></path><path d="M 354.10 303.03 C 359.46 314.21 361.79 326.33 365.30 338.79 C 360.67 336.03 352.49 310.51 354.10 303.03 Z" fill="#ffffff" fill-rule="nonzero" group-id="1" node-id="113" stroke="none" target-height="35.76001" target-width="12.809998" target-x="352.49" target-y="303.03"></path><path d="M 519.71 610.28 L 519.71 640.45 C 516.37 637.10 516.79 613.63 519.71 610.28 Z" fill="#ffffff" fill-rule="nonzero" group-id="1" node-id="115" stroke="none" target-height="30.169983" target-width="3.3400269" target-x="516.37" target-y="610.28"></path><path d="M 377.28 283.77 C 370.57 282.17 365.12 280.87 359.42 279.51 C 359.20 275.09 361.15 273.20 365.90 274.88 C 369.43 276.12 372.84 277.92 375.99 279.95 C 376.98 280.59 376.98 282.78 377.28 283.77 Z" fill="#ffffff" fill-rule="nonzero" group-id="1" node-id="117" stroke="none" target-height="10.569977" target-width="18.079987" target-x="359.2" target-y="273.2"></path><path d="M 580.79 551.57 C 585.49 559.15 582.28 571.08 594.76 574.23 C 590.88 577.81 588.33 575.41 586.35 573.27 C 580.70 567.18 579.91 559.60 580.78 551.57 Z" fill="#ffffff" fill-rule="nonzero" group-id="1" node-id="119" stroke="none" target-height="26.23999" target-width="14.850037" target-x="579.91" target-y="551.57"></path><path d="M 375.13 272.94 C 377.85 271.46 380.58 268.80 383.28 268.83 C 385.74 268.86 386.48 275.40 384.47 277.33 C 380.01 281.62 378.41 276.52 375.76 274.91 C 375.55 274.25 375.34 273.59 375.13 272.93 Z" fill="#ffffff" fill-rule="nonzero" group-id="1" node-id="121" stroke="none" target-height="12.820007" target-width="11.350006" target-x="375.13" target-y="268.8"></path><path d="M 392.57 218.40 C 389.20 221.59 384.84 224.18 386.23 229.82 C 387.67 235.66 391.98 238.43 397.71 239.46 C 395.04 241.36 393.87 241.26 390.11 238.88 C 385.63 236.06 382.90 230.63 384.12 226.17 C 385.26 222.00 387.92 219.09 392.56 218.40 Z" fill="#ffffff" fill-rule="nonzero" group-id="1" node-id="123" stroke="none" target-height="22.960007" target-width="14.809998" target-x="382.9" target-y="218.4"></path><path d="M 601.19 547.51 C 599.32 544.07 597.87 541.39 596.19 538.31 C 600.20 537.68 603.97 537.10 608.56 536.38 C 605.81 540.54 603.58 543.90 601.18 547.51 Z" fill="#ffffff" fill-rule="nonzero" group-id="1" node-id="125" stroke="none" target-height="11.130005" target-width="12.369995" target-x="596.19" target-y="536.38"></path><path d="M 563.65 666.26 C 566.43 674.04 569.21 681.83 571.99 689.61 L 569.61 690.45 C 566.90 682.65 564.19 674.86 561.49 667.06 C 562.21 666.79 562.94 666.52 563.66 666.25 Z" fill="#ffffff" fill-rule="nonzero" group-id="1" node-id="127" stroke="none" target-height="24.200012" target-width="10.5" target-x="561.49" target-y="666.25"></path><path d="M 662.17 797.41 C 664.66 804.70 667.14 811.99 669.63 819.27 C 668.88 819.53 668.14 819.78 667.39 820.04 L 659.75 798.24 C 660.55 797.96 661.36 797.69 662.16 797.41 Z" fill="#ffffff" fill-rule="nonzero" group-id="1" node-id="129" stroke="none" target-height="22.630005" target-width="9.880005" target-x="659.75" target-y="797.41"></path><path d="M 561.39 164.34 C 551.21 158.17 539.99 157.53 528.49 158.39 C 537.16 154.05 554.33 157.25 561.39 164.34 Z" fill="#ffffff" fill-rule="nonzero" group-id="1" node-id="131" stroke="none" target-height="10.289993" target-width="32.900024" target-x="528.49" target-y="154.05"></path><path d="M 430.41 727.32 C 430.30 726.11 429.95 724.86 430.11 723.68 C 430.97 717.18 431.91 710.69 432.97 704.22 C 433.11 703.35 434.07 702.62 434.65 701.83 C 435.10 702.57 436.03 703.41 435.92 704.05 C 434.48 711.84 432.88 719.60 431.33 727.37 C 431.03 727.35 430.72 727.34 430.42 727.32 Z" fill="#ffffff" fill-rule="nonzero" group-id="1" node-id="133" stroke="none" target-height="25.539978" target-width="6.0799866" target-x="429.95" target-y="701.83"></path><path d="M 603.83 214.33 C 608.17 215.95 611.32 218.34 612.03 222.81 C 613.12 229.71 610.29 235.10 604.95 239.68 C 610.22 230.97 614.81 222.39 603.83 214.32 Z" fill="#ffffff" fill-rule="nonzero" group-id="1" node-id="135" stroke="none" target-height="25.359985" target-width="10.97998" target-x="603.83" target-y="214.32"></path><path d="M 471.82 160.01 C 466.42 154.37 459.75 153.99 452.63 155.37 C 458.39 149.90 468.33 152.25 471.82 160.01 Z" fill="#ffffff" fill-rule="nonzero" group-id="1" node-id="137" stroke="none" target-height="10.110001" target-width="19.190002" target-x="452.63" target-y="149.9"></path><path d="M 660.81 726.48 C 657.68 716.44 654.55 706.41 651.41 696.37 L 652.82 695.93 C 655.95 705.94 659.07 715.95 662.20 725.95 L 660.81 726.47 Z" fill="#ffffff" fill-rule="nonzero" group-id="1" node-id="139" stroke="none" target-height="30.549988" target-width="10.790039" target-x="651.41" target-y="695.93"></path><path d="M 638.41 870.44 C 636.03 864.58 633.09 858.89 632.15 852.56 C 632.73 852.36 633.31 852.16 633.89 851.97 C 636.19 857.85 638.50 863.74 640.80 869.62 C 640.00 869.90 639.20 870.17 638.41 870.45 Z" fill="#ffffff" fill-rule="nonzero" group-id="1" node-id="141" stroke="none" target-height="18.480042" target-width="8.649963" target-x="632.15" target-y="851.97"></path><path d="M 450.90 798.91 C 449.22 804.21 447.54 809.50 445.74 815.16 C 443.47 811.72 446.12 802.35 450.90 798.91 Z" fill="#ffffff" fill-rule="nonzero" group-id="1" node-id="143" stroke="none" target-height="16.25" target-width="7.4299927" target-x="443.47" target-y="798.91"></path><path d="M 533.50 185.38 C 534.47 180.32 543.34 176.05 549.17 178.20 C 544.01 180.56 538.54 183.07 533.50 185.38 Z" fill="#ffffff" fill-rule="nonzero" group-id="1" node-id="145" stroke="none" target-height="9.330002" target-width="15.669983" target-x="533.5" target-y="176.05"></path><path d="M 357.35 903.19 C 361.04 906.01 364.73 908.84 368.42 911.66 C 367.99 912.28 367.57 912.89 367.14 913.51 C 363.35 910.83 359.55 908.16 355.76 905.48 C 356.29 904.72 356.82 903.96 357.35 903.19 Z" fill="#ffffff" fill-rule="nonzero" group-id="1" node-id="147" stroke="none" target-height="10.320007" target-width="12.660004" target-x="355.76" target-y="903.19"></path><path d="M 624.34 513.82 C 623.92 509.54 623.57 506.01 623.18 501.96 C 627.79 505.43 628.17 509.38 624.34 513.82 Z" fill="#ffffff" fill-rule="nonzero" group-id="1" node-id="149" stroke="none" target-height="11.860016" target-width="4.993347" target-x="623.18" target-y="501.96"></path><path d="M 743.52 897.87 C 741.33 902.42 737.13 904.36 732.77 906.11 L 731.95 905.06 C 735.40 902.15 738.84 899.25 742.29 896.34 C 742.70 896.85 743.11 897.36 743.52 897.88 Z" fill="#ffffff" fill-rule="nonzero" group-id="1" node-id="151" stroke="none" target-height="9.7699585" target-width="11.570007" target-x="731.95" target-y="896.34"></path><path d="M 613.53 688.47 C 615.10 692.81 616.67 697.14 618.23 701.48 C 617.55 701.74 616.87 702.00 616.20 702.25 C 614.54 697.95 612.88 693.65 611.21 689.35 C 611.98 689.06 612.75 688.76 613.53 688.47 Z" fill="#ffffff" fill-rule="nonzero" group-id="1" node-id="153" stroke="none" target-height="13.780029" target-width="7.0199585" target-x="611.21" target-y="688.47"></path><path d="M 617.48 773.99 C 615.87 769.51 614.25 765.04 612.64 760.56 C 613.33 760.31 614.03 760.06 614.72 759.81 C 616.32 764.32 617.91 768.83 619.51 773.35 C 618.83 773.57 618.16 773.78 617.48 774.00 Z" fill="#ffffff" fill-rule="nonzero" group-id="1" node-id="155" stroke="none" target-height="14.190002" target-width="6.869995" target-x="612.64" target-y="759.81"></path><path d="M 620.02 278.70 C 625.34 283.17 623.18 289.95 615.21 292.68 C 620.32 289.15 623.02 284.88 620.02 278.70 Z" fill="#ffffff" fill-rule="nonzero" group-id="1" node-id="157" stroke="none" target-height="13.97998" target-width="10.130005" target-x="615.21" target-y="278.7"></path><path d="M 653.62 811.07 C 654.64 815.36 655.53 819.11 656.68 823.92 C 652.18 819.24 650.80 813.59 653.62 811.07 Z" fill="#ffffff" fill-rule="nonzero" group-id="1" node-id="159" stroke="none" target-height="12.849976" target-width="5.880005" target-x="650.8" target-y="811.07"></path><path d="M 438.56 740.40 C 439.41 736.78 440.26 733.15 441.10 729.53 C 444.35 733.95 441.30 737.16 439.99 740.70 C 439.51 740.60 439.03 740.50 438.56 740.40 Z" fill="#ffffff" fill-rule="nonzero" group-id="1" node-id="161" stroke="none" target-height="11.169983" target-width="5.7900085" target-x="438.56" target-y="729.53"></path><path d="M 560.22 573.88 C 559.77 570.45 559.33 567.02 558.88 563.59 C 559.58 563.50 560.29 563.42 560.99 563.33 L 562.38 573.64 C 561.66 573.72 560.94 573.80 560.23 573.88 Z" fill="#ffffff" fill-rule="nonzero" group-id="1" node-id="163" stroke="none" target-height="10.549988" target-width="3.5" target-x="558.88" target-y="563.33"></path><path d="M 707.01 194.56 C 720.39 187.78 732.48 181.65 745.61 175.00 C 734.21 195.59 723.21 215.48 711.55 236.55 C 708.35 215.02 705.34 194.79 702.19 173.56 C 689.35 178.50 677.24 183.15 664.03 188.23 C 675.60 162.50 686.78 137.61 697.97 112.72 C 698.25 112.78 698.53 112.85 698.81 112.91 C 701.49 139.61 704.18 166.30 707.02 194.55 Z" fill="#ffffff" fill-rule="nonzero" group-id="1" node-id="165" stroke="none" target-height="123.83" target-width="81.579956" target-x="664.03" target-y="112.72"></path><path d="M 683.56 486.64 C 677.70 487.36 671.83 488.09 665.97 488.81 C 665.87 488.03 665.77 487.26 665.67 486.48 C 671.53 485.71 677.40 484.94 683.26 484.17 C 683.36 484.99 683.46 485.81 683.56 486.63 Z" fill="#000000" fill-rule="nonzero" group-id="1" node-id="167" stroke="none" target-height="4.639984" target-width="17.890015" target-x="665.67" target-y="484.17"></path><path d="M 372.17 454.35 C 373.52 450.43 374.86 446.52 376.42 442.00 C 379.05 445.83 377.61 450.71 373.51 454.79 C 373.06 454.64 372.62 454.50 372.17 454.35 Z" fill="#000000" fill-rule="nonzero" group-id="1" node-id="169" stroke="none" target-height="12.790009" target-width="6.8799744" target-x="372.17" target-y="442"></path><path d="M 459.02 235.34 C 459.47 247.39 453.07 257.70 449.70 269.38 C 455.26 267.90 460.42 266.53 466.62 264.88 C 463.56 270.09 451.57 275.28 447.72 274.02 C 444.81 273.06 443.87 271.07 445.00 268.20 C 446.63 264.04 448.42 259.94 449.91 255.73 C 452.10 249.53 454.06 243.25 456.20 237.04 C 456.48 236.24 457.25 235.61 457.79 234.90 C 458.20 235.05 458.60 235.19 459.01 235.34 Z" fill="#000000" fill-rule="nonzero" group-id="1" node-id="171" stroke="none" target-height="40.380005" target-width="22.75" target-x="443.87" target-y="234.9"></path><path d="M 464.43 221.09 C 467.38 221.87 470.69 222.03 473.20 223.53 C 480.27 227.75 487.07 232.46 493.83 237.17 C 494.77 237.82 494.92 239.61 495.43 240.87 C 494.14 240.71 492.63 240.92 491.58 240.32 C 483.41 235.66 475.30 230.88 467.23 226.03 C 465.84 225.19 464.73 223.88 463.49 222.78 C 463.80 222.21 464.11 221.65 464.41 221.08 Z" fill="#000000" fill-rule="nonzero" group-id="1" node-id="173" stroke="none" target-height="19.839996" target-width="31.940002" target-x="463.49" target-y="221.08"></path><path d="M 425.35 243.10 C 429.24 235.58 447.35 224.81 455.52 226.72 C 445.79 232.75 436.05 238.77 426.32 244.80 C 426.00 244.24 425.67 243.67 425.35 243.11 Z" fill="#000000" fill-rule="nonzero" group-id="1" node-id="175" stroke="none" target-height="19.990005" target-width="30.169983" target-x="425.35" target-y="224.81"></path><path d="M 446.56 290.89 C 456.38 285.56 465.77 280.47 475.08 275.42 C 472.46 282.93 454.10 293.37 446.56 290.89 Z" fill="#000000" fill-rule="nonzero" group-id="1" node-id="177" stroke="none" target-height="17.949982" target-width="28.519989" target-x="446.56" target-y="275.42"></path><path d="M 481.30 247.98 C 479.27 250.13 477.87 251.61 476.47 253.09 C 475.36 251.77 473.14 250.19 473.37 249.17 C 473.83 247.17 475.65 245.48 476.90 243.66 C 478.12 244.86 479.34 246.06 481.30 247.98 Z" fill="#000000" fill-rule="nonzero" group-id="1" node-id="179" stroke="none" target-height="9.429993" target-width="8.159973" target-x="473.14" target-y="243.66"></path><path d="M 443.54 250.40 C 441.45 252.47 440.09 253.82 438.73 255.17 C 437.83 253.84 436.06 252.37 436.24 251.20 C 436.51 249.41 438.12 247.81 439.16 246.13 C 440.39 247.33 441.62 248.52 443.55 250.39 Z" fill="#000000" fill-rule="nonzero" group-id="1" node-id="181" stroke="none" target-height="9.039993" target-width="7.48999" target-x="436.06" target-y="246.13"></path><path d="M 561.63 264.57 L 551.10 275.58 C 550.83 275.33 550.55 275.08 550.28 274.83 C 554.02 271.39 557.76 267.94 561.50 264.50 C 561.55 264.52 561.59 264.55 561.64 264.57 Z" fill="#000000" fill-rule="nonzero" group-id="1" node-id="183" stroke="none" target-height="11.079987" target-width="11.359985" target-x="550.28" target-y="264.5"></path><path d="M 500.75 447.34 C 504.60 449.26 508.45 451.18 512.26 453.08 C 517.14 450.94 522.20 448.72 527.26 446.49 L 528.18 448.23 C 523.25 451.00 518.48 455.54 513.35 456.00 C 508.99 456.39 504.21 452.08 499.62 449.84 C 500.00 449.00 500.37 448.16 500.75 447.33 Z" fill="#000000" fill-rule="nonzero" group-id="1" node-id="185" stroke="none" target-height="9.900024" target-width="28.559998" target-x="499.62" target-y="446.49"></path></g></svg>