<svg xmlns="http://www.w3.org/2000/svg" class="icon" style="width: 1em;height: 1em;vertical-align: middle;fill: currentColor;overflow: hidden;" viewBox="0 0 1024 1024" version="1.1" width="1024" height="1024"><path d="M854.3 705.6H117.6c-5.5 0-10-4.5-10-10v-451c0-5.5 4.5-10 10-10h736.7c5.5 0 10 4.5 10 10v451c0 5.5-4.5 10-10 10z" fill="#EDEFEF"/><path d="M854.3 725.6H117.6c-16.5 0-30-13.5-30-30v-451c0-16.5 13.5-30 30-30h736.7c16.5 0 30 13.5 30 30v451c0 16.5-13.5 30-30 30z m-726.7-40h716.7v-431H127.6v431z" fill="#607D8B"/><path d="M276.8 566.5h448.1v31.2H276.8zM321.872 503.878l106.772-106.772 22.062 22.061L343.934 525.94z" fill="#C51162"/><path d="M514.686 526.971L407.914 420.2l22.061-22.061L536.747 504.91z" fill="#C51162"/><path d="M492.948 505.891l151.885-151.885 22.061 22.061L515.01 527.953z" fill="#C51162"/><path d="M631.4 340.6l48 48.5v-48.5z" fill="#C51162"/><path d="M580.4 726.1l-16.2 63.4 63.3-16.6-47.1-46.8z" fill="#37474F"/><path d="M820.4 485.8l48 48.2-240.2 239.3-48.8-47.4z" fill="#FF9800"/><path d="M820.167 486.14l22.605-22.508 48.051 48.255-22.604 22.51z" fill="#B0BEC5"/><path d="M890.8 511.8s5.7-5.7 12.8-12.7c7-7 6.4-19.1-1.3-26.9l-19.8-19.9c-7.8-7.8-19.9-8.5-27.1-1.6s-13 12.5-13 12.5" fill="#E57373"/></svg>