<svg xmlns="http://www.w3.org/2000/svg" class="icon" style="width: 1em;height: 1em;vertical-align: middle;fill: currentColor;overflow: hidden;" viewBox="0 0 1024 1024" version="1.1" width="1024" height="1024"><path d="M639.905715 870.323176h-255.923175a25.729205 25.729205 0 0 0-25.645396 25.645396 25.729205 25.729205 0 0 0 25.645396 25.645396h255.923175a25.729205 25.729205 0 0 0 25.645397-25.645396 25.785077 25.785077 0 0 0-25.645397-25.645396z" fill="#FFB36E"/><path d="M588.726668 972.681271h-153.648889a25.701269 25.701269 0 0 0-25.645396 25.645397 25.701269 25.701269 0 0 0 25.645396 25.645396h153.648889a25.701269 25.701269 0 0 0 25.645396-25.645396 25.785077 25.785077 0 0 0-25.645396-25.645397z" fill="#FFB36E"/><path d="M76.85238 486.340636H25.673332a25.701269 25.701269 0 0 0-25.645396 25.645396 25.645396 25.645396 0 0 0 25.645396 25.645396h51.179048a25.701269 25.701269 0 0 0 25.645397-25.645396 25.701269 25.701269 0 0 0-25.645397-25.645396z" fill="#FFB36E"/><path d="M222.260101 186.250389L186.110708 150.100996a25.533652 25.533652 0 0 0-36.149393 0 25.533652 25.533652 0 0 0 0 36.149393L186.110708 222.371846a25.533652 25.533652 0 0 0 36.149393 0 25.645396 25.645396 0 0 0 0-36.121457z" fill="#FFB36E"/><path d="M511.874287 102.497777a25.729205 25.729205 0 0 0 25.645397-25.645397V25.673332A25.729205 25.729205 0 0 0 511.874287 0a25.645396 25.645396 0 0 0-25.645396 25.645396V76.824444a25.785077 25.785077 0 0 0 25.645396 25.645396z" fill="#FFB36E"/><path d="M837.60993 150.017187l-36.149393 36.149393a25.533652 25.533652 0 0 0 0 36.149393 25.645396 25.645396 0 0 0 36.149393 0l36.149393-36.149393a25.533652 25.533652 0 0 0 0-36.149393 25.757141 25.757141 0 0 0-36.149393 0z" fill="#FFB36E"/><path d="M998.326668 489.665039l-51.179048-0.36317a25.673332 25.673332 0 0 0-25.785077 25.421907 25.673332 25.673332 0 0 0 25.39397 25.785077l51.179048 0.36317a25.701269 25.701269 0 0 0 25.785077-25.421907 25.533652 25.533652 0 0 0-25.421907-25.785077z" fill="#FFB36E"/><path d="M511.874287 204.883808A307.297777 307.297777 0 0 0 204.716192 512.013968a307.297777 307.297777 0 0 0 307.130159 307.13016 307.297777 307.297777 0 0 0 307.13016-307.13016A307.297777 307.297777 0 0 0 511.846351 204.883808z" fill="#FFB36E"/><path d="M511.874287 741.98445a230.277779 230.277779 0 0 1-229.998417-229.998418 230.277779 230.277779 0 0 1 229.998417-229.998418 230.277779 230.277779 0 0 1 229.998418 229.998418 230.277779 230.277779 0 0 1-229.998418 229.998418z" fill="#FFFFFF"/></svg>