<?xml version="1.0" standalone="no"?><!DOCTYPE svg PUBLIC "-//W3C//DTD SVG 1.1//EN" "http://www.w3.org/Graphics/SVG/1.1/DTD/svg11.dtd"><svg height="1024" node-id="1" sillyvg="true" template-height="1024" template-width="1024" version="1.1" viewBox="0 0 1024 1024" width="1024" xmlns="http://www.w3.org/2000/svg" xmlns:xlink="http://www.w3.org/1999/xlink"><defs node-id="61"></defs><g node-id="172"><path d="M 1024.00 1024.00 L 0.00 1024.00 C 0.00 682.67 0.00 341.33 0.00 0.00 C 341.33 0.00 682.67 0.00 1024.00 0.00 L 1024.00 1024.00 Z M 816.97 135.98 L 817.05 136.05 C 815.39 131.28 813.76 130.50 810.05 133.72 C 799.34 143.01 788.49 152.20 778.40 162.15 C 766.52 173.85 755.20 186.14 743.96 198.46 C 732.48 211.04 721.35 223.95 710.14 236.78 C 705.08 242.57 700.07 248.42 695.36 254.49 C 694.37 255.77 694.16 258.33 694.67 259.97 C 695.97 264.17 697.87 268.17 699.60 272.41 C 697.98 273.13 696.37 273.84 693.88 274.95 C 692.46 271.56 690.74 268.54 689.95 265.30 C 688.83 260.73 686.51 259.35 682.00 260.45 C 674.16 262.37 666.32 264.39 658.36 265.67 C 648.15 267.31 646.94 271.23 648.61 279.81 C 648.76 280.57 648.74 281.36 648.82 282.39 C 642.67 283.93 636.69 285.26 630.83 287.01 C 629.38 287.44 628.34 289.24 627.11 290.41 C 628.84 290.89 630.71 292.05 632.27 291.73 C 636.65 290.83 640.88 289.25 645.21 288.07 C 651.41 286.38 651.42 286.43 653.43 293.00 C 648.50 296.33 643.48 299.50 638.75 303.06 C 637.25 304.19 635.25 307.20 635.72 307.94 C 637.78 311.23 640.02 308.44 641.90 307.17 C 646.82 303.85 651.61 300.33 656.58 296.81 C 658.29 298.81 659.61 300.51 661.09 302.06 C 666.14 307.38 668.89 307.33 673.72 301.98 C 679.79 295.26 685.87 288.55 692.11 281.67 C 697.22 290.79 701.21 298.20 705.50 305.43 C 707.05 308.05 709.23 310.27 712.89 308.26 C 716.41 306.33 718.13 303.62 716.79 299.64 C 715.84 296.82 714.78 293.98 713.36 291.37 C 710.00 285.15 706.40 279.07 703.28 273.60 C 724.33 268.22 745.22 262.88 765.96 257.58 C 761.54 263.47 756.86 269.29 752.62 275.41 C 745.47 285.75 738.68 296.34 731.59 306.72 C 725.65 315.41 719.81 324.20 713.36 332.50 C 707.57 339.96 704.62 350.25 693.72 352.98 C 691.05 353.65 688.51 355.10 686.09 356.51 C 675.09 362.95 664.40 369.96 653.14 375.89 C 637.81 383.96 621.94 390.98 606.54 398.91 C 591.01 406.91 575.78 415.48 560.45 423.78 C 557.69 416.41 555.01 409.23 552.55 402.68 C 556.09 399.92 559.35 397.65 562.28 395.02 C 565.45 392.17 567.91 388.35 571.40 386.08 C 578.69 381.33 583.06 374.18 586.39 366.91 C 592.52 353.51 592.51 339.25 587.81 325.23 C 585.54 318.45 582.61 311.89 579.98 305.22 C 587.05 304.69 593.39 301.90 596.29 295.08 C 601.12 283.70 598.42 273.88 588.08 266.07 C 591.06 266.86 594.13 267.82 595.45 269.89 C 598.33 274.41 601.38 274.77 606.20 273.19 C 614.49 270.47 620.59 266.76 622.63 257.15 C 625.00 245.97 617.81 235.24 608.11 232.98 C 603.60 231.93 598.88 231.79 592.90 231.08 C 595.71 228.81 597.73 226.70 600.16 225.33 C 605.16 222.51 608.24 218.25 609.93 213.02 C 611.66 207.66 609.52 203.04 607.19 198.07 C 603.21 189.57 594.07 188.66 588.15 191.19 C 582.28 193.70 576.75 197.23 571.51 200.92 C 566.21 204.65 561.43 209.14 556.02 213.63 C 556.86 211.40 557.91 209.61 558.17 207.71 C 558.97 201.87 560.63 195.82 559.85 190.15 C 558.01 176.82 543.99 169.69 532.40 172.27 C 516.45 175.81 506.91 186.72 503.49 202.55 C 501.86 210.09 501.37 217.88 500.36 225.56 L 500.40 225.51 C 498.64 224.27 496.70 223.24 495.16 221.77 C 482.37 209.55 466.07 206.46 449.55 205.61 C 437.48 204.99 427.30 211.67 422.59 223.84 C 420.50 229.23 419.36 234.41 419.02 240.23 C 418.74 244.99 418.64 249.31 420.83 253.43 C 424.98 261.22 429.08 269.12 436.61 272.93 C 426.09 271.91 414.92 270.33 403.70 269.85 C 386.47 269.11 369.17 267.01 355.14 282.04 C 349.95 287.60 345.32 293.08 342.37 299.77 C 339.05 307.30 337.98 315.17 344.23 322.20 C 345.88 324.05 347.14 326.28 348.90 328.00 C 354.23 333.22 359.59 338.42 365.19 343.34 C 368.53 346.28 372.14 349.06 376.01 351.22 C 378.84 352.79 382.30 353.23 385.01 354.04 C 386.64 349.65 387.86 346.39 389.08 343.12 C 390.16 345.07 389.85 347.08 390.26 348.94 C 390.62 350.54 391.45 352.70 392.70 353.29 C 394.63 354.20 397.09 353.99 399.33 354.25 C 399.74 354.30 400.16 354.29 400.69 354.32 C 400.22 355.58 399.83 356.62 399.46 357.62 C 386.45 355.38 386.01 355.51 384.24 361.92 C 384.03 360.14 383.82 358.43 383.62 356.75 C 377.55 355.66 372.06 356.03 366.88 359.04 C 354.83 366.04 347.81 376.72 345.12 390.08 C 343.49 398.13 345.32 405.88 352.07 411.28 C 355.84 414.30 360.14 417.09 364.66 418.65 C 380.53 424.12 395.26 419.01 409.58 412.51 C 414.91 410.09 419.86 406.85 425.89 403.48 C 417.60 417.56 417.66 429.97 426.14 438.26 C 435.58 447.49 447.40 448.53 461.13 445.76 C 454.30 449.91 448.70 453.03 443.40 456.60 C 436.47 461.28 429.78 466.31 423.00 471.21 C 416.33 476.03 409.38 480.51 403.09 485.78 C 390.69 496.20 378.89 507.35 366.42 517.69 C 352.66 529.10 341.86 543.08 330.71 556.80 C 328.28 559.79 327.63 562.99 330.92 565.76 C 326.09 574.18 321.35 582.37 316.68 590.60 C 299.10 621.53 281.49 652.45 264.04 683.46 C 262.39 686.40 262.16 690.13 260.58 693.13 C 259.16 695.82 256.33 697.77 254.92 700.46 C 253.06 704.02 250.62 705.60 246.68 705.14 C 245.37 704.99 244.01 705.23 242.69 705.14 C 240.09 704.95 239.34 705.89 239.46 708.63 C 240.28 725.99 240.88 743.36 241.55 760.73 C 242.57 787.29 243.60 813.85 244.60 840.40 C 245.41 861.95 246.18 883.50 247.01 905.05 C 247.06 906.32 247.41 907.57 247.62 908.83 C 248.24 908.77 248.87 908.70 249.49 908.64 C 246.96 842.24 244.43 775.85 241.89 709.05 L 251.00 709.05 C 250.38 712.06 249.66 714.61 249.36 717.21 C 248.61 723.93 250.40 727.50 256.90 729.03 C 263.00 730.46 269.44 730.83 275.74 730.88 C 279.08 730.91 280.94 728.72 282.17 724.72 C 286.41 710.88 286.86 707.40 303.04 707.17 C 312.88 707.03 322.73 707.09 332.58 706.91 C 343.03 706.72 353.47 706.30 363.92 706.08 C 382.75 705.68 401.58 705.36 420.41 704.99 C 434.97 704.70 449.54 704.32 464.10 704.11 C 473.01 703.98 481.92 704.09 491.76 704.09 C 481.38 731.24 471.21 757.83 460.97 784.61 C 465.41 786.27 469.10 788.20 470.91 781.76 C 470.85 788.78 475.80 788.63 480.06 789.32 C 481.28 789.52 482.61 789.25 483.78 789.57 C 503.63 795.14 523.47 800.76 543.51 806.43 C 545.33 803.05 546.83 800.27 548.33 797.49 C 548.68 797.65 549.04 797.81 549.39 797.96 C 548.41 800.61 547.42 803.26 546.50 805.73 C 550.49 806.87 554.64 808.04 559.19 809.34 C 558.70 810.63 558.27 812.53 557.94 812.51 C 553.42 812.26 548.91 811.75 544.38 811.30 C 542.87 813.82 541.34 816.37 539.80 818.93 L 538.64 818.31 C 539.92 815.69 541.20 813.07 542.41 810.59 C 533.19 808.20 524.24 805.88 515.48 803.60 C 514.30 805.33 513.46 806.55 512.09 808.55 C 512.34 805.97 512.49 804.42 512.66 802.75 C 494.83 798.15 477.28 793.62 459.48 789.02 C 455.98 798.64 452.86 807.68 449.39 816.58 C 447.45 821.57 448.36 823.80 453.57 825.06 C 456.19 825.69 458.78 826.45 461.88 827.29 C 460.51 829.22 459.76 830.51 458.79 831.62 C 451.28 840.27 443.80 848.97 436.14 857.48 C 433.81 860.06 433.01 862.22 435.15 865.36 C 439.03 871.05 442.76 876.86 446.30 882.77 C 451.20 890.96 455.84 899.30 460.62 907.55 C 462.57 910.91 464.61 914.23 466.89 918.03 C 452.46 918.03 438.88 918.14 425.31 918.01 C 402.66 917.78 380.02 917.26 357.37 917.12 C 329.23 916.95 301.09 916.98 272.95 917.03 C 256.91 917.06 240.87 917.27 224.83 917.50 C 221.68 917.55 218.54 918.06 215.39 918.36 C 215.47 919.02 215.55 919.68 215.63 920.34 C 218.07 920.34 220.52 920.34 222.96 920.34 C 248.06 920.38 273.17 920.26 298.27 920.52 C 329.79 920.84 361.31 921.48 392.83 921.98 C 416.65 922.36 440.46 922.86 464.28 923.00 C 469.04 923.03 471.87 924.48 474.12 928.72 C 477.43 934.98 480.00 934.90 483.07 928.37 C 484.72 924.86 486.83 923.97 490.38 924.04 C 497.13 924.19 503.89 924.00 510.65 923.81 C 530.12 923.28 549.59 922.51 569.06 922.16 C 595.73 921.68 622.41 921.57 649.08 921.18 C 664.54 920.96 679.99 920.34 695.45 920.22 C 725.54 919.98 755.62 919.96 785.71 919.81 C 787.51 919.81 789.30 919.47 791.10 919.29 C 791.08 918.51 791.07 917.74 791.05 916.96 C 774.27 916.76 757.49 916.48 740.72 916.38 C 723.66 916.28 706.60 916.36 688.78 916.36 C 695.28 874.28 701.66 832.93 708.11 791.11 C 714.81 799.24 720.92 806.65 726.94 813.95 C 752.21 790.01 781.59 772.02 809.49 751.99 C 808.51 750.54 807.72 749.50 807.07 748.37 C 793.46 724.77 777.08 703.22 758.01 683.84 C 752.01 677.75 744.80 672.55 737.40 668.21 C 718.03 656.84 697.15 649.15 675.03 644.96 C 660.15 642.14 645.30 639.13 630.38 636.58 C 621.39 635.04 612.30 634.03 603.22 633.18 C 598.67 632.75 596.92 630.71 597.20 626.35 C 597.61 619.77 598.00 613.19 598.26 606.60 C 599.18 583.23 600.15 559.86 600.82 536.48 C 600.91 533.22 601.97 531.80 604.74 530.63 C 609.39 528.67 613.96 526.50 618.44 524.18 C 631.46 517.42 644.73 511.07 657.33 503.58 C 679.16 490.61 700.58 476.95 722.10 463.45 C 723.16 462.79 723.98 461.04 724.11 459.71 C 725.15 448.99 726.13 438.26 726.83 427.51 C 727.03 424.35 727.30 422.12 730.65 420.42 C 735.26 418.09 739.52 414.97 743.67 411.84 C 754.03 404.01 759.19 392.42 765.02 381.39 C 768.54 374.74 771.72 367.90 774.77 361.02 C 780.21 348.73 786.03 336.57 790.57 323.95 C 795.98 308.93 800.54 293.58 804.87 278.20 C 808.03 266.97 810.21 255.47 812.87 244.10 C 813.15 242.88 813.35 241.06 814.15 240.65 C 817.66 238.87 821.33 237.34 825.05 236.04 C 833.12 233.23 841.37 230.92 849.28 227.73 C 851.37 226.89 853.40 223.75 853.80 221.39 C 854.32 218.31 853.72 214.76 852.68 211.73 C 848.61 199.84 844.71 187.85 839.72 176.34 C 834.18 163.55 827.60 151.21 821.25 138.79 C 820.58 137.47 818.42 136.91 816.95 136.00 Z M 811.18 755.81 C 783.74 776.00 756.44 796.10 728.65 816.55 C 734.52 823.75 739.60 830.05 744.75 836.30 C 748.75 841.16 749.89 841.08 754.75 836.85 C 759.75 832.49 764.97 828.40 769.88 824.37 C 792.01 841.42 813.83 858.22 836.13 875.40 C 835.95 873.92 835.84 872.95 835.70 871.75 C 840.05 872.09 844.13 872.91 848.13 872.63 C 859.88 871.80 871.66 870.93 883.31 869.27 C 890.36 868.27 891.51 863.51 886.59 858.44 C 872.83 844.27 859.23 829.92 845.15 816.06 C 835.76 806.81 825.66 798.27 815.57 789.14 C 819.04 786.31 820.29 784.89 821.87 784.09 C 826.70 781.62 825.85 778.65 823.32 774.93 C 819.35 769.07 815.71 762.99 811.19 755.82 Z M 235.14 463.47 C 240.57 456.51 245.40 450.41 250.10 444.22 C 250.78 443.32 250.87 441.96 251.23 440.81 C 250.09 440.56 248.81 439.84 247.83 440.12 C 241.47 442.00 235.25 444.35 228.84 446.02 C 225.12 446.99 221.07 447.66 217.31 447.24 C 207.76 446.16 198.29 444.32 188.76 442.97 C 187.31 442.76 185.71 443.58 184.18 443.92 C 184.70 445.56 184.75 447.70 185.83 448.77 C 191.62 454.48 197.76 459.84 203.57 465.54 C 204.63 466.58 205.48 468.84 205.12 470.18 C 202.28 480.63 199.04 490.97 196.14 501.41 C 195.74 502.84 196.55 504.60 196.81 506.21 C 198.24 505.64 199.94 505.39 201.05 504.45 C 209.02 497.67 216.81 490.69 224.81 483.94 C 225.79 483.12 227.74 482.84 229.05 483.13 C 235.62 484.58 242.11 486.40 248.68 487.85 C 249.85 488.11 251.27 487.26 252.57 486.93 C 252.13 485.79 251.93 484.46 251.21 483.55 C 245.91 476.81 240.51 470.16 235.13 463.48 Z M 282.23 313.47 C 282.23 305.87 282.34 298.63 282.13 291.39 C 282.09 290.09 280.74 288.82 280.00 287.54 C 279.36 288.85 278.20 290.16 278.18 291.49 C 278.01 299.50 278.09 307.51 278.09 314.04 C 273.04 318.56 266.77 317.29 263.85 321.58 C 264.14 322.17 264.43 322.75 264.71 323.34 C 268.70 322.29 272.70 321.25 277.08 320.10 C 277.08 326.68 276.91 332.61 277.21 338.52 C 277.28 339.91 278.95 341.21 279.89 342.56 C 280.65 341.28 281.99 340.03 282.08 338.71 C 282.38 333.93 282.39 329.12 282.26 324.33 C 282.14 319.85 283.72 317.50 288.54 316.83 C 291.92 316.36 295.09 314.39 298.36 313.09 C 298.13 312.36 297.90 311.64 297.67 310.91 C 292.95 311.69 288.23 312.48 282.24 313.48 Z M 648.11 191.02 C 651.00 193.21 653.54 195.33 656.31 197.11 C 657.16 197.66 658.62 197.25 659.80 197.27 C 659.45 196.21 659.37 194.92 658.70 194.12 C 656.29 191.21 653.68 188.47 651.14 185.67 C 651.02 181.96 656.48 178.71 653.23 172.79 C 650.60 176.52 648.72 179.19 646.52 182.32 C 644.47 180.13 642.69 178.03 640.68 176.20 C 639.96 175.55 638.66 175.53 637.63 175.22 C 637.56 176.25 637.02 177.73 637.50 178.24 C 643.21 184.27 645.55 190.29 638.49 197.02 C 638.12 197.38 639.10 199.16 639.45 200.28 C 640.50 199.83 641.90 199.66 642.53 198.88 C 644.49 196.46 646.17 193.81 648.10 191.04 Z M 142.21 596.45 C 142.25 597.11 142.29 597.77 142.33 598.44 C 147.15 597.80 151.96 597.16 157.51 596.42 L 157.51 614.82 C 159.02 609.37 159.20 603.94 159.96 598.58 C 160.15 597.25 162.03 595.51 163.44 595.14 C 166.55 594.33 169.86 594.28 173.96 593.82 C 169.67 588.29 164.59 594.00 160.41 591.22 L 160.41 574.51 C 158.85 579.40 157.94 584.28 157.89 589.17 C 157.85 592.48 156.50 593.50 153.65 594.00 C 149.81 594.67 146.03 595.63 142.22 596.46 Z M 405.31 157.36 C 405.53 157.02 405.75 156.68 405.97 156.34 C 406.27 157.61 406.33 159.01 406.94 160.10 C 407.41 160.94 408.61 161.91 409.43 161.87 C 410.29 161.83 411.89 160.46 411.79 159.97 C 410.91 155.81 412.69 152.55 414.81 149.30 C 415.05 148.94 414.64 148.15 414.79 148.99 C 411.91 147.73 409.99 146.90 408.08 146.05 C 406.79 145.48 405.51 144.87 404.23 144.28 C 404.18 145.55 404.06 146.83 404.09 148.10 C 404.10 148.87 404.33 149.64 404.46 150.41 C 404.09 150.25 403.71 150.09 403.34 149.93 C 402.26 151.60 401.17 153.26 400.09 154.93 C 401.83 155.74 403.57 156.55 405.31 157.36 Z M 260.60 526.72 C 260.17 526.68 259.73 526.65 259.30 526.61 C 259.30 532.02 256.19 533.27 251.90 532.98 C 251.57 532.96 251.11 532.90 250.93 533.08 C 249.98 534.02 249.11 535.02 248.21 536.01 C 249.45 536.50 250.69 537.41 251.91 537.38 C 253.74 537.34 255.55 536.63 258.19 536.02 C 257.71 539.52 257.16 542.09 257.09 544.67 C 257.06 545.72 258.06 546.79 258.60 547.86 C 259.41 546.98 260.71 546.20 260.94 545.19 C 261.55 542.45 261.71 539.61 262.05 536.74 C 264.76 536.22 267.37 535.73 269.98 535.23 C 270.02 534.77 270.05 534.31 270.09 533.85 C 267.56 533.15 265.04 532.45 262.71 531.80 C 262.01 530.11 261.32 528.42 260.62 526.73 Z M 791.59 477.84 C 791.14 477.93 790.68 478.02 790.23 478.11 C 789.67 482.76 789.00 487.40 788.66 492.06 C 788.59 493.05 789.71 494.13 790.29 495.17 C 791.14 494.18 792.61 493.26 792.72 492.19 C 793.11 488.42 793.14 484.60 793.05 480.80 C 793.03 479.80 792.11 478.82 791.60 477.83 Z M 508.90 127.19 C 507.12 127.64 505.50 128.05 503.89 128.46 C 503.97 129.13 504.06 129.80 504.14 130.46 C 508.79 130.12 513.45 129.77 518.10 129.43 C 518.10 128.65 518.08 127.86 518.07 127.08 C 516.02 126.92 513.97 126.77 511.63 126.59 C 511.23 125.61 510.72 124.39 510.22 123.17 C 509.95 123.21 509.68 123.24 509.41 123.28 C 509.24 124.61 509.07 125.93 508.90 127.20 Z M 194.52 674.40 L 194.52 658.79 C 191.13 662.45 191.09 670.02 194.52 674.40 Z M 184.33 265.59 C 183.79 265.38 183.25 265.17 182.71 264.96 C 182.06 266.40 181.18 267.79 180.82 269.30 C 180.38 271.18 180.23 273.16 180.22 275.10 C 180.22 276.08 180.79 277.06 181.10 278.05 C 182.01 277.33 183.59 276.70 183.70 275.87 C 184.16 272.48 184.16 269.03 184.33 265.61 Z M 830.88 915.90 C 827.10 916.23 823.88 916.52 820.67 916.80 C 825.21 921.28 830.00 920.60 830.88 915.90 Z M 806.14 630.58 C 807.49 629.54 808.83 628.51 809.81 627.76 C 808.51 625.24 807.42 623.13 806.33 621.02 C 806.22 624.32 801.15 627.42 806.14 630.58 Z M 718.19 570.97 C 718.15 571.65 718.10 572.32 718.06 573.00 L 731.39 573.00 C 731.39 572.58 731.41 572.17 731.42 571.75 C 727.01 571.49 722.60 571.23 718.19 570.97 Z M 721.54 568.91 C 722.11 568.87 722.68 568.83 723.25 568.78 C 723.00 563.70 722.76 558.63 722.51 553.55 C 721.94 553.59 721.37 553.64 720.79 553.69 C 721.04 558.76 721.29 563.84 721.53 568.91 Z" fill="#ffffff" fill-rule="nonzero" group-id="1" node-id="66" stroke="none" target-height="1024" target-width="1024" target-x="0" target-y="0"></path><path d="M 500.38 225.53 C 501.39 217.85 501.88 210.07 503.51 202.52 C 506.93 186.69 516.47 175.78 532.42 172.24 C 544.01 169.67 558.02 176.80 559.87 190.12 C 560.65 195.79 558.99 201.84 558.19 207.68 C 557.93 209.58 556.88 211.36 556.04 213.60 C 561.45 209.11 566.23 204.62 571.53 200.89 C 576.78 197.20 582.30 193.67 588.17 191.16 C 594.09 188.63 603.22 189.54 607.21 198.04 C 609.54 203.01 611.68 207.63 609.95 212.99 C 608.26 218.22 605.18 222.48 600.18 225.30 C 597.75 226.67 595.73 228.79 592.92 231.05 C 598.90 231.76 603.62 231.91 608.13 232.95 C 617.83 235.20 625.02 245.94 622.65 257.12 C 620.61 266.72 614.52 270.44 606.22 273.16 C 601.40 274.74 598.34 274.38 595.47 269.86 C 594.15 267.79 591.09 266.83 588.10 266.04 C 598.44 273.85 601.14 283.66 596.31 295.05 C 593.42 301.87 587.07 304.67 580.00 305.19 C 582.63 311.85 585.55 318.42 587.83 325.20 C 592.53 339.21 592.54 353.48 586.41 366.88 C 583.08 374.15 578.71 381.30 571.42 386.05 C 567.92 388.33 565.47 392.15 562.30 394.99 C 559.37 397.62 556.12 399.88 552.57 402.65 C 555.02 409.20 557.71 416.39 560.47 423.75 C 575.80 415.45 591.03 406.88 606.56 398.88 C 621.96 390.95 637.83 383.93 653.16 375.86 C 664.42 369.93 675.11 362.92 686.11 356.48 C 688.52 355.07 691.07 353.61 693.74 352.95 C 704.64 350.22 707.58 339.93 713.38 332.47 C 719.83 324.16 725.67 315.38 731.61 306.69 C 738.70 296.31 745.49 285.72 752.64 275.38 C 756.88 269.26 761.55 263.43 765.98 257.55 C 745.24 262.85 724.35 268.19 703.30 273.57 C 706.42 279.04 710.02 285.12 713.38 291.34 C 714.79 293.95 715.85 296.79 716.81 299.61 C 718.15 303.59 716.43 306.29 712.91 308.23 C 709.24 310.24 707.07 308.02 705.52 305.40 C 701.23 298.17 697.24 290.76 692.13 281.64 C 685.90 288.52 679.81 295.23 673.74 301.95 C 668.91 307.30 666.16 307.35 661.11 302.03 C 659.63 300.48 658.31 298.78 656.60 296.78 C 651.63 300.31 646.84 303.82 641.92 307.14 C 640.04 308.41 637.80 311.20 635.74 307.91 C 635.27 307.17 637.28 304.16 638.77 303.03 C 643.50 299.47 648.52 296.30 653.45 292.97 C 651.44 286.40 651.42 286.35 645.23 288.04 C 640.90 289.22 636.67 290.80 632.29 291.70 C 630.73 292.02 628.86 290.86 627.13 290.38 C 628.36 289.21 629.40 287.42 630.85 286.98 C 636.71 285.23 642.69 283.90 648.84 282.36 C 648.76 281.33 648.78 280.54 648.63 279.78 C 646.96 271.20 648.17 267.28 658.38 265.64 C 666.33 264.36 674.18 262.35 682.02 260.42 C 686.53 259.31 688.85 260.69 689.97 265.27 C 690.76 268.51 692.48 271.53 693.90 274.92 C 696.39 273.82 698.00 273.10 699.62 272.38 C 697.89 268.14 695.99 264.14 694.69 259.94 C 694.18 258.30 694.39 255.74 695.38 254.46 C 700.09 248.39 705.10 242.54 710.16 236.75 C 721.37 223.92 732.50 211.01 743.98 198.43 C 755.22 186.11 766.54 173.82 778.42 162.12 C 788.51 152.18 799.36 142.99 810.07 133.69 C 813.78 130.47 815.41 131.25 817.06 136.02 C 813.67 137.03 812.64 138.64 813.68 142.54 C 820.54 168.37 832.13 192.22 843.94 215.98 C 844.83 217.77 846.22 219.31 848.20 222.13 C 848.65 218.92 849.45 217.06 849.04 215.52 C 846.80 206.94 844.92 198.18 841.67 189.97 C 837.66 179.86 832.33 170.29 827.76 160.40 C 824.02 152.32 820.56 144.11 816.98 135.95 C 818.45 136.86 820.61 137.42 821.28 138.74 C 827.63 151.16 834.21 163.50 839.75 176.29 C 844.74 187.80 848.63 199.80 852.71 211.68 C 853.75 214.71 854.35 218.25 853.83 221.34 C 853.43 223.70 851.40 226.84 849.31 227.68 C 841.40 230.87 833.15 233.18 825.08 235.99 C 821.36 237.29 817.69 238.82 814.18 240.60 C 813.37 241.01 813.18 242.83 812.90 244.05 C 810.25 255.42 808.06 266.92 804.90 278.15 C 800.57 293.53 796.02 308.88 790.60 323.90 C 786.05 336.52 780.23 348.68 774.80 360.97 C 771.76 367.85 768.57 374.69 765.05 381.34 C 759.22 392.37 754.06 403.97 743.70 411.79 C 739.55 414.92 735.29 418.04 730.68 420.37 C 727.33 422.07 727.06 424.30 726.86 427.46 C 726.16 438.21 725.18 448.94 724.14 459.66 C 724.01 460.98 723.19 462.73 722.13 463.40 C 700.61 476.89 679.20 490.56 657.36 503.53 C 644.76 511.01 631.49 517.36 618.47 524.13 C 613.99 526.45 609.42 528.62 604.77 530.58 C 602.01 531.75 600.95 533.17 600.85 536.43 C 600.19 559.81 599.22 583.18 598.29 606.55 C 598.03 613.14 597.64 619.72 597.23 626.30 C 596.96 630.66 598.71 632.70 603.25 633.13 C 612.33 633.98 621.42 634.99 630.41 636.53 C 645.34 639.08 660.18 642.10 675.06 644.91 C 697.18 649.10 718.06 656.79 737.43 668.16 C 744.83 672.50 752.05 677.70 758.04 683.79 C 777.11 703.17 793.50 724.72 807.10 748.32 C 807.75 749.45 808.55 750.49 809.52 751.94 C 781.62 771.97 752.23 789.96 726.97 813.90 C 720.95 806.60 714.84 799.18 708.14 791.06 C 701.69 832.87 695.30 874.22 688.81 916.31 C 706.63 916.31 723.69 916.23 740.75 916.33 C 757.53 916.43 774.31 916.71 791.08 916.91 C 791.10 917.69 791.11 918.46 791.13 919.24 C 789.33 919.42 787.54 919.75 785.74 919.76 C 755.65 919.91 725.57 919.92 695.48 920.17 C 680.02 920.30 664.57 920.91 649.11 921.13 C 622.44 921.51 595.76 921.63 569.09 922.11 C 549.62 922.46 530.15 923.23 510.68 923.76 C 503.93 923.94 497.16 924.13 490.41 923.99 C 486.86 923.91 484.75 924.81 483.10 928.32 C 480.03 934.85 477.47 934.93 474.15 928.67 C 471.91 924.43 469.07 922.98 464.31 922.95 C 440.49 922.81 416.68 922.31 392.86 921.93 C 361.34 921.43 329.82 920.80 298.30 920.47 C 273.20 920.21 248.10 920.34 222.99 920.29 C 220.55 920.29 218.10 920.29 215.66 920.29 C 215.58 919.63 215.50 918.97 215.42 918.31 C 218.56 918.01 221.71 917.50 224.86 917.45 C 240.90 917.22 256.94 917.01 272.98 916.98 C 301.12 916.93 329.26 916.90 357.40 917.07 C 380.05 917.21 402.69 917.73 425.34 917.96 C 438.92 918.10 452.50 917.98 466.92 917.98 C 464.64 914.18 462.60 910.87 460.65 907.50 C 455.87 899.24 451.22 890.90 446.33 882.72 C 442.79 876.81 439.06 871.00 435.18 865.31 C 433.04 862.17 433.85 860.01 436.17 857.43 C 443.84 848.91 451.31 840.22 458.82 831.57 C 459.78 830.46 460.54 829.17 461.91 827.24 C 458.81 826.40 456.22 825.64 453.60 825.01 C 448.39 823.75 447.48 821.51 449.42 816.53 C 452.88 807.63 456.01 798.59 459.51 788.97 C 477.31 793.57 494.86 798.10 512.69 802.70 C 512.53 804.37 512.37 805.92 512.12 808.50 C 513.49 806.50 514.32 805.29 515.51 803.55 C 524.27 805.82 533.22 808.14 542.44 810.54 C 541.23 813.02 539.95 815.64 538.67 818.26 L 539.83 818.88 C 541.36 816.33 542.89 813.77 544.41 811.25 C 548.94 811.70 553.44 812.21 557.97 812.46 C 558.30 812.48 558.73 810.58 559.22 809.29 C 554.67 808.00 550.53 806.82 546.53 805.68 C 547.45 803.21 548.43 800.56 549.42 797.91 C 549.07 797.75 548.71 797.59 548.36 797.44 C 546.86 800.22 545.36 803.00 543.54 806.38 C 523.51 800.71 503.67 795.09 483.81 789.52 C 482.64 789.19 481.32 789.46 480.09 789.27 C 475.83 788.58 470.89 788.74 470.94 781.71 C 469.13 788.15 465.44 786.22 461.00 784.56 C 471.24 757.79 481.41 731.19 491.79 704.04 C 481.96 704.04 473.04 703.93 464.13 704.06 C 449.57 704.27 435.00 704.65 420.44 704.94 C 401.61 705.31 382.78 705.63 363.95 706.03 C 353.50 706.25 343.06 706.67 332.61 706.86 C 322.77 707.04 312.92 706.98 303.07 707.12 C 286.90 707.35 286.44 710.83 282.20 724.67 C 280.97 728.67 279.11 730.86 275.77 730.83 C 269.47 730.78 263.03 730.41 256.93 728.98 C 250.43 727.46 248.63 723.89 249.39 717.16 C 249.68 714.56 250.41 712.01 251.03 709.00 L 241.92 709.00 C 244.46 775.80 246.99 842.19 249.52 908.59 C 248.90 908.65 248.27 908.72 247.65 908.78 C 247.44 907.52 247.08 906.27 247.04 905.00 C 246.22 883.45 245.45 861.90 244.63 840.35 C 243.63 813.79 242.60 787.23 241.58 760.68 C 240.91 743.31 240.31 725.94 239.49 708.58 C 239.36 705.84 240.11 704.90 242.72 705.09 C 244.04 705.19 245.40 704.94 246.71 705.09 C 250.64 705.55 253.08 703.97 254.95 700.41 C 256.36 697.72 259.18 695.77 260.61 693.08 C 262.19 690.08 262.42 686.35 264.07 683.41 C 281.52 652.40 299.12 621.49 316.71 590.55 C 321.38 582.33 326.12 574.14 330.95 565.71 C 327.66 562.94 328.30 559.74 330.74 556.75 C 341.89 543.03 352.69 529.05 366.45 517.64 C 378.92 507.30 390.72 496.15 403.12 485.73 C 409.40 480.45 416.36 475.97 423.03 471.16 C 429.81 466.26 436.50 461.23 443.43 456.55 C 448.72 452.98 454.32 449.86 461.16 445.71 C 447.42 448.48 435.61 447.44 426.17 438.21 C 417.69 429.92 417.63 417.52 425.92 403.43 C 419.89 406.80 414.93 410.04 409.61 412.46 C 395.29 418.96 380.55 424.07 364.69 418.60 C 360.17 417.04 355.87 414.25 352.10 411.23 C 345.35 405.83 343.53 398.08 345.15 390.03 C 347.85 376.68 354.87 365.99 366.91 358.99 C 372.08 355.98 377.58 355.62 383.65 356.70 C 383.85 358.38 384.06 360.09 384.27 361.87 C 386.04 355.46 386.48 355.33 399.49 357.57 C 399.86 356.58 400.25 355.53 400.72 354.27 C 400.18 354.24 399.77 354.25 399.36 354.20 C 397.12 353.94 394.66 354.15 392.73 353.24 C 391.48 352.65 390.65 350.50 390.29 348.89 C 389.88 347.03 390.19 345.02 389.11 343.07 C 387.89 346.33 386.68 349.60 385.04 353.99 C 382.32 353.18 378.86 352.75 376.04 351.17 C 372.17 349.01 368.56 346.24 365.22 343.29 C 359.62 338.37 354.26 333.17 348.93 327.95 C 347.17 326.22 345.91 324.00 344.26 322.15 C 338.01 315.13 339.08 307.26 342.40 299.72 C 345.35 293.03 349.97 287.55 355.17 281.99 C 369.20 266.96 386.50 269.06 403.73 269.80 C 414.95 270.28 426.12 271.86 436.64 272.88 C 429.11 269.06 425.01 261.17 420.86 253.38 C 418.67 249.26 418.77 244.93 419.05 240.18 C 419.39 234.36 420.53 229.18 422.62 223.79 C 427.33 211.62 437.51 204.95 449.58 205.56 C 466.11 206.41 482.40 209.50 495.19 221.72 C 496.72 223.19 498.67 224.22 500.44 225.45 C 503.55 229.02 507.49 232.16 509.59 236.25 C 515.68 248.14 510.00 258.92 503.77 268.36 C 498.50 276.35 488.77 279.01 479.58 280.98 C 477.56 281.41 474.98 280.05 472.86 279.06 C 469.04 277.29 465.57 274.21 461.60 273.38 C 446.74 270.29 434.66 280.79 436.05 294.99 C 436.70 301.62 442.06 305.45 447.85 303.42 C 452.65 301.74 455.04 297.60 454.62 290.81 C 454.10 292.56 453.84 293.62 453.48 294.65 C 451.75 299.64 447.64 302.39 443.39 301.42 C 439.38 300.50 437.45 296.47 438.37 290.92 C 440.03 280.98 449.71 274.44 460.20 276.16 C 469.12 277.63 472.42 280.34 472.77 289.34 C 473.15 299.33 473.04 309.50 471.53 319.34 C 470.12 328.49 466.51 337.34 459.90 344.33 C 455.21 349.28 455.04 349.12 456.87 355.06 C 455.20 354.74 453.52 354.21 452.46 353.08 C 445.66 345.80 438.04 340.44 427.51 340.20 C 421.95 340.07 411.56 345.36 408.61 350.02 C 405.18 355.45 403.65 360.89 406.77 366.85 C 408.56 370.28 410.61 373.58 412.65 376.88 C 418.86 386.93 428.38 391.48 439.72 391.65 C 444.43 391.72 449.41 389.93 453.83 387.99 C 457.95 386.19 461.05 386.56 464.62 389.54 C 468.93 393.14 473.59 396.73 478.70 398.88 C 488.56 403.04 499.08 404.63 509.86 404.66 C 529.15 404.72 547.87 403.96 562.73 388.64 C 572.19 378.89 581.58 369.34 584.70 355.62 C 588.55 338.65 583.34 322.94 575.41 308.57 C 568.97 296.89 560.54 286.16 552.00 275.82 C 545.31 267.72 536.00 262.92 525.24 262.04 C 520.56 261.66 515.81 261.98 510.97 261.98 C 515.47 253.03 516.71 243.67 512.18 234.01 C 509.22 227.69 505.92 225.18 500.36 225.52 Z M 690.84 360.41 C 683.82 364.39 677.32 367.89 671.01 371.70 C 660.25 378.20 659.52 379.64 662.39 392.19 C 668.74 419.95 678.19 446.57 692.10 471.52 C 692.75 472.69 692.82 474.20 693.16 475.55 C 692.56 475.74 691.96 475.93 691.35 476.11 C 673.51 446.71 660.61 415.37 655.43 380.70 C 653.61 381.78 652.08 382.74 650.49 383.61 C 644.24 387.07 638.07 390.70 631.68 393.90 C 622.86 398.32 613.77 402.22 604.97 406.68 C 593.50 412.49 582.12 418.52 570.85 424.72 C 567.75 426.43 563.10 428.81 562.73 431.40 C 561.05 443.07 545.70 452.21 534.87 451.78 C 522.52 451.29 510.80 447.58 500.42 441.52 C 492.48 436.88 486.75 437.20 479.37 442.03 C 464.12 452.02 447.76 460.39 432.92 470.92 C 416.47 482.59 401.14 495.85 385.48 508.60 C 380.28 512.83 375.55 517.63 370.58 522.20 C 402.17 547.56 432.26 576.96 432.75 583.58 C 421.89 573.25 411.66 563.00 400.87 553.40 C 389.92 543.66 378.41 534.55 366.73 524.81 C 357.64 535.26 349.53 544.58 340.56 554.90 C 352.45 551.66 362.99 552.07 371.23 559.18 C 382.13 568.59 391.71 579.51 402.09 589.54 C 407.69 594.95 413.79 599.84 420.03 605.29 C 430.97 588.97 441.39 573.87 451.32 558.45 C 457.49 548.87 463.36 539.03 468.52 528.88 C 472.33 521.38 474.70 513.16 477.95 505.36 C 478.50 504.04 480.31 503.26 481.53 502.22 C 481.94 503.48 482.89 504.85 482.67 505.98 C 478.82 525.34 469.74 542.41 459.19 558.81 C 455.21 565.00 451.23 571.19 446.85 578.01 C 496.37 581.38 545.01 584.68 594.29 588.03 C 594.61 581.65 594.94 575.59 595.23 569.53 C 596.17 549.50 597.06 529.47 598.09 509.44 C 598.17 507.96 599.27 506.54 599.89 505.09 C 600.56 506.55 601.80 508.02 601.80 509.48 C 601.80 515.22 601.39 520.97 601.09 527.59 C 640.15 507.21 678.72 487.60 714.46 464.16 C 711.63 458.63 708.34 453.73 706.52 448.33 C 701.25 432.74 697.00 416.80 691.52 401.29 C 686.79 387.89 686.73 374.73 690.83 360.40 Z M 431.22 600.26 C 431.47 600.77 431.72 601.28 431.97 601.78 C 432.45 601.90 432.92 602.05 433.40 602.15 C 456.03 606.44 478.78 610.20 501.26 615.17 C 517.07 618.67 532.70 623.24 548.05 628.41 C 561.64 632.98 574.97 638.54 587.96 644.63 C 596.16 648.48 603.14 654.97 606.70 663.37 C 609.64 670.30 611.70 678.18 611.73 685.65 C 611.78 702.86 607.33 719.38 600.20 735.05 C 583.71 771.29 565.83 806.83 546.10 841.44 C 540.67 850.96 540.86 851.07 530.45 848.11 C 530.30 848.07 530.12 848.15 529.90 848.17 C 515.91 871.80 501.91 895.46 487.80 919.29 C 553.75 918.19 618.76 917.10 684.10 916.00 C 685.29 907.84 686.47 899.88 687.62 891.92 C 689.84 876.58 691.94 861.22 694.29 845.91 C 696.42 832.06 698.73 818.23 701.11 804.42 C 703.35 791.41 706.02 778.47 708.08 765.43 C 709.97 753.44 711.43 741.38 712.82 729.32 C 713.65 722.11 713.96 714.84 714.55 707.60 C 714.93 702.90 712.85 700.53 708.11 700.43 C 705.39 700.38 702.68 700.06 699.96 700.07 C 680.47 700.18 660.98 700.36 641.49 700.48 C 632.53 700.53 623.57 700.48 614.42 700.48 C 614.67 698.93 615.10 696.33 615.52 693.74 C 617.52 681.14 615.79 669.22 608.78 658.37 C 600.95 646.25 589.26 639.05 576.17 634.09 C 563.62 629.34 550.89 625.07 538.12 620.94 C 504.53 610.08 469.71 604.78 435.10 598.60 C 433.95 598.39 432.53 599.67 431.24 600.25 Z M 806.41 260.18 C 799.13 254.21 791.30 252.39 783.05 252.24 C 777.36 252.14 772.82 254.09 769.36 259.35 C 762.25 270.17 754.47 280.54 746.93 291.08 C 742.70 296.99 738.16 302.68 734.20 308.76 C 727.37 319.26 721.18 330.18 714.16 340.53 C 710.07 346.56 705.76 352.35 700.35 357.64 C 692.43 365.38 691.36 376.85 693.42 387.36 C 696.11 401.11 700.51 414.53 704.30 428.53 C 712.03 424.39 718.99 420.58 726.02 416.92 C 737.38 411.00 746.45 402.80 753.09 391.70 C 759.70 380.66 765.72 369.36 770.67 357.50 C 776.89 342.57 783.44 327.76 788.98 312.57 C 795.31 295.21 800.69 277.50 806.41 260.18 Z M 396.94 596.63 C 391.94 590.24 387.55 585.03 383.60 579.50 C 373.12 564.83 356.92 558.90 339.59 563.95 C 337.48 564.56 335.09 566.24 334.02 568.10 C 313.76 603.16 293.67 638.31 273.59 673.46 C 271.11 677.80 268.87 682.27 265.94 687.79 C 282.32 680.95 295.88 683.55 307.61 696.06 C 337.63 662.65 367.14 629.80 396.94 596.63 Z M 798.72 148.80 C 764.07 184.28 730.75 221.02 698.53 258.68 C 699.53 260.95 700.73 263.49 701.78 266.09 C 702.94 268.97 704.26 271.01 707.49 268.14 C 708.07 267.63 708.95 267.41 709.74 267.21 C 718.25 265.03 726.77 262.90 735.27 260.71 C 744.75 258.26 754.12 254.41 763.72 253.76 C 770.25 253.32 772.20 249.65 775.25 245.94 C 780.12 240.01 784.72 233.61 792.51 231.33 C 799.44 229.30 806.70 227.05 812.30 234.48 C 812.69 235.00 813.85 235.43 814.45 235.25 C 821.71 233.03 828.92 230.69 835.65 228.54 C 816.65 204.77 805.13 178.57 798.72 148.80 Z M 405.14 700.47 C 377.75 687.17 363.58 667.63 371.08 635.25 C 369.45 637.01 368.67 637.85 367.89 638.69 C 355.25 652.25 342.67 665.86 329.93 679.33 C 324.22 685.37 318.13 691.05 312.39 697.06 C 311.09 698.42 310.52 700.46 309.22 702.92 C 342.21 702.07 373.67 701.27 405.13 700.46 Z M 465.40 828.18 C 460.63 834.20 456.25 839.74 451.61 845.60 C 457.18 849.44 460.70 854.94 466.84 857.97 C 478.81 863.89 489.95 871.53 503.82 872.83 C 507.55 873.18 510.13 872.88 511.78 869.10 C 512.83 866.70 514.56 864.60 515.96 862.34 C 519.12 857.23 522.27 852.12 525.54 846.82 C 505.01 840.46 485.15 834.31 465.40 828.19 Z M 494.83 431.81 C 503.06 438.49 513.27 441.92 523.71 445.00 C 531.60 447.33 539.27 447.69 547.01 444.49 C 553.34 441.87 559.14 435.77 558.22 431.46 C 556.82 424.89 554.76 418.46 553.03 412.16 C 552.35 411.98 552.03 411.82 551.71 411.82 C 534.99 412.09 518.28 412.48 501.56 412.56 C 498.28 412.57 497.59 414.30 497.18 416.68 C 496.35 421.55 495.65 426.43 494.81 431.80 Z M 306.29 703.11 C 306.43 702.62 306.58 702.13 306.72 701.64 C 300.06 693.37 291.76 687.55 280.64 688.36 C 263.25 689.63 254.97 702.64 253.40 718.84 C 253.05 722.50 255.30 724.46 258.63 724.86 C 263.05 725.39 267.54 725.36 271.97 725.83 C 274.98 726.15 275.92 724.58 276.73 722.10 C 278.26 717.41 279.87 712.72 281.88 708.22 C 283.45 704.69 286.12 702.66 290.54 703.03 C 295.76 703.46 301.04 703.13 306.29 703.13 Z M 684.32 264.25 C 674.97 266.18 665.76 268.00 656.59 270.00 C 652.94 270.80 650.94 273.42 652.17 276.99 C 653.98 282.25 655.99 287.56 658.84 292.30 C 660.79 295.55 663.92 298.81 667.29 300.15 C 668.75 300.73 672.13 296.51 674.64 294.48 C 674.90 294.27 675.20 294.12 675.44 293.90 C 680.72 289.00 685.99 284.09 690.93 279.49 C 688.60 274.12 686.51 269.31 684.32 264.25 Z M 807.29 256.17 C 808.02 250.99 808.54 246.93 809.18 242.89 C 810.11 237.12 805.68 232.06 800.21 233.55 C 791.79 235.84 784.61 240.32 779.11 248.73 C 789.35 247.84 798.35 249.20 807.29 256.17 Z M 723.71 424.47 C 717.78 427.73 712.35 430.71 706.98 433.66 C 708.64 438.58 709.87 443.21 711.77 447.55 C 713.69 451.94 716.28 456.04 718.96 460.98 C 722.82 453.99 724.27 441.60 723.71 424.47 Z M 418.13 299.49 C 409.35 293.85 403.16 293.48 397.25 298.08 C 391.76 302.35 388.91 309.52 391.13 315.28 C 393.90 322.48 399.79 324.70 407.35 323.45 C 407.02 324.95 406.79 325.98 406.72 326.31 C 409.52 323.97 412.31 321.20 415.54 319.11 C 417.54 317.82 421.16 316.23 422.39 317.11 C 425.42 319.27 424.15 322.71 422.41 325.59 C 421.98 326.30 421.53 327.01 421.15 327.74 C 419.30 331.33 421.00 334.64 424.99 334.60 C 428.71 334.57 432.42 333.90 436.14 333.51 C 436.12 332.91 436.10 332.31 436.08 331.72 C 433.38 331.85 430.66 332.20 427.97 332.02 C 426.54 331.92 425.17 330.90 423.77 330.30 C 424.66 329.32 425.46 328.23 426.46 327.39 C 427.95 326.15 429.59 325.08 431.17 323.94 C 430.96 323.65 430.76 323.35 430.55 323.06 C 429.15 323.64 427.75 324.21 427.38 324.37 C 426.00 320.58 425.31 314.60 423.31 314.13 C 420.03 313.35 415.06 315.20 412.31 317.64 C 407.81 321.63 403.47 320.69 398.97 319.24 C 394.04 317.65 391.94 313.92 393.71 309.03 C 394.94 305.63 397.21 302.12 399.99 299.87 C 405.31 295.57 414.51 297.94 416.18 303.37 C 416.21 303.48 416.66 303.46 416.89 303.50 C 417.27 302.23 417.66 300.96 418.10 299.48 Z M 453.45 238.33 C 448.78 243.70 446.93 244.49 444.32 242.87 C 441.19 240.92 440.51 236.70 443.16 232.18 C 444.63 229.66 446.62 227.22 448.93 225.47 C 451.87 223.25 455.48 221.81 459.08 224.24 C 462.68 226.67 463.78 230.61 462.59 234.37 C 461.49 237.85 459.24 241.08 457.01 244.07 C 454.37 247.62 454.43 252.18 457.71 254.65 C 464.00 259.38 474.40 254.99 475.58 248.05 C 473.11 249.64 470.28 252.34 466.95 253.31 C 464.60 254.00 461.23 252.87 459.01 251.46 C 458.31 251.01 459.50 246.89 460.45 244.71 C 461.99 241.15 464.92 237.99 465.70 234.33 C 467.45 226.07 461.13 219.06 453.65 220.08 C 445.98 221.13 438.55 230.12 439.05 237.83 C 439.32 242.03 441.68 244.80 445.74 245.32 C 449.85 245.85 451.63 242.85 453.45 238.31 Z M 548.13 215.89 C 546.17 216.00 544.19 216.00 542.24 216.25 C 536.01 217.05 531.16 214.67 527.65 209.68 C 523.39 203.62 523.64 196.76 525.41 190.10 C 526.92 184.41 533.87 181.13 538.92 182.98 C 542.21 184.18 544.24 188.26 542.63 191.56 C 541.94 192.96 539.77 193.64 537.89 194.91 C 538.07 195.20 538.88 196.55 539.70 197.90 C 545.71 194.11 547.40 189.53 544.69 184.65 C 541.92 179.67 535.53 177.39 530.56 180.67 C 527.20 182.89 523.20 186.50 522.59 190.03 C 521.57 195.98 521.85 202.73 523.70 208.46 C 526.82 218.13 540.55 222.47 548.14 215.90 Z M 356.28 398.64 C 365.33 399.51 371.29 393.74 369.94 386.23 C 368.87 380.30 372.18 374.99 378.29 372.84 C 383.29 371.08 386.13 372.72 389.65 378.81 C 390.43 380.16 392.18 381.61 393.62 381.76 C 396.36 382.05 401.18 376.43 401.53 373.30 C 399.17 375.18 396.75 377.10 394.19 379.15 C 392.67 377.23 391.43 375.71 390.23 374.15 C 385.94 368.54 382.50 367.67 376.02 370.57 C 368.67 373.87 366.08 378.22 366.69 386.24 C 367.21 392.97 366.07 394.68 359.42 397.20 C 358.55 397.53 357.73 397.97 356.29 398.64 Z M 479.22 403.04 C 478.82 403.33 478.42 403.62 478.02 403.90 C 477.50 405.40 477.34 407.23 476.37 408.35 C 474.30 410.75 471.81 412.79 469.50 414.98 C 467.80 413.15 466.08 411.32 464.40 409.47 C 464.07 409.11 463.91 408.60 463.61 408.20 C 460.11 403.40 454.75 402.09 448.98 404.63 C 443.24 407.15 440.62 411.87 441.61 417.65 C 442.33 421.86 442.19 425.72 436.95 427.07 C 436.51 427.18 436.24 427.93 435.44 428.98 C 437.02 429.05 438.01 429.38 438.73 429.08 C 443.10 427.25 445.07 423.49 444.31 418.71 C 443.31 412.37 445.60 408.48 451.31 406.84 C 456.70 405.29 460.44 407.52 463.23 413.00 C 464.15 414.79 466.54 416.50 468.54 416.94 C 472.67 417.84 480.72 409.84 480.34 405.66 C 480.26 404.76 479.61 403.91 479.22 403.04 Z M 552.57 590.60 C 552.00 600.76 551.44 610.76 550.87 620.77 C 551.56 621.04 552.24 621.32 552.93 621.59 C 554.06 620.08 556.06 618.65 556.19 617.06 C 556.81 609.20 557.11 601.31 557.18 593.42 C 557.23 588.79 556.68 588.64 552.57 590.60 Z M 591.09 219.22 C 591.94 214.36 586.36 208.91 580.58 210.33 C 572.73 212.25 568.89 218.81 571.81 226.51 C 573.99 232.27 575.85 237.41 567.82 240.78 C 569.46 241.00 570.32 241.05 571.05 240.78 C 577.00 238.48 578.40 233.49 574.84 225.74 C 573.20 222.18 572.58 218.71 575.85 216.37 C 578.31 214.61 581.95 213.01 584.66 213.52 C 587.16 213.99 589.12 217.36 591.10 219.24 Z M 519.45 610.72 C 520.00 611.15 520.56 611.57 521.11 612.00 C 522.18 610.80 524.04 609.70 524.20 608.39 C 524.98 601.86 525.33 595.28 525.77 588.71 C 525.80 588.33 525.29 587.92 524.83 587.20 C 523.53 587.52 522.20 587.85 521.11 588.11 C 520.53 595.95 519.99 603.33 519.44 610.71 Z M 460.49 657.19 C 456.45 660.45 453.81 669.96 455.92 673.62 C 462.18 667.40 463.87 661.32 460.49 657.19 Z M 449.91 618.76 C 451.71 616.27 453.61 614.38 454.49 612.09 C 454.86 611.12 453.37 609.05 452.23 608.02 C 451.49 607.35 449.87 607.66 448.64 607.53 C 449.06 608.92 449.70 610.29 449.86 611.71 C 450.07 613.62 449.91 615.56 449.91 618.76 Z M 779.01 714.90 C 775.82 711.02 773.38 708.06 770.95 705.10 C 770.71 705.26 770.47 705.42 770.23 705.58 C 771.20 708.70 772.16 711.82 773.11 714.90 L 779.01 714.90 Z M 514.04 834.84 C 513.94 835.45 513.84 836.06 513.74 836.67 C 516.99 837.64 520.23 838.68 523.52 839.50 C 524.21 839.67 525.11 839.04 525.91 838.77 C 525.60 838.14 525.40 837.04 524.97 836.94 C 521.35 836.13 517.69 835.51 514.04 834.84 Z M 442.38 677.80 C 443.07 678.08 443.76 678.36 444.45 678.64 C 443.57 673.34 451.32 670.77 447.96 664.19 C 446.35 664.99 445.05 665.63 443.15 666.57 C 445.34 666.99 446.66 667.24 447.96 667.49 C 445.97 671.17 444.17 674.48 442.38 677.80 Z" fill="#000000" fill-rule="nonzero" group-id="1" node-id="68" stroke="none" target-height="804.45996" target-width="638.93" target-x="215.42" target-y="130.47"></path><path d="M 811.18 755.81 C 815.70 762.98 819.34 769.06 823.31 774.92 C 825.83 778.65 826.69 781.61 821.86 784.08 C 820.29 784.88 819.03 786.31 815.56 789.13 C 825.65 798.26 835.75 806.80 845.14 816.05 C 859.21 829.91 872.81 844.25 886.58 858.43 C 891.51 863.50 890.35 868.26 883.30 869.26 C 871.65 870.91 859.87 871.78 848.12 872.62 C 844.12 872.90 840.04 872.08 835.69 871.74 C 835.83 872.93 835.95 873.90 836.12 875.39 C 813.81 858.21 792.00 841.41 769.87 824.36 C 764.97 828.39 759.74 832.49 754.74 836.84 C 749.88 841.07 748.74 841.15 744.74 836.29 C 739.60 830.04 734.51 823.74 728.64 816.54 C 756.43 796.09 783.73 776.00 811.17 755.80 Z M 772.70 821.70 C 784.15 830.71 795.20 839.68 806.58 848.21 C 810.66 851.27 815.65 853.09 820.92 850.99 C 832.18 846.51 841.32 839.38 847.05 828.56 C 847.80 827.14 846.86 823.79 845.55 822.47 C 838.82 815.66 831.77 809.14 824.71 802.67 C 820.71 799.01 816.47 795.61 812.07 791.87 C 799.72 801.23 786.37 811.35 772.70 821.70 Z" fill="#000000" fill-rule="nonzero" group-id="1" node-id="70" stroke="none" target-height="119.59003" target-width="162.87" target-x="728.64" target-y="755.8"></path><path d="M 235.14 463.47 C 240.52 470.16 245.92 476.81 251.22 483.54 C 251.94 484.46 252.14 485.78 252.58 486.92 C 251.28 487.26 249.86 488.10 248.69 487.84 C 242.12 486.39 235.63 484.57 229.06 483.12 C 227.74 482.83 225.79 483.10 224.82 483.93 C 216.82 490.68 209.03 497.66 201.06 504.44 C 199.95 505.38 198.25 505.63 196.82 506.20 C 196.57 504.59 195.76 502.83 196.15 501.40 C 199.05 490.96 202.29 480.62 205.13 470.17 C 205.49 468.83 204.64 466.58 203.58 465.53 C 197.77 459.83 191.64 454.47 185.84 448.76 C 184.75 447.69 184.71 445.55 184.19 443.91 C 185.72 443.57 187.32 442.75 188.77 442.96 C 198.30 444.31 207.76 446.15 217.32 447.23 C 221.08 447.65 225.14 446.98 228.85 446.01 C 235.26 444.35 241.48 441.99 247.84 440.11 C 248.82 439.82 250.10 440.54 251.24 440.79 C 250.88 441.94 250.80 443.30 250.11 444.20 C 245.41 450.39 240.59 456.49 235.15 463.45 Z M 209.09 489.96 L 208.98 490.12 C 211.05 488.56 213.07 486.94 215.19 485.46 C 220.51 481.72 225.02 475.87 232.99 479.36 C 235.70 480.55 238.85 480.73 241.86 481.39 C 238.53 475.70 235.16 470.41 232.35 464.83 C 231.64 463.42 232.19 460.74 233.13 459.26 C 236.05 454.67 239.45 450.37 243.08 445.38 C 234.64 448.31 227.13 450.91 219.25 453.64 C 217.99 459.44 216.72 466.08 214.99 472.60 C 214.65 473.87 212.54 474.67 211.24 475.68 L 210.56 476.93 C 209.89 477.66 209.03 478.29 208.58 479.14 C 205.72 484.58 206.93 491.54 202.20 496.31 C 202.18 496.33 202.55 496.75 203.21 497.55 C 205.23 494.95 207.16 492.45 209.10 489.94 Z" fill="#000000" fill-rule="nonzero" group-id="1" node-id="72" stroke="none" target-height="66.380005" target-width="68.39" target-x="184.19" target-y="439.82"></path><path d="M 282.23 313.47 C 288.23 312.47 292.95 311.69 297.66 310.90 C 297.89 311.63 298.12 312.35 298.35 313.08 C 295.08 314.38 291.91 316.35 288.53 316.82 C 283.71 317.49 282.13 319.83 282.25 324.32 C 282.38 329.11 282.37 333.92 282.07 338.70 C 281.99 340.02 280.65 341.27 279.88 342.55 C 278.95 341.21 277.28 339.90 277.20 338.51 C 276.90 332.60 277.07 326.66 277.07 320.09 C 272.68 321.24 268.69 322.29 264.70 323.33 C 264.41 322.74 264.12 322.16 263.84 321.57 C 266.76 317.28 273.03 318.55 278.08 314.03 C 278.08 307.50 277.99 299.49 278.17 291.48 C 278.20 290.15 279.36 288.85 279.99 287.53 C 280.73 288.81 282.08 290.08 282.12 291.38 C 282.33 298.62 282.22 305.86 282.22 313.46 Z" fill="#000000" fill-rule="nonzero" group-id="1" node-id="74" stroke="none" target-height="55.01999" target-width="34.51001" target-x="263.84" target-y="287.53"></path><path d="M 648.11 191.02 C 646.18 193.79 644.50 196.45 642.54 198.86 C 641.90 199.65 640.50 199.81 639.46 200.26 C 639.11 199.14 638.12 197.36 638.50 197.00 C 645.56 190.27 643.22 184.24 637.51 178.22 C 637.03 177.71 637.57 176.23 637.64 175.20 C 638.67 175.51 639.97 175.53 640.69 176.18 C 642.71 178.02 644.48 180.12 646.53 182.30 C 648.73 179.17 650.61 176.51 653.24 172.77 C 656.49 178.69 651.04 181.94 651.15 185.65 C 653.69 188.46 656.29 191.20 658.71 194.10 C 659.38 194.90 659.46 196.19 659.81 197.25 C 658.63 197.22 657.17 197.63 656.32 197.09 C 653.55 195.32 651.01 193.19 648.12 191.00 Z" fill="#000000" fill-rule="nonzero" group-id="1" node-id="76" stroke="none" target-height="27.48999" target-width="22.779968" target-x="637.03" target-y="172.77"></path><path d="M 142.21 596.45 C 146.02 595.62 149.81 594.66 153.64 593.99 C 156.49 593.49 157.84 592.47 157.88 589.16 C 157.93 584.27 158.84 579.39 160.40 574.50 L 160.40 591.21 C 164.59 593.99 169.66 588.28 173.95 593.81 C 169.85 594.27 166.54 594.32 163.43 595.13 C 162.02 595.50 160.14 597.24 159.95 598.57 C 159.19 603.93 159.02 609.37 157.50 614.81 L 157.50 596.41 C 151.95 597.15 147.13 597.79 142.32 598.43 C 142.28 597.77 142.24 597.11 142.20 596.44 Z" fill="#000000" fill-rule="nonzero" group-id="1" node-id="78" stroke="none" target-height="40.309998" target-width="31.75" target-x="142.2" target-y="574.5"></path><path d="M 405.31 157.36 C 403.57 156.55 401.83 155.74 400.09 154.93 C 401.17 153.26 402.26 151.60 403.34 149.93 C 403.71 150.09 404.09 150.25 404.46 150.41 C 404.33 149.64 404.11 148.87 404.09 148.10 C 404.07 146.83 404.18 145.55 404.23 144.28 C 405.51 144.87 406.79 145.48 408.08 146.05 C 409.99 146.90 411.91 147.73 414.79 148.99 C 414.63 148.16 415.04 148.94 414.81 149.30 C 412.70 152.55 410.91 155.81 411.79 159.97 C 411.89 160.46 410.29 161.82 409.43 161.87 C 408.60 161.91 407.41 160.94 406.94 160.10 C 406.33 159.01 406.27 157.61 405.97 156.34 C 405.75 156.68 405.53 157.02 405.31 157.36 Z" fill="#000000" fill-rule="nonzero" group-id="1" node-id="80" stroke="none" target-height="17.630005" target-width="14.950012" target-x="400.09" target-y="144.28"></path><path d="M 260.60 526.72 C 261.30 528.41 262.00 530.11 262.69 531.79 C 265.02 532.44 267.55 533.14 270.07 533.84 C 270.03 534.30 270.00 534.76 269.96 535.22 C 267.35 535.72 264.75 536.21 262.03 536.73 C 261.69 539.60 261.53 542.44 260.92 545.18 C 260.69 546.19 259.39 546.97 258.58 547.85 C 258.05 546.79 257.05 545.71 257.07 544.66 C 257.14 542.08 257.69 539.51 258.17 536.01 C 255.53 536.63 253.72 537.33 251.89 537.37 C 250.67 537.40 249.42 536.49 248.19 536.00 C 249.09 535.02 249.96 534.01 250.91 533.07 C 251.09 532.89 251.55 532.95 251.88 532.97 C 256.18 533.27 259.29 532.01 259.28 526.60 C 259.71 526.64 260.15 526.67 260.58 526.71 Z" fill="#000000" fill-rule="nonzero" group-id="1" node-id="82" stroke="none" target-height="21.25" target-width="21.880005" target-x="248.19" target-y="526.6"></path><path d="M 791.59 477.84 C 792.10 478.83 793.02 479.81 793.04 480.81 C 793.12 484.61 793.09 488.43 792.71 492.20 C 792.60 493.26 791.13 494.19 790.28 495.18 C 789.71 494.14 788.58 493.06 788.65 492.07 C 788.99 487.41 789.67 482.77 790.22 478.12 C 790.67 478.03 791.13 477.94 791.58 477.85 Z" fill="#000000" fill-rule="nonzero" group-id="1" node-id="84" stroke="none" target-height="17.339996" target-width="4.539978" target-x="788.58" target-y="477.84"></path><path d="M 508.90 127.19 C 509.06 125.92 509.24 124.60 509.41 123.27 C 509.68 123.23 509.95 123.20 510.22 123.16 C 510.72 124.38 511.23 125.60 511.63 126.58 C 513.97 126.76 516.02 126.92 518.07 127.07 C 518.07 127.85 518.09 128.64 518.10 129.42 C 513.45 129.76 508.79 130.11 504.14 130.45 C 504.06 129.78 503.97 129.11 503.89 128.45 C 505.51 128.04 507.13 127.63 508.90 127.18 Z" fill="#000000" fill-rule="nonzero" group-id="1" node-id="86" stroke="none" target-height="7.2899933" target-width="14.209961" target-x="503.89" target-y="123.16"></path><path d="M 194.52 674.40 C 191.09 670.02 191.13 662.45 194.52 658.79 L 194.52 674.40 Z" fill="#000000" fill-rule="nonzero" group-id="1" node-id="88" stroke="none" target-height="15.610046" target-width="3.430008" target-x="191.09" target-y="658.79"></path><path d="M 184.33 265.59 C 184.16 269.02 184.15 272.46 183.70 275.85 C 183.59 276.68 182.01 277.31 181.10 278.03 C 180.79 277.05 180.22 276.06 180.22 275.08 C 180.23 273.14 180.37 271.16 180.82 269.28 C 181.18 267.77 182.06 266.38 182.71 264.94 C 183.25 265.15 183.79 265.36 184.33 265.57 Z" fill="#000000" fill-rule="nonzero" group-id="1" node-id="90" stroke="none" target-height="13.089996" target-width="4.1100006" target-x="180.22" target-y="264.94"></path><path d="M 830.88 915.90 C 830.00 920.60 825.21 921.28 820.67 916.80 C 823.88 916.52 827.09 916.23 830.88 915.90 Z" fill="#000000" fill-rule="nonzero" group-id="1" node-id="92" stroke="none" target-height="5.380005" target-width="10.210022" target-x="820.67" target-y="915.9"></path><path d="M 806.14 630.58 C 801.15 627.43 806.22 624.32 806.33 621.02 C 807.42 623.13 808.51 625.24 809.81 627.76 C 808.84 628.51 807.50 629.54 806.14 630.58 Z" fill="#000000" fill-rule="nonzero" group-id="1" node-id="94" stroke="none" target-height="9.559998" target-width="8.659973" target-x="801.15" target-y="621.02"></path><path d="M 718.19 570.97 C 722.60 571.23 727.01 571.49 731.42 571.75 C 731.42 572.17 731.40 572.58 731.39 573.00 L 718.06 573.00 C 718.10 572.32 718.15 571.65 718.19 570.97 Z" fill="#000000" fill-rule="nonzero" group-id="1" node-id="96" stroke="none" target-height="2.0300293" target-width="13.359985" target-x="718.06" target-y="570.97"></path><path d="M 721.54 568.91 C 721.29 563.84 721.04 558.76 720.80 553.69 C 721.37 553.65 721.94 553.60 722.52 553.55 C 722.77 558.63 723.01 563.70 723.26 568.78 C 722.69 568.82 722.12 568.87 721.55 568.91 Z" fill="#000000" fill-rule="nonzero" group-id="1" node-id="98" stroke="none" target-height="15.359985" target-width="2.460022" target-x="720.8" target-y="553.55"></path><path d="M 690.84 360.41 C 686.74 374.74 686.81 387.90 691.53 401.30 C 697.00 416.81 701.25 432.75 706.53 448.34 C 708.36 453.74 711.65 458.64 714.47 464.17 C 678.73 487.61 640.17 507.22 601.10 527.60 C 601.40 520.98 601.80 515.23 601.81 509.49 C 601.81 508.03 600.57 506.56 599.90 505.10 C 599.28 506.55 598.18 507.97 598.10 509.45 C 597.06 529.47 596.18 549.51 595.24 569.54 C 594.96 575.60 594.63 581.66 594.30 588.04 C 545.02 584.69 496.37 581.38 446.86 578.02 C 451.24 571.20 455.22 565.01 459.20 558.82 C 469.75 542.42 478.83 525.35 482.68 505.99 C 482.91 504.86 481.95 503.49 481.54 502.23 C 480.31 503.26 478.51 504.05 477.96 505.37 C 474.70 513.17 472.34 521.39 468.53 528.89 C 463.37 539.04 457.50 548.88 451.33 558.46 C 441.40 573.88 430.98 588.98 420.04 605.30 C 413.80 599.86 407.70 594.96 402.10 589.55 C 391.72 579.52 382.14 568.60 371.24 559.19 C 363.00 552.08 352.46 551.67 340.57 554.91 C 349.54 544.60 357.66 535.27 366.74 524.82 C 378.42 534.55 389.93 543.66 400.88 553.41 C 411.67 563.02 421.90 573.26 432.76 583.59 C 432.28 576.97 402.19 547.57 370.59 522.21 C 375.57 517.64 380.30 512.84 385.49 508.61 C 401.16 495.86 416.48 482.60 432.93 470.93 C 447.77 460.40 464.13 452.03 479.38 442.04 C 486.76 437.21 492.48 436.89 500.43 441.53 C 510.81 447.59 522.53 451.29 534.88 451.79 C 545.71 452.22 561.05 443.09 562.74 431.41 C 563.11 428.82 567.76 426.44 570.86 424.73 C 582.13 418.52 593.50 412.50 604.98 406.69 C 613.78 402.23 622.87 398.33 631.69 393.91 C 638.08 390.71 644.24 387.08 650.50 383.62 C 652.08 382.75 653.61 381.79 655.44 380.71 C 660.62 415.38 673.52 446.72 691.36 476.12 C 691.96 475.93 692.56 475.74 693.17 475.56 C 692.83 474.21 692.77 472.71 692.11 471.53 C 678.20 446.58 668.75 419.96 662.40 392.20 C 659.53 379.65 660.26 378.21 671.02 371.71 C 677.33 367.90 683.83 364.40 690.85 360.42 Z" fill="#ffffff" fill-rule="nonzero" group-id="1" node-id="100" stroke="none" target-height="244.88998" target-width="373.89996" target-x="340.57" target-y="360.41"></path><path d="M 431.22 600.26 C 432.51 599.68 433.93 598.40 435.08 598.61 C 469.69 604.79 504.51 610.09 538.10 620.95 C 550.87 625.08 563.61 629.35 576.15 634.10 C 589.24 639.06 600.93 646.26 608.76 658.38 C 615.76 669.22 617.50 681.15 615.50 693.75 C 615.09 696.35 614.66 698.94 614.40 700.49 C 623.55 700.49 632.51 700.53 641.47 700.49 C 660.96 700.37 680.45 700.19 699.94 700.08 C 702.66 700.06 705.37 700.38 708.09 700.44 C 712.83 700.54 714.92 702.91 714.53 707.61 C 713.94 714.85 713.63 722.12 712.80 729.33 C 711.41 741.39 709.95 753.45 708.06 765.44 C 706.00 778.48 703.34 791.42 701.09 804.43 C 698.71 818.24 696.40 832.06 694.27 845.92 C 691.92 861.24 689.82 876.60 687.60 891.93 C 686.45 899.89 685.27 907.85 684.08 916.01 C 618.74 917.10 553.73 918.19 487.78 919.30 C 501.89 895.47 515.89 871.81 529.88 848.18 C 530.11 848.15 530.29 848.07 530.43 848.12 C 540.84 851.08 540.65 850.98 546.08 841.45 C 565.81 806.85 583.69 771.31 600.18 735.06 C 607.31 719.39 611.76 702.87 611.71 685.66 C 611.69 678.19 609.62 670.31 606.68 663.38 C 603.12 654.98 596.14 648.49 587.94 644.64 C 574.95 638.55 561.62 632.99 548.03 628.42 C 532.68 623.25 517.05 618.68 501.24 615.18 C 478.76 610.20 456.01 606.44 433.38 602.16 C 432.90 602.07 432.43 601.92 431.95 601.79 C 431.70 601.28 431.45 600.77 431.20 600.27 Z" fill="#ffffff" fill-rule="nonzero" group-id="1" node-id="102" stroke="none" target-height="320.89996" target-width="283.71997" target-x="431.2" target-y="598.4"></path><path d="M 500.38 225.53 C 505.94 225.20 509.24 227.70 512.20 234.02 C 516.73 243.68 515.48 253.04 510.99 261.99 C 515.84 261.99 520.58 261.67 525.26 262.05 C 536.03 262.93 545.33 267.74 552.02 275.83 C 560.56 286.16 568.99 296.89 575.43 308.58 C 583.36 322.95 588.57 338.67 584.72 355.63 C 581.60 369.35 572.21 378.90 562.75 388.65 C 547.89 403.97 529.16 404.73 509.88 404.67 C 499.11 404.64 488.58 403.04 478.72 398.89 C 473.61 396.73 468.95 393.15 464.64 389.55 C 461.07 386.57 457.97 386.20 453.85 388.00 C 449.43 389.94 444.45 391.73 439.74 391.66 C 428.41 391.49 418.88 386.94 412.67 376.89 C 410.63 373.60 408.59 370.29 406.79 366.86 C 403.67 360.90 405.19 355.46 408.63 350.03 C 411.57 345.37 421.96 340.09 427.53 340.21 C 438.06 340.46 445.67 345.82 452.48 353.09 C 453.53 354.22 455.22 354.75 456.89 355.07 C 455.06 349.13 455.23 349.29 459.92 344.34 C 466.53 337.35 470.14 328.50 471.55 319.35 C 473.07 309.51 473.17 299.33 472.79 289.35 C 472.45 280.35 469.15 277.64 460.22 276.17 C 449.74 274.44 440.05 280.99 438.39 290.93 C 437.47 296.47 439.39 300.51 443.41 301.43 C 447.66 302.40 451.77 299.65 453.50 294.66 C 453.86 293.63 454.12 292.58 454.64 290.82 C 455.06 297.61 452.67 301.75 447.87 303.43 C 442.08 305.46 436.72 301.63 436.07 295.00 C 434.68 280.80 446.76 270.30 461.62 273.39 C 465.59 274.22 469.06 277.29 472.88 279.07 C 475.00 280.05 477.57 281.42 479.60 280.99 C 488.78 279.02 498.52 276.35 503.79 268.37 C 510.01 258.93 515.70 248.15 509.61 236.26 C 507.51 232.17 503.57 229.02 500.46 225.46 C 500.44 225.47 500.40 225.53 500.40 225.53 Z M 549.78 303.88 C 549.54 304.10 549.31 304.31 549.07 304.53 C 546.11 302.04 543.21 299.48 540.14 297.12 C 539.31 296.48 537.98 296.48 536.87 296.19 C 537.04 297.45 536.74 299.19 537.46 299.89 C 540.78 303.13 544.13 306.43 547.93 309.05 C 555.42 314.22 556.72 324.05 551.42 331.40 C 550.72 332.37 551.32 334.29 551.32 336.86 C 560.76 328.49 561.03 318.73 553.19 307.15 C 557.69 307.58 558.59 305.38 557.10 301.79 C 556.16 299.53 555.27 297.13 553.77 295.27 C 552.88 294.16 550.85 293.96 549.33 293.35 C 548.75 295.10 547.66 296.87 547.75 298.58 C 547.84 300.37 549.05 302.11 549.78 303.87 Z M 572.30 338.16 C 570.48 339.54 569.43 340.02 568.83 340.83 C 563.80 347.59 556.93 351.47 548.78 352.40 C 539.83 353.42 531.01 352.77 523.73 346.22 C 522.32 344.95 520.38 344.27 518.68 343.32 C 519.43 345.45 520.14 347.60 520.95 349.70 C 521.11 350.11 521.67 350.37 522.06 350.68 C 535.52 361.33 562.11 357.83 571.35 342.43 C 571.86 341.57 571.83 340.38 572.30 338.16 Z M 514.46 289.89 C 513.70 289.70 512.15 288.75 511.08 289.14 C 504.12 291.68 497.23 294.53 492.96 301.11 C 492.18 302.32 492.22 304.06 491.88 305.55 C 493.34 305.00 495.01 304.74 496.22 303.85 C 502.17 299.44 507.99 294.87 514.45 289.90 Z M 511.81 311.25 C 510.35 312.46 508.71 313.19 508.11 314.43 C 506.58 317.61 510.42 325.47 513.76 326.58 C 516.08 327.35 519.07 325.03 518.51 322.57 C 517.86 319.69 516.85 316.84 515.57 314.18 C 515.02 313.04 513.39 312.43 511.81 311.25 Z M 551.84 279.70 C 550.89 279.06 549.50 277.32 548.24 277.40 C 543.88 277.69 539.51 278.42 535.25 279.42 C 533.79 279.76 532.52 281.26 531.40 282.45 C 531.00 282.87 531.03 284.16 531.39 284.68 C 531.73 285.18 532.87 285.56 533.48 285.38 C 539.49 283.60 545.47 281.69 551.84 279.70 Z" fill="#ffffff" fill-rule="nonzero" group-id="1" node-id="104" stroke="none" target-height="179.53001" target-width="184.9" target-x="403.67" target-y="225.2"></path><path d="M 806.41 260.18 C 800.69 277.51 795.31 295.21 788.98 312.57 C 783.44 327.75 776.90 342.57 770.67 357.50 C 765.72 369.36 759.70 380.66 753.09 391.70 C 746.44 402.81 737.38 411.00 726.02 416.92 C 718.99 420.59 712.03 424.39 704.30 428.53 C 700.51 414.53 696.11 401.11 693.42 387.36 C 691.36 376.85 692.43 365.38 700.35 357.64 C 705.77 352.35 710.08 346.55 714.16 340.53 C 721.19 330.17 727.37 319.25 734.20 308.76 C 738.15 302.68 742.70 296.99 746.93 291.08 C 754.47 280.55 762.25 270.17 769.36 259.35 C 772.82 254.09 777.36 252.14 783.05 252.24 C 791.30 252.39 799.13 254.21 806.41 260.18 Z" fill="#ffffff" fill-rule="nonzero" group-id="1" node-id="106" stroke="none" target-height="176.39" target-width="115.04999" target-x="691.36" target-y="252.14"></path><path d="M 396.94 596.63 C 367.14 629.79 337.63 662.64 307.61 696.06 C 295.87 683.55 282.32 680.95 265.94 687.79 C 268.87 682.28 271.11 677.80 273.59 673.46 C 293.67 638.30 313.76 603.15 334.02 568.10 C 335.10 566.24 337.48 564.56 339.59 563.95 C 356.92 558.90 373.12 564.83 383.60 579.50 C 387.55 585.03 391.94 590.24 396.94 596.63 Z" fill="#ffffff" fill-rule="nonzero" group-id="1" node-id="108" stroke="none" target-height="137.15997" target-width="131" target-x="265.94" target-y="558.9"></path><path d="M 798.72 148.80 C 805.13 178.58 816.66 204.77 835.65 228.54 C 828.93 230.69 821.71 233.03 814.45 235.25 C 813.85 235.43 812.69 235.01 812.30 234.48 C 806.70 227.05 799.44 229.30 792.51 231.33 C 784.73 233.61 780.12 240.01 775.25 245.94 C 772.20 249.65 770.25 253.32 763.72 253.76 C 754.12 254.41 744.75 258.27 735.27 260.71 C 726.77 262.90 718.24 265.03 709.74 267.21 C 708.96 267.41 708.07 267.63 707.49 268.14 C 704.26 271.00 702.94 268.97 701.78 266.09 C 700.73 263.49 699.53 260.95 698.53 258.68 C 730.75 221.02 764.06 184.28 798.72 148.80 Z" fill="#ffffff" fill-rule="nonzero" group-id="1" node-id="110" stroke="none" target-height="122.2" target-width="137.12" target-x="698.53" target-y="148.8"></path><path d="M 405.14 700.47 C 373.68 701.28 342.22 702.08 309.23 702.93 C 310.52 700.47 311.10 698.42 312.40 697.07 C 318.14 691.06 324.24 685.38 329.94 679.34 C 342.67 665.87 355.25 652.25 367.90 638.70 C 368.68 637.86 369.46 637.02 371.09 635.26 C 363.59 667.64 377.76 687.18 405.15 700.48 Z" fill="#ffffff" fill-rule="nonzero" group-id="1" node-id="112" stroke="none" target-height="67.66998" target-width="95.91998" target-x="309.23" target-y="635.26"></path><path d="M 465.40 828.18 C 485.15 834.30 505.02 840.45 525.54 846.81 C 522.27 852.11 519.12 857.23 515.96 862.33 C 514.56 864.58 512.83 866.68 511.78 869.09 C 510.13 872.87 507.55 873.17 503.82 872.82 C 489.95 871.53 478.81 863.88 466.84 857.96 C 460.70 854.93 457.18 849.43 451.61 845.59 C 456.25 839.73 460.63 834.20 465.40 828.17 Z" fill="#ffffff" fill-rule="nonzero" group-id="1" node-id="114" stroke="none" target-height="45" target-width="73.92999" target-x="451.61" target-y="828.17"></path><path d="M 494.83 431.81 C 495.66 426.44 496.37 421.55 497.20 416.69 C 497.61 414.31 498.29 412.58 501.58 412.57 C 518.30 412.50 535.01 412.10 551.73 411.83 C 552.05 411.83 552.37 411.99 553.05 412.17 C 554.78 418.47 556.83 424.90 558.24 431.47 C 559.16 435.77 553.36 441.88 547.03 444.50 C 539.29 447.70 531.62 447.34 523.73 445.01 C 513.29 441.93 503.08 438.50 494.85 431.82 Z" fill="#ffffff" fill-rule="nonzero" group-id="1" node-id="116" stroke="none" target-height="35.870026" target-width="64.32999" target-x="494.83" target-y="411.83"></path><path d="M 306.29 703.11 C 301.04 703.11 295.76 703.44 290.54 703.01 C 286.12 702.64 283.45 704.68 281.88 708.20 C 279.87 712.70 278.26 717.39 276.73 722.08 C 275.92 724.56 274.98 726.13 271.97 725.81 C 267.54 725.34 263.05 725.37 258.63 724.84 C 255.30 724.44 253.05 722.48 253.40 718.82 C 254.97 702.63 263.25 689.61 280.64 688.34 C 291.76 687.53 300.06 693.35 306.72 701.62 C 306.58 702.11 306.43 702.60 306.29 703.09 Z" fill="#ffffff" fill-rule="nonzero" group-id="1" node-id="118" stroke="none" target-height="38.599976" target-width="53.67" target-x="253.05" target-y="687.53"></path><path d="M 684.32 264.25 C 686.51 269.31 688.60 274.12 690.93 279.49 C 685.99 284.09 680.72 289.00 675.44 293.90 C 675.20 294.12 674.89 294.28 674.64 294.48 C 672.13 296.51 668.75 300.74 667.29 300.15 C 663.92 298.81 660.79 295.55 658.84 292.30 C 655.99 287.56 653.98 282.25 652.17 276.99 C 650.94 273.41 652.95 270.79 656.59 270.00 C 665.76 268.00 674.97 266.18 684.32 264.25 Z" fill="#ffffff" fill-rule="nonzero" group-id="1" node-id="120" stroke="none" target-height="36.48999" target-width="39.98999" target-x="650.94" target-y="264.25"></path><path d="M 816.97 135.98 C 820.55 144.13 824.02 152.34 827.75 160.43 C 832.32 170.32 837.65 179.90 841.66 190.00 C 844.91 198.20 846.79 206.97 849.03 215.55 C 849.43 217.10 848.64 218.96 848.19 222.16 C 846.21 219.34 844.82 217.80 843.93 216.01 C 832.12 192.25 820.53 168.40 813.67 142.57 C 812.63 138.67 813.67 137.05 817.05 136.05 C 817.05 136.05 816.97 135.98 816.97 135.98 Z" fill="#ffffff" fill-rule="nonzero" group-id="1" node-id="122" stroke="none" target-height="86.18001" target-width="36.799988" target-x="812.63" target-y="135.98"></path><path d="M 807.29 256.17 C 798.35 249.20 789.35 247.85 779.11 248.73 C 784.61 240.32 791.79 235.83 800.21 233.55 C 805.68 232.06 810.10 237.12 809.18 242.89 C 808.53 246.93 808.02 250.99 807.29 256.17 Z" fill="#ffffff" fill-rule="nonzero" group-id="1" node-id="124" stroke="none" target-height="24.110016" target-width="30.98999" target-x="779.11" target-y="232.06"></path><path d="M 723.71 424.47 C 724.27 441.60 722.82 453.99 718.96 460.98 C 716.28 456.04 713.69 451.94 711.77 447.55 C 709.87 443.22 708.65 438.59 706.98 433.66 C 712.35 430.71 717.78 427.73 723.71 424.47 Z" fill="#ffffff" fill-rule="nonzero" group-id="1" node-id="126" stroke="none" target-height="36.51001" target-width="17.29004" target-x="706.98" target-y="424.47"></path><path d="M 418.13 299.49 C 417.68 300.97 417.30 302.24 416.92 303.51 C 416.69 303.47 416.25 303.49 416.21 303.38 C 414.55 297.95 405.34 295.58 400.02 299.88 C 397.24 302.13 394.97 305.64 393.74 309.04 C 391.96 313.93 394.07 317.67 399.00 319.25 C 403.51 320.70 407.84 321.64 412.34 317.65 C 415.09 315.21 420.06 313.36 423.34 314.14 C 425.34 314.61 426.03 320.59 427.41 324.38 C 427.78 324.23 429.18 323.65 430.58 323.07 C 430.79 323.36 430.99 323.66 431.20 323.95 C 429.62 325.09 427.98 326.16 426.49 327.40 C 425.48 328.24 424.69 329.33 423.80 330.31 C 425.20 330.91 426.57 331.93 428.00 332.03 C 430.68 332.21 433.40 331.86 436.11 331.73 C 436.13 332.33 436.15 332.93 436.17 333.52 C 432.45 333.91 428.74 334.57 425.02 334.61 C 421.03 334.65 419.33 331.33 421.18 327.75 C 421.56 327.01 422.01 326.31 422.44 325.60 C 424.18 322.71 425.45 319.27 422.42 317.12 C 421.19 316.24 417.57 317.83 415.57 319.12 C 412.34 321.21 409.55 323.98 406.75 326.32 C 406.82 325.99 407.05 324.95 407.38 323.46 C 399.82 324.71 393.93 322.49 391.16 315.29 C 388.94 309.53 391.79 302.36 397.28 298.09 C 403.19 293.49 409.38 293.86 418.16 299.50 Z" fill="#ffffff" fill-rule="nonzero" group-id="1" node-id="128" stroke="none" target-height="41.160004" target-width="47.23001" target-x="388.94" target-y="293.49"></path><path d="M 453.45 238.33 C 451.63 242.87 449.85 245.87 445.74 245.34 C 441.68 244.82 439.32 242.05 439.05 237.85 C 438.55 230.14 445.98 221.15 453.65 220.10 C 461.13 219.07 467.45 226.08 465.70 234.35 C 464.93 238.01 462.00 241.17 460.45 244.73 C 459.51 246.91 458.31 251.03 459.01 251.48 C 461.23 252.89 464.59 254.02 466.95 253.33 C 470.28 252.35 473.11 249.66 475.58 248.07 C 474.40 255.01 464.00 259.40 457.71 254.67 C 454.43 252.20 454.37 247.64 457.01 244.09 C 459.24 241.11 461.49 237.87 462.59 234.39 C 463.78 230.63 462.67 226.69 459.08 224.26 C 455.47 221.82 451.87 223.26 448.93 225.49 C 446.62 227.23 444.63 229.68 443.16 232.20 C 440.51 236.72 441.19 240.94 444.32 242.89 C 446.93 244.52 448.78 243.72 453.45 238.35 Z" fill="#ffffff" fill-rule="nonzero" group-id="1" node-id="130" stroke="none" target-height="40.329987" target-width="37.03" target-x="438.55" target-y="219.07"></path><path d="M 548.13 215.89 C 540.53 222.46 526.81 218.12 523.69 208.45 C 521.84 202.72 521.57 195.97 522.58 190.02 C 523.18 186.50 527.18 182.88 530.55 180.66 C 535.52 177.38 541.91 179.67 544.68 184.64 C 547.39 189.52 545.70 194.10 539.69 197.89 C 538.87 196.54 538.06 195.19 537.88 194.90 C 539.76 193.63 541.93 192.95 542.62 191.55 C 544.24 188.25 542.20 184.17 538.91 182.97 C 533.86 181.12 526.92 184.40 525.40 190.09 C 523.63 196.75 523.38 203.61 527.64 209.67 C 531.15 214.66 536.00 217.04 542.23 216.24 C 544.18 215.99 546.16 215.99 548.12 215.88 Z" fill="#ffffff" fill-rule="nonzero" group-id="1" node-id="132" stroke="none" target-height="45.08" target-width="26.559998" target-x="521.57" target-y="177.38"></path><path d="M 356.28 398.64 C 357.72 397.97 358.55 397.53 359.41 397.20 C 366.06 394.67 367.20 392.97 366.68 386.24 C 366.06 378.23 368.66 373.87 376.01 370.57 C 382.49 367.66 385.93 368.54 390.22 374.15 C 391.41 375.71 392.66 377.24 394.18 379.15 C 396.74 377.11 399.16 375.18 401.52 373.30 C 401.17 376.42 396.35 382.05 393.61 381.76 C 392.17 381.61 390.42 380.15 389.64 378.81 C 386.12 372.71 383.28 371.08 378.28 372.84 C 372.17 374.99 368.86 380.30 369.93 386.23 C 371.29 393.74 365.33 399.51 356.27 398.64 Z" fill="#ffffff" fill-rule="nonzero" group-id="1" node-id="134" stroke="none" target-height="31.850006" target-width="45.25" target-x="356.27" target-y="367.66"></path><path d="M 479.22 403.04 C 479.61 403.91 480.26 404.76 480.34 405.66 C 480.73 409.84 472.67 417.83 468.54 416.94 C 466.54 416.50 464.15 414.80 463.23 413.00 C 460.43 407.53 456.69 405.29 451.31 406.84 C 445.61 408.48 443.31 412.37 444.31 418.71 C 445.06 423.49 443.10 427.25 438.73 429.08 C 438.01 429.38 437.03 429.05 435.44 428.98 C 436.25 427.93 436.52 427.18 436.95 427.07 C 442.19 425.72 442.33 421.86 441.61 417.65 C 440.62 411.87 443.25 407.15 448.98 404.63 C 454.75 402.09 460.11 403.40 463.61 408.20 C 463.90 408.60 464.07 409.11 464.40 409.47 C 466.08 411.32 467.80 413.15 469.50 414.98 C 471.82 412.79 474.30 410.75 476.37 408.35 C 477.34 407.23 477.49 405.41 478.02 403.90 C 478.42 403.61 478.82 403.32 479.22 403.04 Z" fill="#ffffff" fill-rule="nonzero" group-id="1" node-id="136" stroke="none" target-height="27.290009" target-width="45.29001" target-x="435.44" target-y="402.09"></path><path d="M 552.57 590.60 C 556.68 588.64 557.22 588.79 557.18 593.42 C 557.10 601.31 556.81 609.20 556.19 617.06 C 556.06 618.65 554.07 620.08 552.93 621.59 C 552.24 621.32 551.56 621.04 550.87 620.77 C 551.43 610.76 552.00 600.76 552.57 590.60 Z" fill="#ffffff" fill-rule="nonzero" group-id="1" node-id="138" stroke="none" target-height="32.950012" target-width="6.3499756" target-x="550.87" target-y="588.64"></path><path d="M 591.09 219.22 C 589.11 217.34 587.16 213.97 584.65 213.50 C 581.95 212.99 578.30 214.59 575.84 216.35 C 572.56 218.69 573.19 222.16 574.83 225.72 C 578.40 233.47 576.99 238.47 571.04 240.76 C 570.31 241.04 569.45 240.99 567.81 240.76 C 575.83 237.39 573.98 232.25 571.80 226.49 C 568.88 218.79 572.72 212.23 580.57 210.31 C 586.35 208.90 591.93 214.35 591.08 219.20 Z" fill="#ffffff" fill-rule="nonzero" group-id="1" node-id="140" stroke="none" target-height="32.14" target-width="24.119995" target-x="567.81" target-y="208.9"></path><path d="M 519.45 610.72 C 519.99 603.34 520.54 595.95 521.12 588.12 C 522.21 587.85 523.54 587.53 524.84 587.21 C 525.30 587.92 525.80 588.34 525.78 588.72 C 525.34 595.29 524.99 601.87 524.21 608.40 C 524.05 609.71 522.19 610.81 521.12 612.01 C 520.57 611.58 520.01 611.16 519.46 610.73 Z" fill="#ffffff" fill-rule="nonzero" group-id="1" node-id="142" stroke="none" target-height="24.799988" target-width="6.3499756" target-x="519.45" target-y="587.21"></path><path d="M 460.49 657.19 C 463.87 661.32 462.18 667.40 455.92 673.62 C 453.81 669.96 456.45 660.44 460.49 657.19 Z" fill="#ffffff" fill-rule="nonzero" group-id="1" node-id="144" stroke="none" target-height="16.429993" target-width="10.059998" target-x="453.81" target-y="657.19"></path><path d="M 449.91 618.76 C 449.91 615.56 450.07 613.61 449.86 611.71 C 449.70 610.29 449.07 608.92 448.64 607.53 C 449.87 607.66 451.49 607.35 452.23 608.02 C 453.37 609.05 454.86 611.12 454.49 612.09 C 453.61 614.37 451.71 616.27 449.91 618.76 Z" fill="#ffffff" fill-rule="nonzero" group-id="1" node-id="146" stroke="none" target-height="11.410034" target-width="6.2199707" target-x="448.64" target-y="607.35"></path><path d="M 779.01 714.90 L 773.11 714.90 C 772.16 711.83 771.19 708.70 770.23 705.58 C 770.47 705.42 770.71 705.26 770.95 705.10 C 773.38 708.06 775.82 711.02 779.01 714.90 Z" fill="#ffffff" fill-rule="nonzero" group-id="1" node-id="148" stroke="none" target-height="9.800049" target-width="8.780029" target-x="770.23" target-y="705.1"></path><path d="M 514.04 834.84 C 517.69 835.52 521.35 836.14 524.97 836.94 C 525.40 837.03 525.60 838.13 525.91 838.77 C 525.11 839.03 524.22 839.67 523.52 839.50 C 520.23 838.68 516.99 837.63 513.74 836.67 C 513.84 836.06 513.94 835.45 514.04 834.84 Z" fill="#ffffff" fill-rule="nonzero" group-id="1" node-id="150" stroke="none" target-height="4.829956" target-width="12.169983" target-x="513.74" target-y="834.84"></path><path d="M 442.38 677.80 C 444.18 674.48 445.97 671.16 447.96 667.49 C 446.66 667.24 445.34 666.99 443.15 666.57 C 445.05 665.63 446.35 664.99 447.96 664.19 C 451.32 670.77 443.57 673.34 444.45 678.64 C 443.76 678.36 443.07 678.08 442.38 677.80 Z" fill="#ffffff" fill-rule="nonzero" group-id="1" node-id="152" stroke="none" target-height="14.450012" target-width="8.940002" target-x="442.38" target-y="664.19"></path><path d="M 772.70 821.70 C 786.36 811.35 799.72 801.23 812.07 791.87 C 816.47 795.61 820.72 799.01 824.71 802.67 C 831.77 809.15 838.82 815.66 845.55 822.47 C 846.86 823.79 847.80 827.14 847.05 828.56 C 841.32 839.38 832.17 846.51 820.92 850.99 C 815.65 853.09 810.66 851.26 806.58 848.21 C 795.20 839.68 784.15 830.71 772.70 821.70 Z" fill="#ffffff" fill-rule="nonzero" group-id="1" node-id="154" stroke="none" target-height="61.22003" target-width="75.099976" target-x="772.7" target-y="791.87"></path><path d="M 211.23 475.70 C 212.53 474.68 214.64 473.89 214.98 472.62 C 216.71 466.10 217.98 459.46 219.24 453.66 C 227.12 450.93 234.63 448.32 243.07 445.40 C 239.44 450.39 236.05 454.68 233.12 459.28 C 232.18 460.76 231.63 463.44 232.34 464.85 C 235.14 470.43 238.52 475.72 241.85 481.41 C 238.85 480.75 235.69 480.57 232.98 479.38 C 225.01 475.89 220.51 481.75 215.18 485.48 C 213.06 486.97 211.04 488.58 208.97 490.14 C 210.00 488.19 210.84 486.12 212.09 484.33 C 214.32 481.12 216.32 478.12 211.23 475.72 Z" fill="#ffffff" fill-rule="nonzero" group-id="1" node-id="156" stroke="none" target-height="44.74002" target-width="34.100006" target-x="208.97" target-y="445.4"></path><path d="M 211.23 475.70 C 216.31 478.11 214.32 481.10 212.09 484.31 C 210.84 486.10 210.00 488.17 208.97 490.12 C 208.97 490.12 209.08 489.96 209.08 489.96 C 208.75 488.62 207.97 487.19 208.19 485.94 C 208.73 482.90 209.73 479.93 210.55 476.94 C 210.78 476.52 211.00 476.11 211.23 475.69 Z" fill="#000000" fill-rule="nonzero" group-id="1" node-id="158" stroke="none" target-height="14.429993" target-width="8.339996" target-x="207.97" target-y="475.69"></path><path d="M 210.56 476.95 C 209.74 479.95 208.74 482.91 208.20 485.95 C 207.98 487.20 208.76 488.62 209.09 489.97 C 207.15 492.47 205.22 494.97 203.20 497.58 C 202.55 496.78 202.17 496.37 202.19 496.34 C 206.93 491.57 205.72 484.61 208.57 479.17 C 209.02 478.32 209.88 477.69 210.55 476.96 Z" fill="#ffffff" fill-rule="nonzero" group-id="1" node-id="160" stroke="none" target-height="20.629974" target-width="8.389999" target-x="202.17" target-y="476.95"></path><path d="M 549.78 303.88 C 549.06 302.12 547.84 300.38 547.75 298.59 C 547.67 296.88 548.76 295.10 549.33 293.36 C 550.85 293.97 552.88 294.17 553.77 295.28 C 555.27 297.14 556.16 299.54 557.10 301.80 C 558.59 305.39 557.69 307.58 553.19 307.16 C 561.04 318.75 560.76 328.50 551.32 336.87 C 551.32 334.30 550.71 332.38 551.42 331.41 C 556.72 324.06 555.41 314.23 547.93 309.06 C 544.13 306.44 540.78 303.13 537.46 299.90 C 536.74 299.20 537.04 297.46 536.87 296.20 C 537.97 296.49 539.30 296.49 540.14 297.13 C 543.21 299.48 546.11 302.05 549.07 304.54 C 549.31 304.32 549.54 304.11 549.78 303.89 Z" fill="#000000" fill-rule="nonzero" group-id="1" node-id="162" stroke="none" target-height="43.51001" target-width="24.299988" target-x="536.74" target-y="293.36"></path><path d="M 572.30 338.16 C 571.83 340.39 571.87 341.58 571.35 342.43 C 562.11 357.83 535.52 361.33 522.06 350.68 C 521.67 350.37 521.11 350.11 520.95 349.70 C 520.13 347.60 519.42 345.45 518.68 343.32 C 520.38 344.27 522.32 344.95 523.73 346.22 C 531.01 352.77 539.83 353.42 548.78 352.40 C 556.93 351.47 563.80 347.59 568.83 340.83 C 569.43 340.02 570.48 339.53 572.30 338.16 Z" fill="#000000" fill-rule="nonzero" group-id="1" node-id="164" stroke="none" target-height="23.169983" target-width="53.619995" target-x="518.68" target-y="338.16"></path><path d="M 514.46 289.89 C 508.00 294.86 502.18 299.44 496.23 303.84 C 495.03 304.73 493.35 304.99 491.89 305.54 C 492.23 304.05 492.18 302.30 492.97 301.10 C 497.24 294.52 504.12 291.67 511.09 289.13 C 512.16 288.74 513.71 289.69 514.47 289.88 Z" fill="#000000" fill-rule="nonzero" group-id="1" node-id="166" stroke="none" target-height="16.800018" target-width="22.579956" target-x="491.89" target-y="288.74"></path><path d="M 511.81 311.25 C 513.39 312.43 515.03 313.04 515.57 314.18 C 516.85 316.84 517.86 319.69 518.51 322.57 C 519.07 325.03 516.08 327.35 513.76 326.58 C 510.43 325.47 506.59 317.62 508.11 314.43 C 508.70 313.19 510.34 312.46 511.81 311.25 Z" fill="#000000" fill-rule="nonzero" group-id="1" node-id="168" stroke="none" target-height="16.100006" target-width="12.480011" target-x="506.59" target-y="311.25"></path><path d="M 551.84 279.70 C 545.46 281.69 539.49 283.60 533.48 285.38 C 532.87 285.56 531.73 285.18 531.39 284.68 C 531.03 284.15 531.01 282.87 531.40 282.45 C 532.52 281.26 533.79 279.76 535.25 279.42 C 539.51 278.43 543.88 277.70 548.24 277.40 C 549.51 277.32 550.90 279.05 551.84 279.70 Z" fill="#000000" fill-rule="nonzero" group-id="1" node-id="170" stroke="none" target-height="8.23999" target-width="20.830017" target-x="531.01" target-y="277.32"></path></g></svg>