<?xml version="1.0" standalone="no"?><!DOCTYPE svg PUBLIC "-//W3C//DTD SVG 1.1//EN" "http://www.w3.org/Graphics/SVG/1.1/DTD/svg11.dtd"><svg height="1024" node-id="1" sillyvg="true" template-height="1024" template-width="1024" version="1.1" viewBox="0 0 1024 1024" width="1024" xmlns="http://www.w3.org/2000/svg" xmlns:xlink="http://www.w3.org/1999/xlink"><defs node-id="115"><linearGradient gradientUnits="userSpaceOnUse" id="未命名的渐变_414" node-id="5" spreadMethod="pad" x1="644.18" x2="696.83" y1="242.17" y2="242.17"><stop offset="0" stop-color="#4da6f9"></stop><stop offset="1" stop-color="#0f82f8"></stop></linearGradient><linearGradient gradientUnits="userSpaceOnUse" id="未命名的渐变_414-3" node-id="15" spreadMethod="pad" x1="644.18" x2="682.45" y1="242.89" y2="242.89"><stop offset="0" stop-color="#4da6f9"></stop><stop offset="1" stop-color="#0f82f8"></stop></linearGradient><linearGradient gradientUnits="userSpaceOnUse" id="未命名的渐变_414-4" node-id="16" spreadMethod="pad" x1="649.22" x2="685.17" y1="241.27" y2="241.27"><stop offset="0" stop-color="#4da6f9"></stop><stop offset="1" stop-color="#0f82f8"></stop></linearGradient><linearGradient gradientUnits="userSpaceOnUse" id="未命名的渐变_414-5" node-id="17" spreadMethod="pad" x1="651.94" x2="687.19" y1="240.64" y2="240.64"><stop offset="0" stop-color="#4da6f9"></stop><stop offset="1" stop-color="#0f82f8"></stop></linearGradient><linearGradient gradientUnits="userSpaceOnUse" id="未命名的渐变_414-6" node-id="18" spreadMethod="pad" x1="653.95" x2="688.87" y1="240.36" y2="240.36"><stop offset="0" stop-color="#4da6f9"></stop><stop offset="1" stop-color="#0f82f8"></stop></linearGradient><linearGradient gradientUnits="userSpaceOnUse" id="未命名的渐变_414-7" node-id="19" spreadMethod="pad" x1="655.63" x2="690.34" y1="240.26" y2="240.26"><stop offset="0" stop-color="#4da6f9"></stop><stop offset="1" stop-color="#0f82f8"></stop></linearGradient><linearGradient gradientUnits="userSpaceOnUse" id="未命名的渐变_414-8" node-id="20" spreadMethod="pad" x1="657.1" x2="691.67" y1="240.32" y2="240.32"><stop offset="0" stop-color="#4da6f9"></stop><stop offset="1" stop-color="#0f82f8"></stop></linearGradient><linearGradient gradientUnits="userSpaceOnUse" id="未命名的渐变_414-9" node-id="21" spreadMethod="pad" x1="658.44" x2="692.9" y1="240.49" y2="240.49"><stop offset="0" stop-color="#4da6f9"></stop><stop offset="1" stop-color="#0f82f8"></stop></linearGradient><linearGradient gradientUnits="userSpaceOnUse" id="未命名的渐变_414-10" node-id="22" spreadMethod="pad" x1="659.67" x2="694.04" y1="240.77" y2="240.77"><stop offset="0" stop-color="#4da6f9"></stop><stop offset="1" stop-color="#0f82f8"></stop></linearGradient><linearGradient gradientUnits="userSpaceOnUse" id="未命名的渐变_414-11" node-id="23" spreadMethod="pad" x1="660.81" x2="695.11" y1="241.16" y2="241.16"><stop offset="0" stop-color="#4da6f9"></stop><stop offset="1" stop-color="#0f82f8"></stop></linearGradient><linearGradient gradientUnits="userSpaceOnUse" id="未命名的渐变_414-12" node-id="24" spreadMethod="pad" x1="661.88" x2="696.12" y1="241.65" y2="241.65"><stop offset="0" stop-color="#4da6f9"></stop><stop offset="1" stop-color="#0f82f8"></stop></linearGradient><linearGradient gradientUnits="userSpaceOnUse" id="未命名的渐变_414-13" node-id="25" spreadMethod="pad" x1="662.89" x2="696.83" y1="242.15" y2="242.15"><stop offset="0" stop-color="#4da6f9"></stop><stop offset="1" stop-color="#0f82f8"></stop></linearGradient><linearGradient gradientUnits="userSpaceOnUse" id="未命名的渐变_407" node-id="8" spreadMethod="pad" x1="310.71" x2="305.35" y1="711.04" y2="718.7"><stop offset="0" stop-color="#0084fd"></stop><stop offset="0.52" stop-color="#63bbf9"></stop><stop offset="1" stop-color="#47a0f9"></stop></linearGradient><linearGradient gradientUnits="userSpaceOnUse" id="未命名的渐变_414-14" node-id="28" spreadMethod="pad" x1="493.58" x2="677.42" y1="287.57" y2="287.57"><stop offset="0" stop-color="#4da6f9"></stop><stop offset="1" stop-color="#0f82f8"></stop></linearGradient><linearGradient gradientUnits="userSpaceOnUse" id="未命名的渐变_414-15" node-id="29" spreadMethod="pad" x1="448.28" x2="526.82" y1="320.25" y2="320.25"><stop offset="0" stop-color="#4da6f9"></stop><stop offset="1" stop-color="#0f82f8"></stop></linearGradient><linearGradient gradientUnits="userSpaceOnUse" id="未命名的渐变_26" node-id="30" spreadMethod="pad" x1="291.41" x2="335.7" y1="563.43" y2="563.43"><stop offset="0" stop-color="#0089ff"></stop><stop offset="1" stop-color="#0070f3"></stop></linearGradient><linearGradient gradientUnits="userSpaceOnUse" id="未命名的渐变_414-16" node-id="33" spreadMethod="pad" x1="333.92" x2="481.51" y1="342.47" y2="342.47"><stop offset="0" stop-color="#4da6f9"></stop><stop offset="1" stop-color="#0f82f8"></stop></linearGradient><linearGradient gradientUnits="userSpaceOnUse" id="未命名的渐变_407-2" node-id="12" spreadMethod="pad" x1="323.01" x2="353.65" y1="416.07" y2="360.92"><stop offset="0" stop-color="#0084fd"></stop><stop offset="0.52" stop-color="#63bbf9"></stop><stop offset="1" stop-color="#47a0f9"></stop></linearGradient><linearGradient gradientUnits="userSpaceOnUse" id="未命名的渐变_407-6" node-id="36" spreadMethod="pad" x1="322.33" x2="352.97" y1="415.69" y2="360.54"><stop offset="0" stop-color="#0084fd"></stop><stop offset="0.52" stop-color="#63bbf9"></stop><stop offset="1" stop-color="#47a0f9"></stop></linearGradient><linearGradient gradientUnits="userSpaceOnUse" id="未命名的渐变_407-7" node-id="37" spreadMethod="pad" x1="320.8" x2="351.43" y1="414.84" y2="359.69"><stop offset="0" stop-color="#0084fd"></stop><stop offset="0.52" stop-color="#63bbf9"></stop><stop offset="1" stop-color="#47a0f9"></stop></linearGradient><linearGradient gradientUnits="userSpaceOnUse" id="未命名的渐变_407-8" node-id="38" spreadMethod="pad" x1="320.14" x2="350.77" y1="414.47" y2="359.33"><stop offset="0" stop-color="#0084fd"></stop><stop offset="0.52" stop-color="#63bbf9"></stop><stop offset="1" stop-color="#47a0f9"></stop></linearGradient><linearGradient gradientUnits="userSpaceOnUse" id="未命名的渐变_407-9" node-id="39" spreadMethod="pad" x1="319.73" x2="350.36" y1="414.24" y2="359.1"><stop offset="0" stop-color="#0084fd"></stop><stop offset="0.52" stop-color="#63bbf9"></stop><stop offset="1" stop-color="#47a0f9"></stop></linearGradient><linearGradient gradientUnits="userSpaceOnUse" id="未命名的渐变_407-10" node-id="40" spreadMethod="pad" x1="319.46" x2="350.1" y1="414.1" y2="358.95"><stop offset="0" stop-color="#0084fd"></stop><stop offset="0.52" stop-color="#63bbf9"></stop><stop offset="1" stop-color="#47a0f9"></stop></linearGradient><linearGradient gradientUnits="userSpaceOnUse" id="未命名的渐变_407-11" node-id="41" spreadMethod="pad" x1="319.31" x2="349.94" y1="414.01" y2="358.86"><stop offset="0" stop-color="#0084fd"></stop><stop offset="0.52" stop-color="#63bbf9"></stop><stop offset="1" stop-color="#47a0f9"></stop></linearGradient><linearGradient gradientUnits="userSpaceOnUse" id="未命名的渐变_407-12" node-id="42" spreadMethod="pad" x1="319.23" x2="349.87" y1="413.97" y2="358.82"><stop offset="0" stop-color="#0084fd"></stop><stop offset="0.52" stop-color="#63bbf9"></stop><stop offset="1" stop-color="#47a0f9"></stop></linearGradient><linearGradient gradientUnits="userSpaceOnUse" id="未命名的渐变_407-13" node-id="43" spreadMethod="pad" x1="319.24" x2="349.87" y1="413.97" y2="358.83"><stop offset="0" stop-color="#0084fd"></stop><stop offset="0.52" stop-color="#63bbf9"></stop><stop offset="1" stop-color="#47a0f9"></stop></linearGradient><linearGradient gradientUnits="userSpaceOnUse" id="未命名的渐变_407-14" node-id="44" spreadMethod="pad" x1="319.31" x2="349.95" y1="414.01" y2="358.87"><stop offset="0" stop-color="#0084fd"></stop><stop offset="0.52" stop-color="#63bbf9"></stop><stop offset="1" stop-color="#47a0f9"></stop></linearGradient><linearGradient gradientUnits="userSpaceOnUse" id="未命名的渐变_407-15" node-id="45" spreadMethod="pad" x1="319.46" x2="350.1" y1="414.1" y2="358.95"><stop offset="0" stop-color="#0084fd"></stop><stop offset="0.52" stop-color="#63bbf9"></stop><stop offset="1" stop-color="#47a0f9"></stop></linearGradient><linearGradient gradientUnits="userSpaceOnUse" id="未命名的渐变_407-16" node-id="46" spreadMethod="pad" x1="319.68" x2="350.32" y1="414.22" y2="359.07"><stop offset="0" stop-color="#0084fd"></stop><stop offset="0.52" stop-color="#63bbf9"></stop><stop offset="1" stop-color="#47a0f9"></stop></linearGradient><linearGradient gradientUnits="userSpaceOnUse" id="未命名的渐变_407-17" node-id="47" spreadMethod="pad" x1="319.98" x2="350.62" y1="414.39" y2="359.24"><stop offset="0" stop-color="#0084fd"></stop><stop offset="0.52" stop-color="#63bbf9"></stop><stop offset="1" stop-color="#47a0f9"></stop></linearGradient><linearGradient gradientUnits="userSpaceOnUse" id="未命名的渐变_407-18" node-id="48" spreadMethod="pad" x1="320.38" x2="351.01" y1="414.61" y2="359.46"><stop offset="0" stop-color="#0084fd"></stop><stop offset="0.52" stop-color="#63bbf9"></stop><stop offset="1" stop-color="#47a0f9"></stop></linearGradient><linearGradient gradientUnits="userSpaceOnUse" id="未命名的渐变_407-19" node-id="49" spreadMethod="pad" x1="320.89" x2="351.52" y1="414.89" y2="359.74"><stop offset="0" stop-color="#0084fd"></stop><stop offset="0.52" stop-color="#63bbf9"></stop><stop offset="1" stop-color="#47a0f9"></stop></linearGradient><linearGradient gradientUnits="userSpaceOnUse" id="未命名的渐变_407-20" node-id="50" spreadMethod="pad" x1="321.56" x2="352.2" y1="415.26" y2="360.12"><stop offset="0" stop-color="#0084fd"></stop><stop offset="0.52" stop-color="#63bbf9"></stop><stop offset="1" stop-color="#47a0f9"></stop></linearGradient><linearGradient gradientUnits="userSpaceOnUse" id="未命名的渐变_407-21" node-id="51" spreadMethod="pad" x1="322.54" x2="353.17" y1="415.81" y2="360.66"><stop offset="0" stop-color="#0084fd"></stop><stop offset="0.52" stop-color="#63bbf9"></stop><stop offset="1" stop-color="#47a0f9"></stop></linearGradient><linearGradient gradientUnits="userSpaceOnUse" id="未命名的渐变_407-22" node-id="52" spreadMethod="pad" x1="324.97" x2="355.61" y1="417.16" y2="362.01"><stop offset="0" stop-color="#0084fd"></stop><stop offset="0.52" stop-color="#63bbf9"></stop><stop offset="1" stop-color="#47a0f9"></stop></linearGradient><linearGradient gradientUnits="userSpaceOnUse" id="未命名的渐变_433" node-id="53" spreadMethod="pad" x1="324.62" x2="701.93" y1="492.72" y2="492.72"><stop offset="0" stop-color="#4ca3f9"></stop><stop offset="1" stop-color="#0070f3"></stop></linearGradient><clipPath id="clip-path" node-id="13"><path d="M 663.60 230.31 L 696.84 254.48 C 692.39 251.24 685.41 251.57 677.43 256.18 L 644.18 232.00 C 652.17 227.40 659.15 227.07 663.60 230.31 Z" fill="#000000" fill-rule="nonzero" node-id="372" stroke="none" target-height="29.109985" target-width="52.660034" target-x="644.18" target-y="227.07"></path></clipPath><clipPath id="clip-path-2" node-id="26"><path d="M 330.66 730.54 L 297.42 706.37 C 293.42 703.44 291.11 698.05 291.42 690.60 L 324.66 714.77 C 324.35 722.23 326.63 727.61 330.66 730.54 Z" fill="#000000" fill-rule="nonzero" node-id="376" stroke="none" target-height="39.940002" target-width="39.55002" target-x="291.11" target-y="690.6"></path></clipPath><clipPath id="clip-path-3" node-id="34"><path d="M 335.70 436.26 L 302.46 412.09 C 303.14 394.91 317.31 372.98 333.92 363.39 L 367.16 387.56 C 350.55 397.15 336.38 419.08 335.70 436.26 Z" fill="#000000" fill-rule="nonzero" node-id="380" stroke="none" target-height="72.869995" target-width="64.70001" target-x="302.46" target-y="363.39"></path></clipPath></defs><g node-id="505"><path d="M 307.76 781.46 L 361.26 813.18 L 718.79 599.87 L 665.49 568.02 L 307.76 781.46 Z" fill="#0f82f8" fill-opacity="0.32" fill-rule="nonzero" group-id="1" node-id="386" stroke="none" target-height="245.15997" target-width="411.02997" target-x="307.76" target-y="568.02"></path></g><path d="M 663.60 230.31 L 696.84 254.48 C 692.39 251.24 685.41 251.57 677.43 256.18 L 644.18 232.00 C 652.17 227.40 659.15 227.07 663.60 230.31 Z" fill="url(#未命名的渐变_414)" fill-rule="nonzero" node-id="389" stroke="none" target-height="29.109985" target-width="52.660034" target-x="644.18" target-y="227.07"></path><g clip-path="url(#clip-path)" group-id="2" id="sillyvg_g_1" node-id="393"><path d="M 677.42 256.18 L 644.18 232.00 C 645.78 231.06 647.45 230.26 649.18 229.60 L 682.42 253.77 C 680.69 254.43 679.02 255.23 677.42 256.17" fill="url(#未命名的渐变_414-3)" fill-rule="nonzero" group-id="2,5" node-id="395" stroke="none" target-height="26.579987" target-width="38.23999" target-x="644.18" target-y="229.6"></path><path d="M 682.45 253.78 L 649.21 229.61 C 650.10 229.28 651.01 228.99 651.93 228.76 L 685.17 252.93 C 684.25 253.16 683.34 253.45 682.45 253.78" fill="url(#未命名的渐变_414-4)" fill-rule="nonzero" group-id="2,5" node-id="397" stroke="none" target-height="25.020004" target-width="35.95996" target-x="649.21" target-y="228.76"></path><path d="M 685.17 252.93 L 651.93 228.76 C 652.60 228.59 653.26 228.45 653.93 228.36 L 687.17 252.53 C 686.50 252.63 685.84 252.76 685.17 252.93" fill="url(#未命名的渐变_414-5)" fill-rule="nonzero" group-id="2,5" node-id="399" stroke="none" target-height="24.569992" target-width="35.23999" target-x="651.93" target-y="228.36"></path><path d="M 687.19 252.53 L 654.00 228.36 C 654.57 228.27 655.13 228.22 655.68 228.19 L 688.92 252.36 C 688.37 252.36 687.81 252.42 687.24 252.53" fill="url(#未命名的渐变_414-6)" fill-rule="nonzero" group-id="2,5" node-id="401" stroke="none" target-height="24.339996" target-width="34.919983" target-x="654" target-y="228.19"></path><path d="M 688.87 252.36 L 655.63 228.19 C 656.13 228.19 656.62 228.19 657.10 228.19 L 690.34 252.36 C 689.86 252.36 689.37 252.36 688.87 252.36" fill="url(#未命名的渐变_414-7)" fill-rule="nonzero" group-id="2,5" node-id="403" stroke="none" target-height="24.169998" target-width="34.710022" target-x="655.63" target-y="228.19"></path><path d="M 690.34 252.35 L 657.10 228.18 C 657.55 228.18 658.00 228.22 658.43 228.30 L 691.67 252.47 C 691.24 252.41 690.79 252.37 690.34 252.35" fill="url(#未命名的渐变_414-8)" fill-rule="nonzero" group-id="2,5" node-id="405" stroke="none" target-height="24.290009" target-width="34.570007" target-x="657.1" target-y="228.18"></path><path d="M 691.67 252.47 L 658.43 228.30 C 658.85 228.36 659.26 228.44 659.66 228.53 L 692.90 252.70 C 692.50 252.61 692.09 252.53 691.67 252.47" fill="url(#未命名的渐变_414-9)" fill-rule="nonzero" group-id="2,5" node-id="407" stroke="none" target-height="24.399994" target-width="34.47003" target-x="658.43" target-y="228.3"></path><path d="M 692.90 252.69 L 659.66 228.52 C 660.05 228.61 660.43 228.72 660.80 228.85 L 694.00 253.00 C 693.63 252.87 693.25 252.76 692.86 252.67" fill="url(#未命名的渐变_414-10)" fill-rule="nonzero" group-id="2,5" node-id="409" stroke="none" target-height="24.479996" target-width="34.340027" target-x="659.66" target-y="228.52"></path><path d="M 694.00 253.00 L 660.76 228.83 C 661.12 228.95 661.48 229.10 661.83 229.26 L 695.07 253.43 C 694.72 253.27 694.36 253.12 694.00 253.00" fill="url(#未命名的渐变_414-11)" fill-rule="nonzero" group-id="2,5" node-id="411" stroke="none" target-height="24.59999" target-width="34.309998" target-x="660.76" target-y="228.83"></path><path d="M 695.11 253.46 L 661.87 229.29 C 662.21 229.45 662.55 229.63 662.87 229.83 L 696.12 254.00 C 695.80 253.80 695.46 253.62 695.12 253.46" fill="url(#未命名的渐变_414-12)" fill-rule="nonzero" group-id="2,5" node-id="413" stroke="none" target-height="24.710007" target-width="34.25" target-x="661.87" target-y="229.29"></path><path d="M 696.12 254.00 L 662.88 229.83 C 663.12 229.98 663.36 230.13 663.59 230.30 L 696.83 254.47 C 696.60 254.30 696.37 254.15 696.12 254.00" fill="url(#未命名的渐变_414-13)" fill-rule="nonzero" group-id="2,5" node-id="415" stroke="none" target-height="24.64" target-width="33.950012" target-x="662.88" target-y="229.83"></path></g><path d="M 330.66 730.54 L 297.42 706.37 C 293.42 703.44 291.11 698.05 291.42 690.60 L 324.66 714.77 C 324.35 722.23 326.63 727.61 330.66 730.54 Z" fill="url(#未命名的渐变_407)" fill-rule="nonzero" node-id="419" stroke="none" target-height="39.940002" target-width="39.55002" target-x="291.11" target-y="690.6"></path><g clip-path="url(#clip-path-2)" group-id="3" id="sillyvg_g_3" node-id="423"><path d="M 330.66 730.54 L 297.42 706.37 C 293.42 703.44 291.11 698.05 291.42 690.60 L 324.66 714.77 C 324.36 722.22 326.66 727.61 330.66 730.54" fill="url(#未命名的渐变_407)" fill-rule="nonzero" group-id="3,6" node-id="425" stroke="none" target-height="39.940002" target-width="39.55002" target-x="291.11" target-y="690.6"></path></g><path d="M 526.82 343.13 L 493.58 318.96 L 644.18 232.01 L 677.42 256.18 L 526.82 343.13 Z" fill="url(#未命名的渐变_414-14)" fill-rule="nonzero" node-id="429" stroke="none" target-height="111.12001" target-width="183.84" target-x="493.58" target-y="232.01"></path><path d="M 481.51 321.54 L 448.28 297.37 L 493.58 318.96 L 526.82 343.13 L 481.51 321.54 Z" fill="url(#未命名的渐变_414-15)" fill-rule="nonzero" node-id="431" stroke="none" target-height="45.76001" target-width="78.54001" target-x="448.28" target-y="297.37"></path><path d="M 324.64 714.78 L 291.41 690.60 L 302.46 412.09 L 335.70 436.26 L 324.64 714.78 Z" fill="url(#未命名的渐变_26)" fill-rule="nonzero" node-id="433" stroke="none" target-height="302.69003" target-width="44.29001" target-x="291.41" target-y="412.09"></path><path d="M 367.16 387.56 L 333.92 363.39 L 448.28 297.37 L 481.51 321.54 L 367.16 387.56 Z" fill="url(#未命名的渐变_414-16)" fill-rule="nonzero" node-id="435" stroke="none" target-height="90.19" target-width="147.59" target-x="333.92" target-y="297.37"></path><path d="M 335.70 436.26 L 302.46 412.09 C 303.14 394.91 317.31 372.98 333.92 363.39 L 367.16 387.56 C 350.55 397.15 336.38 419.08 335.70 436.26 Z" fill="url(#未命名的渐变_407-2)" fill-rule="nonzero" node-id="437" stroke="none" target-height="72.869995" target-width="64.70001" target-x="302.46" target-y="363.39"></path><g clip-path="url(#clip-path-3)" group-id="4" id="sillyvg_g_5" node-id="441"><path d="M 335.70 436.26 L 302.46 412.09 C 302.56 409.73 302.88 407.39 303.40 405.09 L 336.64 429.26 C 336.12 431.56 335.80 433.90 335.70 436.26" fill="url(#未命名的渐变_407-6)" fill-rule="nonzero" group-id="4,7" node-id="443" stroke="none" target-height="31.170013" target-width="34.180023" target-x="302.46" target-y="405.09"></path><path d="M 336.64 429.29 L 303.40 405.12 C 303.67 403.89 304.01 402.66 304.40 401.41 L 337.64 425.58 C 337.26 426.83 336.93 428.06 336.64 429.29" fill="url(#未命名的渐变_407-7)" fill-rule="nonzero" group-id="4,7" node-id="445" stroke="none" target-height="27.880005" target-width="34.24002" target-x="303.4" target-y="401.41"></path><path d="M 337.62 425.57 L 304.39 401.40 C 304.69 400.42 305.02 399.44 305.39 398.46 L 338.63 422.63 C 338.27 423.61 337.94 424.59 337.63 425.57" fill="url(#未命名的渐变_407-8)" fill-rule="nonzero" group-id="4,7" node-id="447" stroke="none" target-height="27.110016" target-width="34.23999" target-x="304.39" target-y="398.46"></path><path d="M 338.61 422.63 L 305.37 398.46 C 305.69 397.59 306.02 396.72 306.37 395.85 L 339.64 420.00 C 339.27 420.87 338.94 421.74 338.64 422.61" fill="url(#未命名的渐变_407-9)" fill-rule="nonzero" group-id="4,7" node-id="449" stroke="none" target-height="26.779999" target-width="34.27002" target-x="305.37" target-y="395.85"></path><path d="M 339.64 420.00 L 306.40 395.85 C 306.73 395.05 307.09 394.25 307.46 393.45 L 340.70 417.62 C 340.33 418.42 339.97 419.22 339.64 420.02" fill="url(#未命名的渐变_407-10)" fill-rule="nonzero" group-id="4,7" node-id="451" stroke="none" target-height="26.569977" target-width="34.30002" target-x="306.4" target-y="393.45"></path><path d="M 340.70 417.62 L 307.46 393.45 C 307.81 392.69 308.19 391.93 308.58 391.18 L 341.82 415.35 C 341.43 416.10 341.06 416.86 340.70 417.62" fill="url(#未命名的渐变_407-11)" fill-rule="nonzero" group-id="4,7" node-id="453" stroke="none" target-height="26.440002" target-width="34.360016" target-x="307.46" target-y="391.18"></path><path d="M 341.82 415.35 L 308.58 391.18 C 308.96 390.45 309.35 389.72 309.75 388.99 L 343.00 413.16 C 342.59 413.89 342.20 414.62 341.83 415.35" fill="url(#未命名的渐变_407-12)" fill-rule="nonzero" group-id="4,7" node-id="455" stroke="none" target-height="26.360016" target-width="34.420013" target-x="308.58" target-y="388.99"></path><path d="M 343.00 413.16 L 309.76 389.00 C 310.16 388.29 310.57 387.58 311.00 386.87 L 344.23 411.00 C 343.80 411.71 343.39 412.42 342.99 413.13" fill="url(#未命名的渐变_407-13)" fill-rule="nonzero" group-id="4,7" node-id="457" stroke="none" target-height="26.290009" target-width="34.47" target-x="309.76" target-y="386.87"></path><path d="M 344.23 411.00 L 311.00 386.86 C 311.42 386.19 311.85 385.50 312.30 384.78 L 345.54 408.95 C 345.09 409.62 344.66 410.31 344.24 411.03" fill="url(#未命名的渐变_407-14)" fill-rule="nonzero" group-id="4,7" node-id="459" stroke="none" target-height="26.25" target-width="34.54001" target-x="311" target-y="384.78"></path><path d="M 345.53 408.95 L 312.30 384.78 C 312.75 384.11 313.21 383.43 313.68 382.72 L 346.92 406.89 C 346.45 407.56 345.99 408.24 345.54 408.95" fill="url(#未命名的渐变_407-15)" fill-rule="nonzero" group-id="4,7" node-id="461" stroke="none" target-height="26.230011" target-width="34.620026" target-x="312.3" target-y="382.72"></path><path d="M 346.92 406.89 L 313.68 382.72 C 314.16 382.05 314.65 381.37 315.16 380.66 L 348.40 404.83 C 347.89 405.50 347.40 406.18 346.92 406.89" fill="url(#未命名的渐变_407-16)" fill-rule="nonzero" group-id="4,7" node-id="463" stroke="none" target-height="26.230011" target-width="34.72" target-x="313.68" target-y="380.66"></path><path d="M 348.40 404.83 L 315.16 380.66 C 315.68 379.99 316.21 379.30 316.76 378.59 L 350.00 402.77 C 349.45 403.44 348.92 404.13 348.40 404.84" fill="url(#未命名的渐变_407-17)" fill-rule="nonzero" group-id="4,7" node-id="465" stroke="none" target-height="26.25" target-width="34.839996" target-x="315.16" target-y="378.59"></path><path d="M 350.00 402.77 L 316.76 378.60 C 317.33 377.89 317.92 377.19 318.51 376.50 L 351.75 400.67 C 351.16 401.34 350.57 402.04 350.00 402.77" fill="url(#未命名的渐变_407-18)" fill-rule="nonzero" group-id="4,7" node-id="467" stroke="none" target-height="26.269989" target-width="34.98999" target-x="316.76" target-y="376.5"></path><path d="M 351.75 400.66 L 318.51 376.49 C 319.18 375.74 319.84 375.01 320.51 374.30 L 353.75 398.47 C 353.08 399.18 352.42 399.91 351.75 400.66" fill="url(#未命名的渐变_407-19)" fill-rule="nonzero" group-id="4,7" node-id="469" stroke="none" target-height="26.360016" target-width="35.23999" target-x="318.51" target-y="374.3"></path><path d="M 353.71 398.47 L 320.48 374.30 C 321.25 373.48 322.03 372.69 322.82 371.92 L 356.06 396.09 C 355.27 396.86 354.49 397.66 353.72 398.47" fill="url(#未命名的渐变_407-20)" fill-rule="nonzero" group-id="4,7" node-id="471" stroke="none" target-height="26.549988" target-width="35.579987" target-x="320.48" target-y="371.92"></path><path d="M 356.06 396.09 L 322.82 371.92 C 323.83 370.94 324.87 370.00 325.93 369.09 L 359.17 393.26 C 358.12 394.16 357.08 395.10 356.06 396.09" fill="url(#未命名的渐变_407-21)" fill-rule="nonzero" group-id="4,7" node-id="473" stroke="none" target-height="27" target-width="36.350006" target-x="322.82" target-y="369.09"></path><path d="M 359.16 393.26 L 325.92 369.09 C 328.41 366.95 331.09 365.04 333.92 363.39 L 367.16 387.56 C 364.33 389.21 361.65 391.12 359.16 393.26" fill="url(#未命名的渐变_407-22)" fill-rule="nonzero" group-id="4,7" node-id="475" stroke="none" target-height="29.869995" target-width="41.23999" target-x="325.92" target-y="363.39"></path></g><path d="M 677.42 256.18 C 691.51 248.04 702.49 253.25 701.91 267.85 L 692.60 502.34 C 691.92 519.54 677.75 541.45 661.13 551.05 L 353.62 728.58 C 337.01 738.17 323.96 731.97 324.62 714.77 L 335.70 436.26 C 336.38 419.08 350.55 397.15 367.16 387.56 L 481.52 321.56 L 526.82 343.15 Z" fill="url(#未命名的渐变_433)" fill-rule="nonzero" node-id="479" stroke="none" target-height="490.13" target-width="378.53" target-x="323.96" target-y="248.04"></path><path d="M 461.96 517.25 L 449.69 508.32 L 449.69 474.11 L 461.96 483.03 L 461.96 517.25 Z" fill="#8bbdea" fill-rule="nonzero" node-id="481" stroke="none" target-height="43.140015" target-width="12.269989" target-x="449.69" target-y="474.11"></path><path d="M 461.96 483.03 L 449.69 474.11 L 671.28 345.97 L 683.56 354.89 L 461.96 483.03 Z" fill="#b6dcff" fill-rule="nonzero" node-id="483" stroke="none" target-height="137.06" target-width="233.87" target-x="449.69" target-y="345.97"></path><path d="M 683.56 354.89 L 683.56 389.11 L 461.96 517.25 L 461.96 483.03 L 683.56 354.89 Z" fill="#ffffff" fill-rule="nonzero" node-id="485" stroke="none" target-height="162.35999" target-width="221.6" target-x="461.96" target-y="354.89"></path><path d="M 399.62 552.04 L 387.35 543.11 L 387.35 508.90 L 399.62 517.82 L 399.62 552.04 Z" fill="#8bbdea" fill-rule="nonzero" node-id="487" stroke="none" target-height="43.139984" target-width="12.269989" target-x="387.35" target-y="508.9"></path><path d="M 399.62 517.82 L 387.35 508.90 L 425.72 487.02 L 437.99 495.94 L 399.62 517.82 Z" fill="#b6dcff" fill-rule="nonzero" node-id="489" stroke="none" target-height="30.800018" target-width="50.639984" target-x="387.35" target-y="487.02"></path><path d="M 437.99 495.94 L 437.99 530.16 L 399.62 552.04 L 399.62 517.82 L 437.99 495.94 Z" fill="#ffffff" fill-rule="nonzero" node-id="491" stroke="none" target-height="56.099976" target-width="38.369995" target-x="399.62" target-y="495.94"></path><path d="M 461.96 611.36 L 449.69 602.43 L 449.69 568.22 L 461.96 577.14 L 461.96 611.36 Z" fill="#8bbdea" fill-rule="nonzero" node-id="493" stroke="none" target-height="43.140015" target-width="12.269989" target-x="449.69" target-y="568.22"></path><path d="M 461.96 577.14 L 449.69 568.22 L 671.28 440.08 L 683.56 449.00 L 461.96 577.14 Z" fill="#b6dcff" fill-rule="nonzero" node-id="495" stroke="none" target-height="137.06003" target-width="233.87" target-x="449.69" target-y="440.08"></path><path d="M 683.56 449.00 L 683.56 483.22 L 461.96 611.36 L 461.96 577.14 L 683.56 449.00 Z" fill="#ffffff" fill-rule="nonzero" node-id="497" stroke="none" target-height="162.35999" target-width="221.6" target-x="461.96" target-y="449"></path><path d="M 399.62 646.15 L 387.35 637.22 L 387.35 603.01 L 399.62 611.93 L 399.62 646.15 Z" fill="#8bbdea" fill-rule="nonzero" node-id="499" stroke="none" target-height="43.140015" target-width="12.269989" target-x="387.35" target-y="603.01"></path><path d="M 399.62 611.93 L 387.35 603.01 L 425.72 581.13 L 437.99 590.05 L 399.62 611.93 Z" fill="#b6dcff" fill-rule="nonzero" node-id="501" stroke="none" target-height="30.799988" target-width="50.639984" target-x="387.35" target-y="581.13"></path><path d="M 437.99 590.05 L 437.99 624.27 L 399.62 646.15 L 399.62 611.93 L 437.99 590.05 Z" fill="#ffffff" fill-rule="nonzero" node-id="503" stroke="none" target-height="56.100037" target-width="38.369995" target-x="399.62" target-y="590.05"></path></svg>