<svg xmlns="http://www.w3.org/2000/svg" class="icon" style="width: 1em;height: 1em;vertical-align: middle;fill: currentColor;overflow: hidden;" viewBox="0 0 1024 1024" version="1.1" width="1024" height="1024"><path d="M0 0m170.666667 0l682.666666 0q170.666667 0 170.666667 170.666667l0 682.666666q0 170.666667-170.666667 170.666667l-682.666666 0q-170.666667 0-170.666667-170.666667l0-682.666666q0-170.666667 170.666667-170.666667Z" fill="#FFFFFF" fill-opacity=".01"/><path d="M463.232 237.525333L229.973333 334.677333l-19.456 8.106667v337.066667l233.344 97.152 19.413334 8.106666 107.093333-44.586666a142.421333 142.421333 0 0 1-19.328-34.090667l-68.309333 28.501333V465.92l194.432-80.981333v126.506666c2.133333-0.085333 4.266667-0.170667 6.485333-0.170666 11.093333 0 21.973333 1.28 32.384 3.712V342.826667l-252.757333-105.301334z m-213.845333 416.341334V384.981333l194.432 80.981334v268.970666l-194.432-81.066666z m31.104-298.069334l182.741333-76.16 182.741333 76.16-182.741333 76.117334L280.490667 355.84z" fill="#161C1F"/><path d="M701.141333 553.386667a21.333333 21.333333 0 0 1 21.333334 21.333333v69.930667h69.973333a21.333333 21.333333 0 1 1 0 42.666666h-69.973333v69.888a21.333333 21.333333 0 1 1-42.666667 0V687.36h-69.930667a21.333333 21.333333 0 1 1 0-42.666667h69.973334v-69.973333a21.333333 21.333333 0 0 1 21.333333-21.333333z" fill="#161C1F"/></svg>