<svg xmlns="http://www.w3.org/2000/svg" class="icon" style="width: 1em;height: 1em;vertical-align: middle;fill: currentColor;overflow: hidden;" viewBox="0 0 1024 1024" version="1.1" width="1024" height="1024"><path d="M713.96864 293.64224a34.6368 34.6368 0 0 1-69.26848 0c0-88.70912-72.16128-160.8704-160.88064-160.8704-88.70912 0-160.87552 72.16128-160.87552 160.8704a34.6368 34.6368 0 0 1-69.25824 0c0-126.90432 103.22944-230.12864 230.12864-230.12864 126.9248-0.01024 230.15424 103.2192 230.15424 230.12864z" fill="#515151"/><path d="M191.26784 866.24768V281.1136h585.14432v360.59648c1.66912-0.04608 3.33312-0.11776 5.01248-0.11776 22.64064 0 44.27264 4.21888 64.23552 11.85792V272.66048c0-33.52064-27.27936-60.8-60.8-60.8H182.82496c-33.536 0-60.81024 27.27936-60.81024 60.8v602.01984c0 33.55136 27.27424 60.83072 60.81024 60.83072h459.74016a179.18464 179.18464 0 0 1-35.2512-69.25824H191.26784v-0.00512z" fill="#515151"/><path d="M990.3616 613.90848a29.6448 29.6448 0 0 0-41.87136-0.02048l-85.01248 84.99712c-0.9728 0.98304-1.7408 2.07872-2.54976 3.11296a139.73504 139.73504 0 0 0-76.54912-22.72768c-77.66016 0-140.60032 62.93504-140.60032 140.60032 0 77.63968 62.94528 140.6208 140.60032 140.6208 77.67552 0 140.60544-62.98112 140.60544-140.6208 0-28.24704-8.40704-54.528-22.7584-76.59008 1.06496-0.79872 2.1248-1.54112 3.10272-2.5088l85.0176-85.01248a29.45536 29.45536 0 0 0 8.66304-20.92032 29.44 29.44 0 0 0-8.64768-20.93056z m-205.98272 302.1824c-53.02784 0-96.22016-43.18208-96.22016-96.22016 0-53.02784 43.19232-96.19968 96.22016-96.19968 53.03808 0 96.19968 43.17184 96.19968 96.19968 0 53.03808-43.14624 96.22016-96.19968 96.22016z" fill="#515151"/><path d="M509.72672 798.39232H302.59712c-15.52896 0-25.89184-10.34752-25.89184-25.89184 0-15.52896 10.35264-25.88672 25.89184-25.88672h207.11936c15.53408 0 25.89184 10.34752 25.89184 25.88672s-10.34752 25.89184-25.8816 25.89184zM276.7104 617.1648c0-15.53408 10.35264-25.89696 25.89696-25.89696h155.3408c15.52896 0 25.89184 10.35264 25.89184 25.89696s-10.35776 25.89696-25.89184 25.89696h-155.3408c-15.5392 0-25.89696-10.36288-25.89696-25.89696zM665.0624 487.71584H302.59712c-15.52896 0-25.89184-10.35776-25.89184-25.89184 0-15.53408 10.35264-25.89184 25.89184-25.89184h362.46016c15.52896 0 25.89184 10.35264 25.89184 25.89184 0 15.52896-10.34752 25.89184-25.88672 25.89184z" fill="#575757"/></svg>