<svg xmlns="http://www.w3.org/2000/svg" class="icon" style="width: 1em;height: 1em;vertical-align: middle;fill: currentColor;overflow: hidden;" viewBox="0 0 1024 1024" version="1.1" width="1024" height="1024"><path d="M636.3 844.2H284.9c-86.4 0-157-70.7-157-157V220.6c0-86.4 70.7-157 157-157h351.4c86.4 0 157 70.7 157 157v466.6c0 86.4-70.6 157-157 157z" fill="#D6F3FA"/><path d="M541.5 761.5c-109.3 0-197.9-88.6-197.9-197.9s88.6-197.9 197.9-197.9 197.9 88.6 197.9 197.9-88.6 197.9-197.9 197.9z m356.3-518V828c0 72.6-58.9 131.5-131.5 131.5H316.7c-72.6 0-131.5-58.9-131.5-131.5v-89.3c0-13 10.5-23.5 23.5-23.5s23.5 10.5 23.5 23.5V828c0 46.6 37.8 84.4 84.4 84.4h449.7c46.6 0 84.4-37.8 84.4-84.4V243.5c0-46.6-37.8-84.4-84.4-84.4H715v45c0 33.1-26.9 60-60 60H428c-33.1 0-60-26.9-60-60v-45h-51.3c-46.6 0-84.4 37.8-84.4 84.4v329.8c0 13-10.5 23.5-23.5 23.5s-23.5-10.5-23.5-23.5V243.5c0-72.6 58.9-131.5 131.5-131.5h449.7c72.5 0 131.3 58.9 131.3 131.5z m-224.1-84.4H409.3v45c0 10.3 8.4 18.7 18.7 18.7h227.1c10.3 0 18.7-8.4 18.7-18.7v-45zM208.8 691.8c12.9 0 23.5-10.6 23.5-23.5v-23.5c0-12.9-10.6-23.5-23.5-23.5-13 0-23.5 10.6-23.5 23.5v23.5c-0.1 12.9 10.5 23.5 23.5 23.5z" fill="#18BAE5"/><path d="M531.6 654.7c-8.1 8.1-21.5 8.1-29.6 0l-83.5-83.5c-8.1-8.1-8.1-21.5 0-29.6 8.1-8.1 21.5-8.1 29.6 0l83.5 83.5c8.1 8.1 8.1 21.5 0 29.6z" fill="#FFFFFF"/><path d="M502 654.7c-8.1-8.1-8.1-21.5 0-29.6l145.7-145.7c8.1-8.1 21.5-8.1 29.6 0 8.1 8.1 8.1 21.5 0 29.6L531.6 654.7c-8.1 8.1-21.5 8.1-29.6 0z" fill="#FFFFFF"/></svg>