<svg xmlns="http://www.w3.org/2000/svg" class="icon" style="width: 1em;height: 1em;vertical-align: middle;fill: currentColor;overflow: hidden;" viewBox="0 0 1024 1024" version="1.1" width="1024" height="1024"><path d="M453.0176 188.8256a76.8 76.8 0 0 1 78.2336-77.824 77.824 77.824 0 0 1 77.824 77.2096A78.848 78.848 0 0 1 531.0464 266.24a77.824 77.824 0 0 1-78.0288-77.4144zM957.0304 894.1568a10.8544 10.8544 0 0 0-7.7824-3.2768h-53.4528c-6.5536-6.5536-17.8176-11.4688-24.1664-22.3232-36.4544-60.416-78.6432-145.2032-163.84-206.6432a4.9152 4.9152 0 0 0-1.2288-6.5536l-10.24-7.168a4.9152 4.9152 0 0 0-6.7584 1.4336l-1.8432 3.072-46.8992-43.2128 1.4336-2.2528a8.6016 8.6016 0 0 0-2.4576-11.6736l-18.6368-12.0832a8.6016 8.6016 0 0 0-11.6736 2.4576l-3.072 4.7104-1.8432-1.2288a13.5168 13.5168 0 0 1 0-5.5296 66.9696 66.9696 0 0 0-12.288-56.7296 263.5776 263.5776 0 0 1-49.5616-132.7104 120.832 120.832 0 0 0-12.0832-58.1632 148.48 148.48 0 0 0-139.4688-73.3184 329.3184 329.3184 0 0 0-163.84 63.6928 63.2832 63.2832 0 0 0-12.9024 13.7216 18.6368 18.6368 0 0 0-1.2288 21.9136c14.1312 26.8288 26.8288 54.272 40.96 80.6912a31.1296 31.1296 0 0 1 1.2288 29.9008c-52.224 122.88-103.6288 247.3984-156.2624 370.688a46.2848 46.2848 0 0 0 6.7584 46.2848H74.752a11.0592 11.0592 0 0 0-11.0592 11.0592 10.8544 10.8544 0 0 0 3.2768 7.7824 12.288 12.288 0 0 0 5.3248 3.2768h874.496c8.6016 0 13.5168-4.9152 13.5168-11.0592a10.8544 10.8544 0 0 0-3.2768-6.7584zM312.32 354.5088l32.3584-15.1552a84.1728 84.1728 0 0 1-20.48 57.344c-5.5296 6.144-10.8544 7.9872-16.1792 0 0-1.2288-2.048-2.048-2.8672-3.2768-18.432-21.9136-18.432-26.624 7.168-38.912zM399.7696 675.84c-4.5056 58.368-8.8064 116.9408-13.5168 175.3088-1.2288 14.1312-4.096 28.4672 10.8544 40.96h-225.28a86.4256 86.4256 0 0 0 22.3232-33.1776c38.912-88.2688 78.848-176.128 118.784-263.9872a28.4672 28.4672 0 0 1 8.192-14.336c24.9856 27.0336 49.5616 54.0672 74.5472 81.92a17.6128 17.6128 0 0 1 4.096 13.312zM450.56 501.9648a496.8448 496.8448 0 0 1 32.768-56.32 393.4208 393.4208 0 0 0 40.96 102.4c-27.8528-12.288-55.9104-23.552-75.5712-31.3344a17.8176 17.8176 0 0 1 1.8432-14.7456z m20.48 389.12h-3.8912c16.384-25.8048 12.9024-56.32 15.5648-85.1968 4.7104-49.5616 5.9392-99.328 12.288-148.8896a54.4768 54.4768 0 0 0-15.7696-43.8272c-9.0112-10.24-19.2512-20.48-28.8768-29.2864a131.6864 131.6864 0 0 1-24.9856-33.9968c74.5472 31.744 147.2512 65.7408 161.5872 72.704a8.6016 8.6016 0 0 0 2.4576 11.6736l18.6368 12.0832a8.3968 8.3968 0 0 0 11.6736-2.4576l1.4336-2.2528 58.5728 25.3952-2.048 3.072a4.7104 4.7104 0 0 0 1.4336 6.5536l10.4448 6.9632a5.3248 5.3248 0 0 0 5.9392 0c63.2832 45.6704 61.44 99.5328 113.8688 184.32 5.5296 9.216 4.3008 14.7456 9.8304 22.3232z" fill="#231815"/><path d="M691.2 868.5568m8.192 0l224.6656 0q8.192 0 8.192 8.192l0 5.7344q0 8.192-8.192 8.192l-224.6656 0q-8.192 0-8.192-8.192l0-5.7344q0-8.192 8.192-8.192Z" fill="#231815"/></svg>