<svg xmlns="http://www.w3.org/2000/svg" class="icon" style="width: 1em;height: 1em;vertical-align: middle;fill: currentColor;overflow: hidden;" viewBox="0 0 1024 1024" version="1.1" width="1024" height="1024"><path d="M369.066667 1006.933333c-4.266667 4.266667-10.666667 6.4-14.933334 8.533334-6.4 0-12.8 0-17.066666-2.133334-66.133333-10.666667-132.266667-12.8-200.533334-6.4 0-8.533333 6.4-19.2 14.933334-21.333333 8.533333-4.266667 19.2-4.266667 27.733333-4.266667 36.266667 0 74.666667 2.133333 110.933333 2.133334 21.333333 0 40.533333 0 61.866667 2.133333 6.4 0 14.933333 0 19.2 6.4 2.133333 2.133333 2.133333 10.666667-2.133333 14.933333z" fill="#E8EAE8"/><path d="M375.466667 979.2c-8.533333-6.4-19.2-6.4-27.733334-6.4-59.733333 0-121.6 8.533333-181.333333 0-8.533333-2.133333-17.066667-2.133333-25.6 0-8.533333 2.133333-14.933333 10.666667-19.2 17.066667-4.266667 8.533333-4.266667 17.066667-4.266667 25.6l2.133334 2.133333c72.533333-4.266667 147.2-4.266667 219.733333 4.266667 10.666667 2.133333 23.466667 2.133333 32-4.266667 6.4-4.266667 10.666667-12.8 10.666667-19.2 4.266667-6.4 0-14.933333-6.4-19.2z m-10.666667 27.733333c-4.266667 4.266667-8.533333 4.266667-14.933333 4.266667-4.266667 0-10.666667-2.133333-14.933334-2.133333-10.666667-2.133333-21.333333-2.133333-32-4.266667-25.6-2.133333-53.333333-2.133333-78.933333-4.266667-29.866667 0-57.6 0-87.466667 4.266667 0-8.533333 6.4-14.933333 14.933334-19.2 8.533333-4.266667 17.066667-4.266667 23.466666-4.266667 59.733333-2.133333 119.466667 0 177.066667 4.266667 6.4 0 12.8 2.133333 14.933333 6.4 4.266667 4.266667 2.133333 10.666667-2.133333 14.933333z" fill="#ACB2BA"/><path d="M480 588.8l8.533333 8.533333-198.4 330.666667-10.666666-6.4z" fill="#425A6B"/><path d="M497.066667 561.066667a12.8 10.666667 90 1 0 21.333333 0 12.8 10.666667 90 1 0-21.333333 0Z" fill="#F5B54C"/><path d="M512 541.866667l-17.066667-4.266667c-2.133333-4.266667-4.266667-12.8-4.266666-23.466667 0-8.533333 4.266667-19.2 10.666666-44.8 6.4-25.6 6.4-59.733333 4.266667-72.533333 0-12.8 2.133333-29.866667 4.266667-40.533333s4.266667-44.8 4.266666-44.8-42.666667-19.2-51.2-2.133334c-8.533333 17.066667-6.4 44.8-6.4 59.733334s0 27.733333-2.133333 34.133333c-2.133333 6.4-4.266667 57.6-4.266667 64 0 8.533333 8.533333 38.4 8.533334 51.2v29.866667c0 4.266667 2.133333 29.866667 2.133333 29.866666v4.266667c0 2.133333 14.933333 17.066667 14.933333 17.066667s4.266667 2.133333 10.666667 2.133333 4.266667-6.4 4.266667-6.4h4.266666c4.266667-2.133333 4.266667-4.266667 4.266667-4.266667s2.133333 2.133333 6.4-2.133333c2.133333-4.266667 2.133333-6.4 2.133333-6.4 2.133333 0 2.133333 0 4.266667-2.133333 2.133333 6.4 6.4 6.4 6.4 6.4l2.133333-10.666667 4.266667-4.266667c2.133333-2.133333 2.133333-4.266667 2.133333-6.4l-4.266666-17.066666c-2.133333-2.133333-6.4-4.266667-10.666667-6.4z m0 27.733333l-4.266667-4.266667c-12.8-6.4-6.4-14.933333-6.4-14.933333l8.533334 10.666667 2.133333 8.533333c0-2.133333 0 0 0 0z" fill="#FFD15C"/><path d="M896 983.466667s6.4 0 6.4-2.133334l2.133333-2.133333s0-4.266667-2.133333-8.533333l-8.533333-17.066667c-2.133333-4.266667-6.4-10.666667-8.533334-23.466667-2.133333-12.8 2.133333-38.4-10.666666-40.533333l-12.8-2.133333-29.866667 14.933333s-4.266667 19.2-4.266667 27.733333v10.666667s10.666667 14.933333 10.666667 21.333333c0 4.266667 0 8.533333 4.266667 14.933334 4.266667 6.4 44.8 17.066667 53.333333 6.4z" fill="#344A5E"/><path d="M904.533333 981.333333c2.133333 6.4 0 10.666667-4.266666 14.933334-4.266667 2.133333-36.266667 4.266667-46.933334 0-10.666667-4.266667-12.8-14.933333-12.8-21.333334 0-6.4 0-10.666667-2.133333-12.8v4.266667s-10.666667-6.4-10.666667-12.8c0-8.533333 0-14.933333 2.133334-21.333333 0 0 2.133333 8.533333 6.4 14.933333 4.266667 6.4 4.266667 17.066667 6.4 23.466667 2.133333 4.266667 6.4 10.666667 19.2 12.8 12.8 2.133333 38.4 0 42.666666-2.133334z" fill="#425A6B"/><path d="M569.6 998.4s-25.6-6.4-25.6-10.666667-2.133333-12.8 4.266667-17.066666c6.4-2.133333 25.6-10.666667 29.866666-14.933334 4.266667-4.266667 17.066667-19.2 19.2-29.866666 4.266667-10.666667 6.4-17.066667 6.4-17.066667l55.466667-10.666667s6.4 29.866667 8.533333 38.4c0 8.533333-4.266667 21.333333-4.266666 21.333334l-27.733334 10.666666s-8.533333 10.666667-14.933333 17.066667c-4.266667 6.4-8.533333 8.533333-21.333333 10.666667s-29.866667 2.133333-29.866667 2.133333z" fill="#344A5E"/><path d="M445.866667 76.8l12.8 32s6.4 2.133333 6.4 8.533333c2.133333 6.4 17.066667 21.333333 23.466666 27.733334 6.4 6.4 14.933333 10.666667 17.066667 17.066666 2.133333 6.4 12.8 4.266667 12.8 4.266667l23.466667 38.4 46.933333 19.2 21.333333-76.8-14.933333-25.6s-19.2 0-29.866667-14.933333-12.8-51.2-12.8-51.2L490.666667 36.266667l-49.066667 12.8 4.266667 27.733333z" fill="#FFD15C"/><path d="M450.133333 93.866667l-4.266666-19.2s17.066667 2.133333 29.866666-14.933334l4.266667-4.266666c6.4-4.266667 10.666667 0 10.666667 2.133333 4.266667 4.266667 19.2 6.4 23.466666 6.4 4.266667 0 21.333333 10.666667 25.6 23.466667h4.266667s-6.4-14.933333-6.4-21.333334c0-6.4 8.533333-42.666667 8.533333-42.666666S520.533333-8.533333 488.533333 4.266667c-32 12.8-38.4 19.2-49.066666 34.133333-8.533333 12.8-8.533333 29.866667 2.133333 40.533333 2.133333 2.133333 2.133333 4.266667 4.266667 6.4 4.266667 6.4 4.266667 8.533333 4.266666 8.533334z" fill="#425A6B"/><path d="M522.666667 14.933333l21.333333 6.4s14.933333 19.2 8.533333 44.8c-2.133333 17.066667-6.4 23.466667-17.066666 4.266667L501.333333 14.933333h21.333334z" fill="#425A6B"/><path d="M561.066667 74.666667c2.133333 10.666667-2.133333 19.2-8.533334 19.2s-12.8-8.533333-14.933333-19.2c-2.133333-10.666667 2.133333-19.2 8.533333-19.2 6.4 0 12.8 8.533333 14.933334 19.2z" fill="#FFD15C"/><path d="M554.666667 104.533333s2.133333 12.8-8.533334 36.266667-27.733333 27.733333-27.733333 27.733333l12.8 23.466667c2.133333-4.266667 4.266667-6.4 6.4-10.666667 21.333333-36.266667 17.066667-76.8 17.066667-76.8z" fill="#F5B54C"/><path d="M522.666667 177.066667s21.333333 36.266667 42.666666 32c23.466667-4.266667 29.866667-34.133333 29.866667-51.2 0-17.066667-8.533333-36.266667-8.533333-36.266667s17.066667 2.133333 27.733333 2.133333c8.533333 0 59.733333 4.266667 68.266667 4.266667s27.733333 4.266667 38.4 17.066667c10.666667 12.8 32 34.133333 44.8 40.533333l12.8 8.533333s-17.066667 42.666667-51.2 55.466667c0 0 12.8 53.333333 23.466666 70.4s8.533333 38.4 8.533334 38.4l-14.933334 23.466667-204.8-64s-19.2-6.4-23.466666-10.666667l2.133333 14.933333s-38.4 8.533333-59.733333-4.266666c0 0-2.133333-49.066667 4.266666-68.266667 6.4-19.2 14.933333-38.4 21.333334-44.8 8.533333-10.666667 34.133333-34.133333 34.133333-34.133333l4.266667 6.4z" fill="#E8EAE8"/><path d="M627.2 123.733333s2.133333 19.2 4.266667 40.533334c4.266667 21.333333 23.466667 110.933333 23.466666 110.933333h12.8s89.6 119.466667 91.733334 74.666667c0 0 6.4 38.4 17.066666 66.133333 10.666667 25.6 17.066667 23.466667 19.2 49.066667 2.133333 25.6 0 27.733333 6.4 36.266666 4.266667 8.533333 32 115.2 36.266667 140.8 2.133333 25.6 12.8 64 14.933333 83.2 4.266667 19.2 29.866667 170.666667 29.866667 170.666667s-29.866667 40.533333-76.8-6.4c0 0-19.2-64-21.333333-74.666667-2.133333-10.666667-27.733333-83.2-36.266667-100.266666-6.4-17.066667-38.4-100.266667-51.2-128-12.8-27.733333-23.466667-40.533333-23.466667-40.533334s-17.066667 100.266667-23.466666 115.2c-6.4 14.933333-10.666667 23.466667-10.666667 23.466667s-2.133333 87.466667 4.266667 117.333333c6.4 29.866667 17.066667 98.133333 17.066666 98.133334s-14.933333 12.8-23.466666 21.333333c-8.533333 8.533333-34.133333 19.2-44.8 2.133333 0 0 0-21.333333-4.266667-32s-14.933333-53.333333-19.2-74.666666c-4.266667-19.2-10.666667-57.6-10.666667-57.6s-14.933333-49.066667-10.666666-87.466667c4.266667-38.4 2.133333-70.4 2.133333-76.8 0-6.4 4.266667-61.866667 8.533333-78.933333 4.266667-17.066667 4.266667-21.333333 6.4-25.6 0-4.266667 4.266667-19.2 6.4-25.6 2.133333-6.4 0-17.066667 2.133334-27.733334s-4.266667-44.8-4.266667-53.333333v-2.133333c0-2.133333-25.6-12.8-27.733333-21.333334-4.266667-2.133333-8.533333-19.2-8.533334-32-2.133333-12.8-4.266667-19.2-4.266666-19.2l8.533333-4.266666s-17.066667-49.066667-21.333333-74.666667c-4.266667-23.466667-6.4-46.933333-6.4-55.466667l8.533333-4.266666 2.133333 2.133333s12.8 57.6 17.066667 68.266667c4.266667 10.666667 21.333333 59.733333 21.333333 59.733333s36.266667 2.133333 42.666667 0c4.266667-2.133333 34.133333-14.933333 34.133333-14.933333s-12.8-44.8-14.933333-57.6c-2.133333-12.8-14.933333-89.6-14.933333-104.533334h21.333333z" fill="#67C5B8"/><path d="M667.733333 537.6c-4.266667-2.133333-49.066667-6.4-55.466666-6.4-6.4 0-17.066667 0-2.133334 2.133333 14.933333 2.133333 38.4 2.133333 38.4 2.133334s-34.133333 8.533333-46.933333 10.666666c-12.8 2.133333-27.733333 8.533333-12.8 4.266667s57.6-12.8 64-14.933333c4.266667-2.133333 8.533333 2.133333 6.4 4.266666-2.133333 2.133333-36.266667 12.8-53.333333 14.933334-17.066667 0-29.866667 4.266667-6.4 4.266666 23.466667 0 61.866667-10.666667 66.133333-14.933333 4.266667-4.266667-8.533333 21.333333-17.066667 32-10.666667 8.533333-51.2 46.933333-44.8 44.8 6.4-2.133333 46.933333-40.533333 55.466667-49.066667 8.533333-10.666667 12.8-17.066667 12.8-17.066666s-4.266667 29.866667-6.4 40.533333c4.266667-25.6 8.533333-46.933333 8.533333-46.933333s-2.133333-8.533333-6.4-10.666667z" fill="#48B9A5"/><path d="M544 987.733333s14.933333 6.4 27.733333 6.4c12.8 0 34.133333-2.133333 40.533334-6.4 6.4-6.4 14.933333-21.333333 25.6-25.6 10.666667-4.266667 27.733333-10.666667 27.733333-21.333333V938.666667c-2.133333-12.8 8.533333 23.466667 0 32-8.533333 8.533333-19.2 10.666667-21.333333 8.533333-2.133333-2.133333-10.666667-6.4-17.066667 0-6.4 6.4-4.266667 6.4-8.533333 10.666667s-23.466667 17.066667-55.466667 12.8c2.133333 2.133333-21.333333 0-19.2-14.933334zM650.666667 330.666667l-142.933334 234.666666c-8.533333-4.266667-8.533333-10.666667-6.4-12.8l2.133334-2.133333L640 324.266667l10.666667 6.4z" fill="#425A6B"/><path d="M622.784 348.330667l16.64-27.328 14.570667 8.874666-16.64 27.306667z" fill="#F26F5A"/><path d="M840.533333 270.933333c-2.133333-19.2-23.466667-38.4-27.733333-42.666666-2.133333-4.266667-19.2-27.733333-34.133333-34.133334-2.133333 6.4-19.2 40.533333-49.066667 53.333334 4.266667 4.266667 19.2 10.666667 36.266667 12.8 0 0-6.4 8.533333-14.933334 12.8-2.133333 2.133333-8.533333 4.266667-14.933333 6.4-19.2 6.4-49.066667 12.8-49.066667 12.8l-6.4-17.066667c-2.133333-4.266667-4.266667-6.4-8.533333-6.4h-14.933333c-2.133333 0-4.266667 2.133333-6.4 4.266667l-4.266667 6.4-6.4 6.4s2.133333 2.133333 4.266667 2.133333c0 0-6.4 0-8.533334 4.266667 0 4.266667 0 4.266667 2.133334 4.266666-2.133333 0-6.4-2.133333-6.4 2.133334-2.133333 6.4 2.133333 6.4 2.133333 6.4s-2.133333 0-4.266667 4.266666 2.133333 6.4 2.133334 6.4-2.133333 0-4.266667 2.133334c0 2.133333 2.133333 6.4 4.266667 8.533333 2.133333 2.133333 19.2 8.533333 19.2 8.533333s8.533333 4.266667 17.066666 4.266667c6.4-2.133333 10.666667-6.4 17.066667-8.533333 6.4-2.133333 23.466667-6.4 36.266667-6.4 4.266667 0 17.066667-2.133333 32-4.266667 21.333333-4.266667 44.8-10.666667 61.866666-19.2 27.733333-14.933333 27.733333-10.666667 25.6-29.866667z m-192 17.066667c4.266667 0 8.533333-2.133333 10.666667-6.4 0 0 2.133333 4.266667 6.4 6.4h-17.066667zM648.533333 288h-4.266666 4.266666z" fill="#FFD15C"/><path d="M637.866667 298.666667h2.133333c2.133333 0 4.266667 0 6.4 2.133333 2.133333 0 4.266667 2.133333 6.4 2.133333h0c-2.133333 0-4.266667 0-6.4-2.133333-2.133333 0-4.266667-2.133333-6.4-2.133333h-2.133333c2.133333 0 0 0 0 0zM633.6 307.2h2.133333c2.133333 0 4.266667 2.133333 6.4 2.133333 2.133333 0 4.266667 2.133333 6.4 2.133334h0c-2.133333 0-4.266667-2.133333-6.4-2.133334-2.133333 0-4.266667-2.133333-6.4-2.133333 0 2.133333 0 2.133333-2.133333 0zM631.466667 317.866667h4.266666s2.133333 0 4.266667 2.133333c2.133333 0 2.133333 0 4.266667 2.133333 2.133333 0 2.133333 0 4.266666 2.133334 2.133333 0 2.133333 0 4.266667 2.133333h0s-2.133333 0-4.266667-2.133333c-2.133333 0-2.133333 0-4.266666-2.133334-2.133333 0-2.133333 0-4.266667-2.133333-2.133333 0-2.133333 0-4.266667-2.133333s-2.133333 2.133333-4.266666 0z" fill="#F5B54C"/><path d="M507.733333 584.533333c-2.133333-2.133333-2.133333-2.133333-4.266666-2.133333l-2.133334-2.133333c-2.133333 0-4.266667-2.133333-4.266666-4.266667l-4.266667-4.266667-2.133333-2.133333v-2.133333h4.266666l2.133334 2.133333 4.266666 4.266667 4.266667 4.266666 2.133333 2.133334c-2.133333 2.133333 0 2.133333 0 4.266666zM499.2 593.066667c-2.133333 0-2.133333-2.133333-2.133333-2.133334l-2.133334-2.133333c-2.133333 0-2.133333-2.133333-4.266666-2.133333s-2.133333-2.133333-4.266667-2.133334-2.133333-2.133333-2.133333-2.133333l-2.133334-2.133333s2.133333 0 2.133334 2.133333l2.133333 2.133333c2.133333 0 2.133333 2.133333 4.266667 2.133334s2.133333 2.133333 4.266666 2.133333 2.133333 2.133333 2.133334 2.133333 2.133333 0 2.133333 2.133334zM490.666667 599.466667c-2.133333 0-2.133333 0-2.133334-2.133334 0 0-2.133333 0-2.133333-2.133333-2.133333 0-2.133333-2.133333-4.266667-2.133333 0 0-2.133333 0-2.133333-2.133334l-2.133333-2.133333-2.133334-2.133333-2.133333-2.133334 2.133333 2.133334 2.133334 2.133333s2.133333 0 2.133333 2.133333c2.133333 0 2.133333 2.133333 4.266667 2.133334l2.133333 2.133333 4.266667 4.266667z" fill="#F5B54C"/><path d="M512 582.4c0-2.133333 0-2.133333 0 0v-2.133333-2.133334-2.133333-2.133333-2.133334-2.133333-2.133333 10.666666c-2.133333 2.133333 0 2.133333 0 4.266667 0-2.133333 0 0 0 0z" fill="#F5B54C"/><path d="M313.6 898.133333l-46.933333 74.666667-10.666667 14.933333-12.8-6.4c4.266667-12.8 10.666667-23.466667 17.066667-34.133333l36.266666-57.6 17.066667 8.533333z" fill="#F26F5A"/><path d="M264.533333 996.266667c-12.8 2.133333-27.733333 2.133333-38.4 0 2.133333 0 6.4-4.266667 10.666667-8.533334 2.133333-2.133333 6.4-6.4 6.4-8.533333 2.133333-2.133333 4.266667-4.266667 8.533333-4.266667s6.4 4.266667 8.533334 8.533334v4.266666c0 2.133333 0 6.4 2.133333 8.533334h2.133333z" fill="#425A6B"/></svg>