<svg xmlns="http://www.w3.org/2000/svg" class="icon" style="width: 1em;height: 1em;vertical-align: middle;fill: currentColor;overflow: hidden;" viewBox="0 0 1024 1024" version="1.1" width="1024" height="1024"><path d="M512 512m-512 0a512 512 0 1 0 1024 0 512 512 0 1 0-1024 0Z" fill="#1990FF" opacity=".2"/><path d="M512 512m-409.6 0a409.6 409.6 0 1 0 819.2 0 409.6 409.6 0 1 0-819.2 0Z" fill="#1990FF"/><path d="M47.786667 75.093333m-47.786667 0a47.786667 47.786667 0 1 0 95.573333 0 47.786667 47.786667 0 1 0-95.573333 0Z" fill="#1990FF"/><path d="M1003.52 921.6m-20.48 0a20.48 20.48 0 1 0 40.96 0 20.48 20.48 0 1 0-40.96 0Z" fill="#1990FF"/><path d="M653.1072 709.973333a205.824 205.824 0 0 0 188.142933-118.3744A191.146667 191.146667 0 0 0 858.658133 512a197.973333 197.973333 0 0 0-116.736-178.7904C733.7984 230.741333 645.188267 150.186667 537.053867 150.186667 423.253333 150.186667 331.502933 238.933333 331.502933 348.16a203.912533 203.912533 0 0 0 1.092267 20.48c-95.0272 3.618133-170.666667 78.506667-170.666667 170.666667a163.84 163.84 0 0 0 17.339734 73.591466A179.063467 179.063467 0 0 0 339.899733 709.973333z" fill="#70CAFF"/><path d="M525.653333 573.44m-204.8 0a204.8 204.8 0 1 0 409.6 0 204.8 204.8 0 1 0-409.6 0Z" fill="#FFFFFF"/><path d="M729.770667 842.478933a19.6608 19.6608 0 0 1-14.7456-6.826666l-73.864534-82.807467a19.729067 19.729067 0 0 1 29.559467-26.2144l73.796267 83.012267a19.729067 19.729067 0 0 1-14.7456 32.836266z" fill="#FF9600"/><path d="M525.653333 573.44m-170.666666 0a170.666667 170.666667 0 1 0 341.333333 0 170.666667 170.666667 0 1 0-341.333333 0Z" fill="#70CAFF"/><path d="M464.213333 573.44m-20.48 0a20.48 20.48 0 1 0 40.96 0 20.48 20.48 0 1 0-40.96 0Z" fill="#FFFFFF"/><path d="M525.653333 573.44m-20.48 0a20.48 20.48 0 1 0 40.96 0 20.48 20.48 0 1 0-40.96 0Z" fill="#FFFFFF"/><path d="M587.093333 573.44m-20.48 0a20.48 20.48 0 1 0 40.96 0 20.48 20.48 0 1 0-40.96 0Z" fill="#FFFFFF"/></svg>