<svg xmlns="http://www.w3.org/2000/svg" class="icon" style="width: 1em;height: 1em;vertical-align: middle;fill: currentColor;overflow: hidden;" viewBox="0 0 1024 1024" version="1.1" width="1024" height="1024"><path d="M102.4 741.056h819.2V94.336H102.4v646.72z m460.8 94.336v94.272H768V1024H256v-94.336h204.8v-94.272H50.752c-28.032 0-50.752-21.184-50.752-47.552V47.488C0 21.248 23.296 0 50.752 0h922.496c28.032 0 50.752 21.12 50.752 47.488V787.84c0 26.24-23.296 47.552-50.752 47.552H563.2z" fill="#606C80"/><path d="M444.16 340.48L377.152 465.6H192V363.584h134.848l76.864-143.616c20.928-39.104 71.552-36.736 89.536 4.288l109.888 250.24 38.4-110.912H832v102.016h-129.472l-47.616 137.472c-16.192 46.912-73.6 49.792-93.44 4.672L444.16 340.48z" fill="#ABB2BC"/></svg>