<svg xmlns="http://www.w3.org/2000/svg" class="icon" style="width: 1em;height: 1em;vertical-align: middle;fill: currentColor;overflow: hidden;" viewBox="0 0 1024 1024" version="1.1" width="1024" height="1024"><path d="M319.5 310.4h11.9v73.5h-11.9z" fill="#2D2D2B"/><path d="M325.7 629.6l-9.1-12.6 72.7-49 9.9 12.3z" fill="#46A1B7"/><path d="M336.4 322.9h11.9v61h-11.9z" fill="#2D2D2B"/><path d="M656.6 383.8l-11.8-8 36.8-57.4 11.9 8z" fill="#FB7F4A"/><path d="M370 314.3h11.9v69.5H370z" fill="#46A1B7"/><path d="M685.6 383.8l-10.7-2.8 22.9-67.8 10.7 2.9z" fill="#2D2D2B"/><path d="M616.548 371.946v11.9h-69.5v-11.9zM616.455 363.653v5.9h-69.5v-5.9zM428.7 290.6h16.6v93.3h-16.6z" fill="#46A1B7"/><path d="M390.2 332.2h8.9v51.7h-8.9z" fill="#2D2D2B"/><path d="M353.2 341h11.9v42.9h-11.9z" fill="#46A1B7"/><path d="M314.7 739.7h94.7V750h-94.7z" fill="#2D2D2B"/><path d="M320.7 714.4h94.7v19.4h-94.7z" fill="#FB7F4A"/><path d="M320.7 698.1h94.7v10.3h-94.7zM320.7 681.9h88.8v10.3h-88.8zM680.2 503.4l12.6 3.1 16.7-79-12.7-3.1z" fill="#2D2D2B"/><path d="M677.757 506.409h-12.7v-79h12.7z" fill="#FB7F4A"/><path d="M660.188 506.443h-18.6v-85.1h18.6zM422.6 657.1h12.7v92.7h-12.7zM440.9 682.5h16v67.4h-16zM461.8 675h6.3v74.9h-6.3z" fill="#46A1B7"/><path d="M387.5 613h85.2v15.3h-85.2z" fill="#FB7F4A"/><path d="M383.1 590.5h85.2v17.9h-85.2z" fill="#46A1B7"/><path d="M537 482.1h97.9v24.8H537z" fill="#2D2D2B"/><path d="M296 257.4v509.2h432V257.4H296zM711.4 750H312.6V274h398.8v476z" fill="#2D2D2B"/><path d="M312.6 384.5h398.8v10H312.6zM312.6 506.8h398.8v10H312.6zM312.6 629.1h398.8v10H312.6z" fill="#2D2D2B"/></svg>