<svg xmlns="http://www.w3.org/2000/svg" class="icon" style="width: 1em;height: 1em;vertical-align: middle;fill: currentColor;overflow: hidden;" viewBox="0 0 1024 1024" version="1.1" width="1024" height="1024"><path d="M872 643a27.46 27.46 0 0 0-1 4c-2 21.76-3.9 43.53-6 65.28-0.68 7-1.28 14.11-3.21 20.79-3.91 13.56-19.33 21.35-33 16.67a26.45 26.45 0 0 1-17.3-31c1.71-8.14 2.5-16.49 3.45-24.78 1.44-12.72 3.06-25.44 3.86-38.21 0.84-13.23 1.16-26.53 1-39.79-0.09-10.21-0.94-20.43-1.94-30.6-1-10.59-2.3-21.18-4.15-31.65a272.2 272.2 0 0 0-17.61-58.81c-9.47-22.35-21-43.53-35.68-62.85a200.57 200.57 0 0 0-15.73-17.77c-9.24-9.55-18.65-9.49-28.3-0.15a24.74 24.74 0 0 0-7.45 16.09c-1 10.39-6 18.43-15.72 22.56-11.09 4.73-21 1.76-29.93-5.92a111.65 111.65 0 0 0-12.8-9.88c-12.08-7.69-23-0.08-26.37 11.8-1.66 5.92-2.12 12.22-3.12 18.29-1.46 9.3-9.19 17.81-18.17 19.89-11.67 2.7-21.76-0.86-28-9.2-5.29-7.1-10.66-14.27-19.94-16.86-10.18-2.85-18.51 1.66-26.71 6.5-2.2 1.3-2 3.51-0.55 5.85 6 9.49 12.66 18.73 17.59 28.78 6.63 13.53 3.06 25.28-8.59 33.47-9.95 7-24 6.65-33.07-3.35-9.49-10.52-16.91-22.25-23.26-34.95-4.7-9.42-11.25-18-17.36-26.61-9.15-12.95-18.45-25.79-28-38.41-6.64-8.75-13.58-17.31-20.91-25.49-8.3-9.26-16.84-18.38-25.93-26.86-8.71-8.12-18.09-15.72-29.88-19-3.7-1-8.24-1.55-11.72-0.35-7.33 2.52-11.24 6.48-7.9 17.78C343.28 394 352.33 407.43 361 421q36.34 56.63 73 113c17 26.29 34.19 52.5 51.26 78.76 4.18 6.42 8.52 12.76 12.29 19.43 7.92 14 0 31.84-13.53 37-10.24 3.89-18.83 0-27.87-3.18-18.29-6.47-36.78-12.33-56.06-15a183.8 183.8 0 0 0-26.09-1.85c-8.83 0.05-17.4 1.64-24.76 7.66-6.46 5.29-7.3 8.95-1.91 15.06a112.89 112.89 0 0 0 35.56 26.94c30.07 14.61 60.47 28.57 90.88 42.47 23.72 10.85 47.67 21.21 71.52 31.77 13.9 6.14 27.71 12.49 41.71 18.31 17 7.09 21.37 24.33 14.06 38a25.19 25.19 0 0 1-32.31 11.37c-21-8.94-41.73-18.51-62.6-27.76-32-14.21-64.16-28.23-96.12-42.6-26.08-11.72-52.19-23.4-75.55-40.27-15.58-11.25-30.06-23.42-38.88-41-9.22-18.42-7-36.24 3.24-53.29 13.09-21.73 32.94-33.93 57.66-37.61a143.53 143.53 0 0 1 47.86 0.71c3 0.57 6.09 0.67 9.87 1.07-6.28-9.65-12.25-18.78-18.17-28q-35.53-55.1-71-110.24c-7.65-11.95-15.28-23.95-22.05-36.4-8.11-14.93-14.37-30.8-16.78-47.71-2.59-18.22-0.63-35.83 12.79-50 7.91-8.35 18.26-13.05 29.08-16.66 23.75-7.92 45.69-3.07 66.69 9.16a193.31 193.31 0 0 1 46.5 37.86c15.59 17.31 29.9 35.77 44.7 53.78a90 90 0 0 1 7.77 10.7c1.65 2.77 2.7 2.84 5.33 1.08 12.26-8.15 25.78-13.73 40.34-15.35 12.57-1.4 25.41-1 37.26 4.73 3.93 1.89 5.9 1.11 8.59-2.5 12.41-16.71 28.68-26.83 49.94-28.63a65.07 65.07 0 0 1 31.42 4.9c1.32 0.55 4.14 0 4.94-1.07 12.81-17 30.38-26.31 50.61-30.39 9.45-1.9 19.3-0.23 28.52 3.59 18.17 7.53 32.48 19.87 45.41 34.45 15.55 17.55 28 37.08 38.38 57.89 12.42 25 22.58 51 27.49 78.62 3.24 18.17 5.53 36.52 8 54.81 0.77 5.71 0.69 11.53 1.1 17.29a13.38 13.38 0 0 0 1 3z" fill="#1296DB"/><path d="M547 154c8.66 3 17.89 4.92 25.86 9.2 22.1 11.88 36.28 30.37 41 55.23 1.43 7.57 2 15.71 0.88 23.26-1.74 11.45-12.12 19.59-23.74 19.37-13.69-0.26-21.44-5.09-26.19-17.83-1.33-3.58-1.43-7.66-1.78-11.54-1.42-15.9-15.6-25.88-31.05-25.84q-148.2 0.43-296.41 0c-16.67 0-29.41 14.3-29.58 29.8-0.15 15.32 0 30.65 0 46V788.5c0 13.8 8.84 27 23.3 30.15a23.33 23.33 0 0 0 4.95 0.32h109c11.24 0 21.63 6.76 25.22 17s2.13 21.19-7.35 29c-3.78 3.11-9.33 4.05-14.09 6-1 0.4-2 0.68-3 1H233a7.68 7.68 0 0 0-2.51-1c-13.44 0.12-25.54-4.09-37-10.85-15.13-9-26.29-21.33-32.61-37.73-2.81-7.29-4.63-15-6.9-22.47V226c0.66-2.92 1.3-5.85 2-8.77 7.09-29.57 24.94-49.47 53.67-59.48 4.35-1.52 8.88-2.51 13.33-3.75z" fill="#1296DB"/><path d="M154 800c2.27 7.5 4.09 15.18 6.9 22.47 6.32 16.4 17.48 28.78 32.61 37.73 11.44 6.76 23.54 11 37 10.85a7.68 7.68 0 0 1 2.51 1H154zM223 154c-4.45 1.24-9 2.23-13.33 3.75-28.73 10-46.58 29.91-53.67 59.48-0.7 2.92-1.34 5.85-2 8.77v-72z" fill="#FFFFFF"/></svg>