<svg xmlns="http://www.w3.org/2000/svg" class="icon" style="width: 1em;height: 1em;vertical-align: middle;fill: currentColor;overflow: hidden;" viewBox="0 0 1024 1024" version="1.1" width="1024" height="1024"><path d="M399.59 745.57l-93.38 152.44" fill="#FFCE0C"/><path d="M306.19 913.44A15.44 15.44 0 0 1 293.05 890l93.38-152.43a15.43 15.43 0 1 1 26.31 16.11l-93.38 152.39a15.42 15.42 0 0 1-13.17 7.37z" fill="#191007"/><path d="M525.95 753.19l91.06 145.57" fill="#FFCE0C"/><path d="M617 914.18a15.43 15.43 0 0 1-13.1-7.24l-91.03-145.57A15.42 15.42 0 1 1 539 745l91.07 145.57A15.43 15.43 0 0 1 617 914.18z" fill="#191007"/><path d="M461.67 491.66m-253.98 0a253.98 253.98 0 1 0 507.96 0 253.98 253.98 0 1 0-507.96 0Z" fill="#FFCE0C"/><path d="M461.67 761.06a269.4 269.4 0 1 1 190.5-78.91 267.59 267.59 0 0 1-190.5 78.91z m0-508A238.57 238.57 0 1 0 630.36 323a237 237 0 0 0-168.69-69.9z" fill="#191007"/><path d="M461.67 491.66m-165.55 0a165.55 165.55 0 1 0 331.1 0 165.55 165.55 0 1 0-331.1 0Z" fill="#FFFFFF"/><path d="M461.67 667.49c-96.95 0-175.83-78.88-175.83-175.83s78.88-175.83 175.83-175.83S637.5 394.71 637.5 491.66s-78.87 175.83-175.83 175.83z m0-331.1c-85.61 0-155.26 69.65-155.26 155.27s69.65 155.26 155.26 155.26 155.27-69.65 155.27-155.26-69.65-155.27-155.27-155.27z" fill="#01040A"/><path d="M461.67 491.66m-95.63 0a95.63 95.63 0 1 0 191.26 0 95.63 95.63 0 1 0-191.26 0Z" fill="#FFCE0C"/><path d="M461.67 597.57a105.91 105.91 0 1 1 105.91-105.91 106 106 0 0 1-105.91 105.91z m0-191.26A85.35 85.35 0 1 0 547 491.66a85.44 85.44 0 0 0-85.33-85.35z" fill="#191007"/><path d="M461.67 491.66m-30.85 0a30.85 30.85 0 1 0 61.7 0 30.85 30.85 0 1 0-61.7 0Z" fill="#191007"/><path d="M461.39 491.71l160.33-157.55a75.25 75.25 0 0 0 22.41-57.69l-3-56.32a40.56 40.56 0 0 1 10-30l52.49-59.56a18.22 18.22 0 0 1 30.67 9.19l12.78 61a18.22 18.22 0 0 0 14 14.07l60.9 13.24a18.23 18.23 0 0 1 9 30.75l-58.53 58.08a18.2 18.2 0 0 1-14.44 5.19l-34.26-3q-7.12-0.61-14.28-0.76l-75-1.51" fill="#FFCE0C"/><path d="M472.2 502.71l-21.62-22 160.33-157.55a59.86 59.86 0 0 0 17.82-45.87l-3-56.13a56.28 56.28 0 0 1 13.84-41.25L692.4 120l0.37-0.36a33.64 33.64 0 0 1 56.63 17l12.78 61a2.79 2.79 0 0 0 2.14 2.16l60.9 13.2a33.65 33.65 0 0 1 16.55 56.76l-58.54 58.09a33.58 33.58 0 0 1-26.62 9.64l-34.25-3c-4.39-0.39-8.86-0.62-13.27-0.71l-65.81-1.33a89.89 89.89 0 0 1-10.75 12.7z m184.89-200.82l52.63 1.11c5.09 0.1 10.24 0.37 15.31 0.82l34.26 3a2.8 2.8 0 0 0 2.21-0.81l58.5-58.15a2.79 2.79 0 0 0-1.38-4.72l-60.9-13.25a33.69 33.69 0 0 1-25.77-26l-12.78-61a2.64 2.64 0 0 0-1.94-2.11 2.6 2.6 0 0 0-2.54 0.48l-52 59a25.3 25.3 0 0 0-6.21 18.63v0.4l3 56.31a90.73 90.73 0 0 1-2.39 26.29z" fill="#191007"/></svg>